{"glyphs":{"0":{"ha":777,"x_min":62,"x_max":714,"o":"m 714 497 q 694 288 714 382 q 633 127 674 194 q 532 23 593 60 q 389 -14 471 -14 q 241 23 303 -14 q 140 127 180 60 q 81 289 100 194 q 62 498 62 383 q 81 707 62 614 q 140 867 100 801 q 242 970 180 934 q 390 1006 304 1006 q 532 970 471 1006 q 633 867 593 934 q 694 707 674 801 q 714 497 714 613 m 207 497 q 216 313 207 394 q 247 176 226 232 q 303 91 269 120 q 389 61 338 61 q 474 91 439 61 q 530 176 509 120 q 561 313 551 232 q 570 497 570 394 q 561 681 570 600 q 530 817 551 762 q 474 902 509 873 q 390 930 440 930 q 304 902 339 930 q 248 817 269 873 q 216 681 226 762 q 207 497 207 600 z "},"1":{"ha":777,"x_min":92,"x_max":663,"o":"m 134 0 l 134 58 l 227 58 q 271 62 250 58 q 307 76 292 65 q 331 106 322 86 q 340 158 340 125 l 340 888 q 290 829 314 855 q 245 783 267 802 q 202 754 223 764 q 161 743 182 743 q 111 764 131 743 q 92 818 92 785 q 134 831 113 823 q 179 851 155 839 q 232 882 203 864 q 294 925 260 900 l 392 997 l 481 997 l 481 158 q 490 106 481 125 q 514 76 498 86 q 550 62 530 65 q 595 58 571 58 l 663 58 l 663 0 l 134 0 z "},"2":{"ha":777,"x_min":71,"x_max":675,"o":"m 640 774 q 625 679 640 725 q 579 584 609 633 q 506 484 549 536 q 408 371 463 431 l 174 111 l 494 111 q 546 120 526 111 q 579 143 566 129 q 599 176 592 157 q 611 215 606 195 l 616 240 l 675 240 l 668 0 l 71 0 l 71 102 l 302 370 q 396 485 358 434 q 456 581 433 536 q 490 669 479 626 q 500 760 500 712 q 491 832 500 800 q 466 887 483 864 q 421 923 448 911 q 358 936 395 936 q 281 919 311 936 q 235 873 252 902 q 212 808 218 845 q 205 729 205 770 q 159 733 180 729 q 121 748 137 737 q 95 775 104 758 q 86 819 86 793 q 103 893 86 859 q 155 953 121 928 q 240 992 189 978 q 358 1006 291 1006 q 476 989 424 1006 q 565 942 528 972 q 621 869 602 912 q 640 774 640 827 z "},"3":{"ha":777,"x_min":81,"x_max":696,"o":"m 345 61 q 423 73 386 61 q 489 111 460 84 q 534 180 517 137 q 551 285 551 222 q 534 365 551 329 q 484 425 517 400 q 405 464 452 450 q 300 478 358 478 l 256 478 l 256 549 l 300 549 q 386 564 346 549 q 455 607 425 579 q 501 674 484 635 q 518 764 518 714 q 510 836 518 804 q 484 890 502 868 q 438 924 466 913 q 370 936 410 936 q 292 919 322 936 q 245 873 262 902 q 222 808 229 845 q 216 729 216 770 q 170 733 191 729 q 132 748 148 737 q 106 775 115 758 q 97 819 97 793 q 114 893 97 859 q 166 953 132 928 q 252 992 201 978 q 370 1006 302 1006 q 489 991 435 1006 q 581 948 543 976 q 640 879 619 920 q 661 785 661 838 q 645 696 661 738 q 598 622 628 655 q 528 564 568 588 q 439 529 487 541 q 494 520 465 526 q 551 501 523 513 q 606 471 580 489 q 652 426 632 452 q 684 365 672 399 q 696 283 696 330 q 681 184 696 228 q 640 107 666 140 q 579 51 614 74 q 505 14 545 28 q 425 -7 466 -1 q 343 -14 383 -14 q 225 -1 275 -14 q 143 33 176 12 q 96 82 111 54 q 81 140 81 110 q 104 206 81 182 q 168 229 128 229 q 180 162 168 193 q 214 109 192 131 q 270 74 237 86 q 345 61 302 61 z "},"4":{"ha":777,"x_min":24,"x_max":757,"o":"m 585 272 l 585 158 q 594 106 585 125 q 618 76 603 86 q 654 62 633 65 q 699 58 675 58 l 717 58 l 717 0 l 298 0 l 298 58 l 338 58 q 382 62 361 58 q 418 76 403 65 q 443 106 433 86 q 452 158 452 125 l 452 272 l 24 272 l 24 329 l 453 991 l 585 991 l 585 350 l 757 350 l 757 272 l 585 272 m 452 607 q 452 674 452 637 q 454 749 453 711 q 457 824 455 787 q 461 895 458 862 q 448 869 456 885 q 428 833 439 853 q 404 792 416 814 q 379 750 391 770 q 355 711 366 729 q 336 681 345 693 l 123 350 l 452 350 l 452 607 z "},"5":{"ha":777,"x_min":77,"x_max":675,"o":"m 332 68 q 411 80 374 68 q 474 119 447 92 q 515 192 500 146 q 530 302 530 237 q 515 398 530 357 q 473 466 500 439 q 406 506 445 493 q 319 519 368 519 q 257 517 283 519 q 211 510 231 514 q 176 500 191 505 q 149 489 161 494 l 115 498 l 160 990 l 624 990 l 631 781 l 572 781 l 567 822 q 561 847 565 837 q 549 865 557 858 q 527 876 541 872 q 492 879 513 879 l 222 879 l 196 574 q 257 589 217 581 q 358 596 296 596 q 483 578 425 596 q 584 523 541 559 q 651 431 627 486 q 675 302 675 376 q 652 174 675 232 q 586 74 629 115 q 481 9 543 32 q 339 -14 418 -14 q 211 0 262 -14 q 131 33 161 13 q 89 78 101 54 q 77 126 77 103 q 98 186 77 165 q 164 208 119 208 q 175 153 164 178 q 206 108 185 127 q 258 79 227 90 q 332 68 290 68 z "},"6":{"ha":777,"x_min":85,"x_max":705,"o":"m 447 939 q 289 836 342 939 q 228 530 235 733 q 266 558 245 545 q 311 581 286 571 q 364 597 335 591 q 427 603 393 603 q 542 583 490 603 q 630 527 593 564 q 686 437 666 490 q 705 318 705 385 q 685 184 705 245 q 627 79 665 123 q 533 11 589 35 q 407 -14 478 -14 q 279 15 338 -14 q 177 106 220 44 q 109 266 134 168 q 85 500 85 363 q 95 629 85 566 q 124 748 104 692 q 174 852 144 804 q 244 933 203 899 q 335 987 284 968 q 447 1006 386 1006 q 548 994 505 1006 q 620 961 591 981 q 662 914 648 941 q 676 860 676 888 q 649 798 676 820 q 570 777 622 777 q 563 840 570 810 q 542 891 557 869 q 504 926 527 913 q 447 939 481 939 m 399 532 q 347 525 372 532 q 299 506 321 517 q 259 480 277 495 q 227 452 241 466 q 241 273 228 347 q 278 153 254 199 q 336 84 302 106 q 411 62 370 62 q 525 120 486 62 q 564 304 564 178 q 521 477 564 423 q 399 532 479 532 z "},"7":{"ha":777,"x_min":82,"x_max":710,"o":"m 264 0 l 591 879 l 227 879 q 146 808 152 879 l 140 739 l 82 739 l 89 990 l 710 990 l 710 950 l 368 0 l 264 0 z "},"8":{"ha":777,"x_min":64,"x_max":713,"o":"m 64 249 q 80 337 64 299 q 124 404 96 374 q 191 457 153 433 q 275 503 230 481 q 203 551 236 525 q 146 608 170 577 q 109 676 122 640 q 96 757 96 713 q 113 850 96 805 q 165 929 130 895 q 259 985 201 964 q 396 1006 316 1006 q 512 988 461 1006 q 598 938 563 970 q 651 862 633 906 q 669 766 669 819 q 656 686 669 721 q 618 624 642 652 q 559 575 593 597 q 482 532 524 553 q 576 479 534 507 q 649 419 618 452 q 696 349 680 387 q 713 265 713 311 q 689 148 713 199 q 622 60 665 96 q 517 5 578 24 q 379 -14 455 -14 q 242 7 301 -14 q 143 63 183 27 q 84 146 104 98 q 64 249 64 194 m 386 50 q 468 64 431 50 q 531 102 505 78 q 572 161 557 127 q 586 235 586 195 q 573 300 586 270 q 531 358 560 330 q 455 413 502 387 q 342 469 409 440 q 237 378 276 434 q 199 243 199 321 q 211 164 199 199 q 246 103 222 129 q 304 64 269 78 q 386 50 340 50 m 546 770 q 537 832 546 802 q 510 887 529 863 q 461 925 492 911 q 387 940 431 940 q 318 927 349 940 q 268 893 288 915 q 237 840 248 871 q 227 774 227 810 q 238 707 227 736 q 274 652 250 677 q 332 607 297 628 q 414 564 368 585 q 478 604 453 583 q 519 649 504 625 q 540 704 534 674 q 546 770 546 733 z "},"9":{"ha":777,"x_min":71,"x_max":692,"o":"m 317 61 q 487 164 432 61 q 549 476 542 267 q 514 441 534 458 q 468 411 494 424 q 412 390 443 397 q 345 382 381 382 q 234 399 284 382 q 147 452 183 417 q 91 541 111 488 q 71 664 71 593 q 91 802 71 739 q 150 910 111 865 q 243 980 188 955 q 368 1006 298 1006 q 498 979 439 1006 q 600 895 557 951 q 668 749 644 838 q 692 539 692 661 q 683 397 692 467 q 654 266 673 328 q 605 153 635 204 q 533 63 574 101 q 437 5 491 26 q 315 -16 382 -16 q 217 -5 256 -16 q 156 22 178 5 q 123 61 133 39 q 114 104 114 83 q 127 148 114 130 q 155 171 140 165 q 179 129 165 149 q 213 94 193 109 q 258 70 233 79 q 317 61 284 61 m 375 464 q 437 474 409 465 q 487 498 465 483 q 525 534 509 513 q 550 576 541 554 l 550 579 q 535 737 549 671 q 498 846 522 803 q 441 909 474 888 q 368 929 408 929 q 254 865 294 929 q 214 677 214 800 q 224 580 214 621 q 254 513 234 539 q 305 476 275 488 q 375 464 335 464 z "},"\u0000":{"ha":0,"x_min":0,"x_max":0,"o":""},"\r":{"ha":708,"x_min":0,"x_max":0,"o":""}," ":{"ha":361,"x_min":0,"x_max":0,"o":""},"!":{"ha":463,"x_min":143,"x_max":318,"o":"m 150 991 l 311 991 l 262 279 l 199 279 l 150 991 m 143 85 q 150 130 143 112 q 169 159 157 148 q 196 174 180 170 q 231 179 212 179 q 264 174 248 179 q 292 159 280 170 q 311 130 304 148 q 318 85 318 112 q 311 40 318 58 q 292 11 304 22 q 264 -5 280 0 q 231 -9 248 -9 q 196 -5 212 -9 q 169 11 180 0 q 150 40 157 22 q 143 85 143 58 z "},"\"":{"ha":567,"x_min":79,"x_max":488,"o":"m 340 991 l 488 991 l 446 665 l 382 665 l 340 991 m 79 991 l 227 991 l 184 665 l 121 665 l 79 991 z "},"#":{"ha":777,"x_min":35,"x_max":742,"o":"m 262 364 l 456 364 l 507 636 l 314 636 l 262 364 m 697 364 l 697 282 l 522 282 l 469 0 l 386 0 l 439 282 l 245 282 l 193 0 l 110 0 l 163 282 l 35 282 l 35 364 l 178 364 l 231 636 l 79 636 l 79 718 l 245 718 l 296 991 l 380 991 l 329 718 l 522 718 l 574 991 l 657 991 l 606 718 l 742 718 l 742 636 l 590 636 l 539 364 l 697 364 z "},"$":{"ha":777,"x_min":92,"x_max":679,"o":"m 421 950 q 527 936 484 949 q 599 903 571 924 q 639 854 627 882 q 652 794 652 827 q 622 727 652 749 q 542 704 592 704 q 537 765 542 734 q 518 822 532 796 q 481 865 505 847 q 421 886 458 882 l 421 562 q 532 508 484 535 q 612 449 580 481 q 662 379 645 418 q 679 292 679 341 q 612 129 679 187 q 421 58 545 71 l 421 -110 l 351 -110 l 351 56 q 281 59 317 56 q 213 69 246 62 q 148 87 179 76 q 92 113 117 98 l 92 326 l 150 326 q 164 251 150 288 q 206 186 179 215 q 270 139 233 157 q 351 117 307 120 l 351 460 q 241 517 286 489 q 168 577 196 546 q 128 646 140 609 q 115 728 115 682 q 132 812 115 774 q 179 879 149 850 q 253 924 210 907 q 351 947 297 941 l 351 1055 l 421 1055 l 421 950 m 551 271 q 545 320 551 298 q 522 361 538 342 q 482 397 507 380 q 421 429 457 413 l 421 121 q 517 171 484 132 q 551 271 551 211 m 240 739 q 247 688 240 710 q 269 649 254 666 q 303 618 283 632 q 351 593 324 605 l 351 884 q 303 864 324 878 q 268 832 282 851 q 247 790 254 814 q 240 739 240 766 z "},"%":{"ha":1244,"x_min":62,"x_max":1182,"o":"m 518 699 q 504 572 518 629 q 461 474 490 515 q 390 411 433 433 q 290 389 347 389 q 188 411 231 389 q 117 474 144 433 q 76 572 89 515 q 62 699 62 629 q 76 825 62 768 q 117 922 89 882 q 188 984 144 962 q 292 1006 231 1006 q 391 984 349 1006 q 461 922 433 962 q 504 825 490 882 q 518 699 518 768 m 187 699 q 193 592 187 639 q 210 512 198 545 q 242 463 222 479 q 290 446 262 446 q 338 463 319 446 q 370 512 358 479 q 387 592 382 545 q 392 699 392 639 q 387 804 392 758 q 370 882 382 850 q 339 931 358 914 q 292 947 320 947 q 243 931 263 947 q 211 882 223 914 q 193 804 198 850 q 187 699 187 758 m 1182 296 q 1168 169 1182 226 q 1125 71 1154 112 q 1054 8 1097 31 q 954 -14 1011 -14 q 851 8 895 -14 q 780 71 808 31 q 740 169 753 112 q 726 296 726 226 q 740 422 726 366 q 781 519 753 479 q 852 581 808 559 q 956 603 895 603 q 1055 581 1013 603 q 1125 519 1097 559 q 1168 422 1154 479 q 1182 296 1182 366 m 851 296 q 857 189 851 236 q 874 109 862 142 q 906 60 886 77 q 954 43 926 43 q 1002 60 983 43 q 1034 109 1022 77 q 1050 189 1045 142 q 1055 296 1055 236 q 1050 401 1055 355 q 1034 479 1045 447 q 1003 528 1022 511 q 956 545 984 545 q 907 528 927 545 q 874 479 887 511 q 857 401 862 447 q 851 296 851 355 m 418 0 l 326 0 l 822 991 l 913 991 l 418 0 z "},"&":{"ha":1031,"x_min":50,"x_max":1018,"o":"m 796 0 l 681 122 q 626 69 656 94 q 559 26 595 44 q 478 -3 522 7 q 380 -14 433 -14 q 235 7 297 -14 q 132 67 173 28 q 71 159 91 105 q 50 278 50 212 q 66 381 50 337 q 111 458 82 425 q 181 516 140 491 q 272 562 222 541 q 225 622 245 593 q 192 680 205 651 q 172 738 179 708 q 165 802 165 768 q 180 885 165 848 q 227 949 195 922 q 309 991 259 977 q 428 1006 359 1006 q 541 990 494 1006 q 617 947 588 975 q 660 884 647 920 q 673 808 673 848 q 661 729 673 764 q 620 665 648 694 q 547 610 591 636 q 439 557 503 584 l 692 289 q 707 352 701 320 q 717 415 713 385 q 722 476 721 446 q 724 530 724 505 l 724 585 l 974 585 l 974 526 l 961 526 q 916 524 938 526 q 874 511 893 521 q 839 483 854 501 q 815 432 824 464 q 787 335 803 387 q 747 231 771 283 l 876 93 q 897 76 886 83 q 923 65 908 69 q 957 60 937 61 q 1006 58 977 58 l 1018 58 l 1018 0 l 796 0 m 393 64 q 469 72 434 64 q 533 96 504 81 q 587 131 562 111 q 631 176 611 152 l 323 505 q 266 466 292 488 q 223 417 241 445 q 195 353 205 389 q 186 273 186 318 q 201 183 186 222 q 243 118 216 144 q 309 77 271 91 q 393 64 347 64 m 551 807 q 545 859 551 835 q 523 900 538 882 q 483 927 507 917 q 422 937 458 937 q 328 901 361 937 q 294 806 294 865 q 300 756 294 779 q 317 710 305 733 q 347 663 329 688 q 392 610 366 639 q 463 647 433 627 q 513 690 493 667 q 542 742 532 713 q 551 807 551 770 z "},"'":{"ha":306,"x_min":79,"x_max":227,"o":"m 79 991 l 227 991 l 184 665 l 121 665 l 79 991 z "},"(":{"ha":481,"x_min":79,"x_max":436,"o":"m 224 440 q 230 277 224 357 q 258 124 237 196 q 322 -9 280 52 q 436 -114 365 -71 l 436 -178 q 273 -85 340 -140 q 162 44 205 -31 q 99 217 119 119 q 79 440 79 315 q 99 663 79 566 q 162 835 119 760 q 273 963 205 909 q 436 1055 340 1017 l 436 993 q 322 889 365 949 q 258 756 280 828 q 230 604 237 684 q 224 440 224 523 z "},")":{"ha":481,"x_min":45,"x_max":401,"o":"m 257 440 q 251 604 257 523 q 222 756 244 684 q 158 889 200 828 q 45 993 116 949 l 45 1055 q 208 963 140 1017 q 319 835 276 909 q 381 663 361 760 q 401 440 401 566 q 381 217 401 315 q 319 44 361 119 q 208 -85 276 -31 q 45 -178 140 -140 l 45 -114 q 158 -9 116 -71 q 222 124 200 52 q 251 277 244 196 q 257 440 257 357 z "},"*":{"ha":694,"x_min":57,"x_max":629,"o":"m 57 860 l 106 970 l 319 835 l 283 1055 l 404 1055 l 366 836 l 581 966 l 629 859 l 395 790 l 629 722 l 581 615 l 366 745 l 404 525 l 283 525 l 318 745 l 106 612 l 57 721 l 290 790 l 57 860 z "},"+":{"ha":777,"x_min":90,"x_max":686,"o":"m 429 456 l 429 199 l 346 199 l 346 456 l 90 456 l 90 538 l 346 538 l 346 794 l 429 794 l 429 538 l 686 538 l 686 456 l 429 456 z "},",":{"ha":347,"x_min":41,"x_max":269,"o":"m 269 58 q 257 -27 269 14 q 217 -104 245 -68 q 147 -167 190 -139 q 41 -214 104 -195 l 41 -155 q 142 -102 110 -134 q 174 -31 174 -71 q 166 -8 174 -17 q 147 8 159 1 q 123 22 136 16 q 98 39 110 29 q 79 62 87 48 q 72 97 72 76 q 98 158 72 137 q 163 179 124 179 q 203 171 184 179 q 237 148 222 163 q 261 110 252 133 q 269 58 269 87 z "},"-":{"ha":431,"x_min":35,"x_max":396,"o":"m 35 326 l 35 431 l 396 431 l 396 326 l 35 326 z "},".":{"ha":347,"x_min":86,"x_max":261,"o":"m 86 85 q 93 130 86 112 q 112 159 100 148 q 139 174 123 170 q 174 179 155 179 q 207 174 191 179 q 235 159 223 170 q 254 130 247 148 q 261 85 261 112 q 254 40 261 58 q 235 11 247 22 q 207 -5 223 0 q 174 -9 191 -9 q 139 -5 155 -9 q 112 11 123 0 q 93 40 100 22 q 86 85 86 58 z "},"/":{"ha":400,"x_min":0,"x_max":400,"o":"m 82 -168 l 0 -168 l 319 1055 l 400 1055 l 82 -168 z "},":":{"ha":397,"x_min":113,"x_max":288,"o":"m 113 85 q 119 130 113 112 q 138 159 126 148 q 166 174 150 170 q 200 179 182 179 q 234 174 218 179 q 261 159 250 170 q 280 130 273 148 q 288 85 288 112 q 280 40 288 58 q 261 11 273 22 q 234 -5 250 0 q 200 -9 218 -9 q 166 -5 182 -9 q 138 11 150 0 q 119 40 126 22 q 113 85 113 58 m 113 657 q 119 702 113 684 q 138 731 126 720 q 166 747 150 742 q 200 751 182 751 q 234 747 218 751 q 261 731 250 742 q 280 702 273 720 q 288 657 288 684 q 280 612 288 631 q 261 583 273 594 q 234 567 250 572 q 200 562 218 562 q 166 567 182 562 q 138 583 150 572 q 119 612 126 594 q 113 657 113 631 z "},";":{"ha":397,"x_min":66,"x_max":294,"o":"m 294 58 q 282 -27 294 14 q 242 -104 270 -68 q 172 -167 215 -139 q 66 -214 129 -195 l 66 -155 q 167 -102 135 -134 q 199 -31 199 -71 q 191 -8 199 -17 q 172 8 184 1 q 148 22 161 16 q 123 39 135 29 q 104 62 112 48 q 97 97 97 76 q 123 158 97 137 q 188 179 149 179 q 229 171 210 179 q 262 148 248 163 q 286 110 277 133 q 294 58 294 87 m 113 657 q 119 702 113 684 q 138 731 126 720 q 166 747 150 742 q 200 751 182 751 q 234 747 218 751 q 261 731 250 742 q 280 702 273 720 q 288 657 288 684 q 280 612 288 631 q 261 583 273 594 q 234 567 250 572 q 200 562 218 562 q 166 567 182 562 q 138 583 150 572 q 119 612 126 594 q 113 657 113 631 z "},"<":{"ha":777,"x_min":90,"x_max":686,"o":"m 90 472 l 90 521 l 686 842 l 686 749 l 220 496 l 686 245 l 686 153 l 90 472 z "},"=":{"ha":777,"x_min":90,"x_max":686,"o":"m 686 400 l 686 318 l 90 318 l 90 400 l 686 400 m 686 673 l 686 591 l 90 591 l 90 673 l 686 673 z "},">":{"ha":777,"x_min":90,"x_max":686,"o":"m 90 153 l 90 245 l 557 496 l 90 749 l 90 842 l 686 521 l 686 472 l 90 153 z "},"?":{"ha":694,"x_min":60,"x_max":624,"o":"m 354 279 l 269 279 l 269 490 q 371 547 330 515 q 436 617 412 579 q 472 695 461 654 q 482 778 482 736 q 473 843 482 814 q 446 893 465 873 q 399 926 428 914 q 330 937 370 937 q 257 923 287 937 q 210 884 228 909 q 183 828 191 860 q 175 760 175 795 q 129 765 150 760 q 93 782 108 771 q 68 810 77 793 q 60 850 60 827 q 75 911 60 883 q 122 961 90 940 q 203 994 155 982 q 319 1006 252 1006 q 441 989 385 1006 q 537 940 496 972 q 601 861 578 907 q 624 754 624 814 q 606 650 624 697 q 553 565 588 604 q 469 494 519 526 q 354 436 418 463 l 354 279 m 222 85 q 229 130 222 112 q 248 159 236 148 q 276 174 260 170 q 310 179 292 179 q 343 174 328 179 q 371 159 359 170 q 390 130 383 148 q 397 85 397 112 q 390 40 397 58 q 371 11 383 22 q 343 -5 359 0 q 310 -9 328 -9 q 276 -5 292 -9 q 248 11 260 0 q 229 40 236 22 q 222 85 222 58 z "},"@":{"ha":1279,"x_min":90,"x_max":1206,"o":"m 1206 545 q 1181 363 1206 444 q 1118 225 1157 282 q 1030 138 1078 168 q 933 107 981 107 q 830 140 871 107 q 770 233 789 174 l 762 233 q 730 183 748 206 q 689 143 712 160 q 638 117 667 126 q 575 107 610 107 q 495 121 533 107 q 428 165 456 136 q 381 239 399 194 q 364 345 364 283 q 373 425 364 382 q 399 512 381 469 q 445 595 417 555 q 513 666 473 635 q 603 716 552 697 q 718 734 654 734 q 795 722 763 734 q 848 693 827 710 l 904 722 l 937 722 l 867 368 q 862 336 865 352 q 859 306 860 322 q 857 275 857 290 q 864 233 857 251 q 883 203 871 215 q 910 186 895 191 q 942 180 925 180 q 1004 205 972 180 q 1062 276 1036 229 q 1104 392 1088 323 q 1121 549 1121 460 q 1092 709 1121 640 q 1011 826 1063 779 q 887 897 959 873 q 728 921 814 921 q 594 902 660 921 q 471 846 529 883 q 362 756 412 809 q 277 634 313 703 q 220 484 241 566 q 200 306 200 401 q 233 108 200 190 q 323 -25 267 26 q 455 -101 380 -77 q 614 -125 530 -125 q 722 -115 671 -125 q 817 -89 772 -105 q 899 -52 861 -73 q 966 -9 937 -31 l 999 -60 q 922 -110 964 -85 q 829 -154 879 -135 q 722 -185 779 -174 q 600 -197 665 -197 q 395 -166 488 -197 q 234 -73 301 -136 q 128 83 166 -11 q 90 302 90 176 q 112 490 90 401 q 173 656 133 579 q 271 794 214 732 q 400 900 328 857 q 556 968 472 944 q 736 991 641 991 q 941 957 852 991 q 1088 862 1029 922 q 1176 721 1147 802 q 1206 545 1206 639 m 493 325 q 523 216 493 252 q 599 180 552 180 q 660 196 634 180 q 703 235 686 211 q 732 291 721 260 q 749 354 743 322 l 802 636 q 771 667 793 656 q 724 677 749 677 q 649 660 682 677 q 590 612 615 642 q 546 546 564 583 q 516 469 528 508 q 498 392 504 429 q 493 325 493 355 z "},"A":{"ha":979,"x_min":0,"x_max":979,"o":"m 281 332 l 228 186 q 218 154 222 170 q 215 126 215 138 q 238 75 215 91 q 307 58 260 58 l 339 58 l 339 0 l 0 0 l 0 58 l 26 58 q 61 63 47 58 q 87 79 75 67 q 109 113 98 92 q 132 167 119 134 l 440 991 l 549 991 l 863 132 q 879 96 871 111 q 899 74 888 82 q 926 62 911 65 q 961 58 941 58 l 979 58 l 979 0 l 597 0 l 597 58 l 629 58 q 713 125 713 58 q 710 149 713 136 q 701 176 707 161 l 646 332 l 281 332 m 534 644 q 495 760 513 706 q 465 864 477 814 q 454 815 460 839 q 440 768 448 792 q 423 716 433 743 q 401 657 414 690 l 307 401 l 621 401 l 534 644 z "},"B":{"ha":908,"x_min":53,"x_max":823,"o":"m 782 743 q 769 661 782 696 q 732 600 755 626 q 678 555 709 573 q 610 525 646 537 l 610 519 q 696 492 657 511 q 764 440 736 472 q 808 366 792 409 q 823 268 823 323 q 735 67 823 134 q 467 0 647 0 l 53 0 l 53 58 l 71 58 q 115 62 94 58 q 151 76 136 65 q 176 106 167 86 q 184 158 184 125 l 184 839 q 175 888 184 869 q 151 917 166 907 q 114 930 135 927 q 71 933 94 933 l 53 933 l 53 991 l 425 991 q 694 931 606 991 q 782 743 782 871 m 325 69 l 460 69 q 559 80 519 69 q 626 115 600 91 q 663 178 652 139 q 675 272 675 216 q 665 366 675 326 q 630 433 654 406 q 564 472 605 459 q 463 485 524 485 l 325 485 l 325 69 m 325 554 l 421 554 q 523 565 482 554 q 588 598 564 576 q 623 657 612 621 q 633 743 633 693 q 622 828 633 794 q 585 884 610 863 q 518 913 559 905 q 418 922 477 922 l 325 922 l 325 554 z "},"C":{"ha":852,"x_min":79,"x_max":806,"o":"m 525 1006 q 649 994 596 1006 q 736 961 701 982 q 788 911 771 940 q 806 850 806 883 q 797 809 806 827 q 771 779 787 791 q 733 760 755 766 q 685 753 711 753 q 676 817 685 785 q 649 874 668 849 q 598 916 629 900 q 522 932 568 932 q 389 903 444 932 q 299 819 334 874 q 249 683 264 764 q 233 497 233 602 q 250 327 233 404 q 301 194 266 250 q 391 109 336 139 q 522 78 446 78 q 612 88 573 78 q 681 114 651 98 q 733 152 711 130 q 774 196 756 173 q 793 176 785 189 q 800 142 800 163 q 782 88 800 115 q 728 38 764 60 q 635 1 691 16 q 501 -14 578 -14 q 319 23 397 -14 q 187 127 240 60 q 106 288 134 194 q 79 497 79 382 q 108 703 79 610 q 192 864 136 797 q 332 968 248 931 q 525 1006 415 1006 z "},"D":{"ha":1010,"x_min":53,"x_max":930,"o":"m 930 497 q 902 291 930 383 q 817 135 873 199 q 676 35 761 70 q 478 0 591 0 l 53 0 l 53 58 l 71 58 q 115 62 94 58 q 151 76 136 65 q 176 106 167 86 q 184 158 184 125 l 184 839 q 175 888 184 869 q 151 917 166 907 q 114 930 135 927 q 71 933 94 933 l 53 933 l 53 991 l 478 991 q 669 959 585 991 q 811 863 753 926 q 900 707 869 800 q 930 497 930 615 m 446 71 q 590 99 528 71 q 694 181 652 127 q 756 315 735 235 q 777 497 777 394 q 694 813 777 704 q 447 922 612 922 l 325 922 l 325 71 l 446 71 z "},"E":{"ha":865,"x_min":53,"x_max":807,"o":"m 325 69 l 593 69 q 649 78 626 69 q 688 103 673 87 q 713 139 704 119 q 725 183 722 160 l 734 243 l 807 243 l 798 0 l 53 0 l 53 58 l 71 58 q 114 61 94 58 q 151 74 135 64 q 175 102 166 83 q 184 151 184 121 l 184 833 q 176 886 184 866 q 151 916 167 905 q 115 930 136 926 q 71 933 94 933 l 53 933 l 53 991 l 753 991 l 760 749 l 688 749 l 681 808 q 670 852 678 831 q 648 888 663 873 q 611 913 633 904 q 558 922 589 922 l 325 922 l 325 553 l 660 553 l 660 485 l 325 485 l 325 69 z "},"F":{"ha":819,"x_min":53,"x_max":760,"o":"m 325 922 l 325 521 l 660 521 l 660 453 l 325 453 l 325 158 q 334 106 325 125 q 358 76 343 86 q 395 62 374 65 q 439 58 416 58 l 485 58 l 485 0 l 53 0 l 53 58 l 71 58 q 114 61 94 58 q 151 74 135 64 q 175 102 166 83 q 184 151 184 121 l 184 839 q 175 888 184 869 q 151 917 166 907 q 114 930 135 927 q 71 933 94 933 l 53 933 l 53 991 l 753 991 l 760 749 l 688 749 l 681 808 q 670 853 678 832 q 647 889 662 873 q 608 913 631 904 q 553 922 585 922 l 325 922 z "},"G":{"ha":991,"x_min":79,"x_max":965,"o":"m 557 -14 q 346 23 436 -14 q 197 127 256 60 q 109 288 138 194 q 79 497 79 382 q 110 703 79 610 q 202 864 141 797 q 355 968 264 931 q 566 1006 446 1006 q 700 994 643 1006 q 796 961 758 982 q 853 911 834 940 q 872 850 872 883 q 862 809 872 827 q 834 779 852 791 q 794 760 817 766 q 743 753 770 753 q 734 817 743 785 q 703 874 724 849 q 646 916 681 900 q 559 932 610 932 q 409 903 471 932 q 308 819 347 874 q 251 683 269 764 q 233 497 233 602 q 252 313 233 393 q 311 177 270 232 q 418 94 353 122 q 579 65 484 65 q 657 69 619 65 q 724 82 694 73 l 724 306 q 714 355 724 336 q 690 384 705 374 q 653 397 674 393 q 610 400 633 400 l 604 400 l 604 458 l 965 458 l 965 400 l 960 400 q 922 397 940 400 q 892 383 905 393 q 871 352 879 372 q 864 300 864 332 l 864 50 q 720 2 794 18 q 557 -14 646 -14 z "},"H":{"ha":1101,"x_min":53,"x_max":1048,"o":"m 644 0 l 644 58 l 663 58 q 707 62 686 58 q 743 76 728 65 q 767 106 758 86 q 777 158 777 125 l 777 484 l 325 484 l 325 158 q 334 106 325 125 q 358 76 343 86 q 395 62 374 65 q 439 58 416 58 l 457 58 l 457 0 l 53 0 l 53 58 l 71 58 q 115 62 94 58 q 151 76 136 65 q 176 106 167 86 q 184 158 184 125 l 184 839 q 175 888 184 869 q 151 917 166 907 q 114 930 135 927 q 71 933 94 933 l 53 933 l 53 991 l 457 991 l 457 933 l 439 933 q 395 930 416 933 q 358 916 374 926 q 334 886 343 905 q 325 833 325 866 l 325 553 l 777 553 l 777 833 q 767 886 777 866 q 743 916 758 905 q 707 930 728 926 q 663 933 686 933 l 644 933 l 644 991 l 1048 991 l 1048 933 l 1031 933 q 986 930 1007 933 q 950 916 966 926 q 926 886 935 905 q 917 833 917 866 l 917 151 q 926 102 917 121 q 951 74 935 83 q 987 61 966 64 q 1031 58 1008 58 l 1048 58 l 1048 0 l 644 0 z "},"I":{"ha":510,"x_min":53,"x_max":457,"o":"m 53 0 l 53 58 l 71 58 q 115 62 94 58 q 151 76 136 65 q 176 106 167 86 q 184 158 184 125 l 184 833 q 176 886 184 866 q 151 916 167 905 q 115 930 136 926 q 71 933 94 933 l 53 933 l 53 991 l 457 991 l 457 933 l 439 933 q 395 930 416 933 q 358 916 374 926 q 334 886 343 905 q 325 833 325 866 l 325 158 q 334 106 325 125 q 358 76 343 86 q 395 62 374 65 q 439 58 416 58 l 457 58 l 457 0 l 53 0 z "},"J":{"ha":496,"x_min":-16,"x_max":457,"o":"m -16 -268 l -3 -268 q 77 -255 42 -268 q 136 -213 112 -243 q 172 -135 159 -184 q 184 -12 184 -85 l 184 839 q 175 888 184 869 q 151 917 166 907 q 114 930 135 927 q 71 933 94 933 l 53 933 l 53 991 l 457 991 l 457 933 l 439 933 q 395 930 416 933 q 358 916 374 926 q 334 886 343 905 q 325 833 325 866 l 325 -11 q 300 -166 325 -104 q 233 -266 276 -229 q 133 -318 191 -302 q 8 -334 75 -334 l -16 -334 l -16 -268 z "},"K":{"ha":972,"x_min":53,"x_max":989,"o":"m 612 771 q 650 817 635 797 q 673 853 665 837 q 685 882 682 869 q 689 904 689 894 q 672 928 689 922 q 621 935 655 935 l 621 991 l 928 991 l 928 935 q 882 925 904 935 q 838 900 860 916 q 792 859 816 883 q 742 804 769 835 l 541 578 l 833 170 q 910 86 873 115 q 986 58 947 58 l 989 58 l 989 0 l 974 0 q 859 5 904 0 q 784 25 814 11 q 731 63 753 39 q 682 125 708 87 l 443 468 l 325 372 l 325 158 q 334 106 325 125 q 358 76 343 86 q 395 62 374 65 q 439 58 416 58 l 457 58 l 457 0 l 53 0 l 53 58 l 71 58 q 114 61 94 58 q 151 74 135 64 q 175 102 166 83 q 184 151 184 121 l 184 839 q 175 888 184 869 q 151 917 166 907 q 114 930 135 927 q 71 933 94 933 l 53 933 l 53 991 l 457 991 l 457 933 l 439 933 q 395 930 416 933 q 358 916 374 926 q 334 886 343 905 q 325 833 325 866 l 325 441 l 612 771 z "},"L":{"ha":865,"x_min":53,"x_max":807,"o":"m 53 0 l 53 58 l 71 58 q 115 62 94 58 q 151 76 136 65 q 176 106 167 86 q 184 158 184 125 l 184 833 q 176 886 184 866 q 151 916 167 905 q 115 930 136 926 q 71 933 94 933 l 53 933 l 53 991 l 457 991 l 457 933 l 439 933 q 395 930 416 933 q 359 917 374 927 q 334 888 343 907 q 325 839 325 869 l 325 69 l 599 69 q 652 80 630 69 q 688 110 674 92 q 710 150 703 127 q 721 195 718 172 l 734 298 l 807 298 l 798 0 l 53 0 z "},"M":{"ha":1303,"x_min":53,"x_max":1250,"o":"m 880 0 l 880 58 l 885 58 q 925 61 907 58 q 956 74 943 64 q 976 100 968 83 q 985 146 983 117 l 985 888 l 667 0 l 591 0 l 269 885 l 269 158 q 276 106 269 125 q 296 76 283 86 q 328 62 309 65 q 370 58 347 58 l 374 58 l 374 0 l 53 0 l 53 58 l 71 58 q 114 61 94 58 q 151 74 135 64 q 175 102 166 83 q 184 151 184 121 l 184 839 q 175 888 184 869 q 151 917 166 907 q 114 930 135 927 q 71 933 94 933 l 53 933 l 53 991 l 370 991 l 657 197 l 942 991 l 1250 991 l 1250 933 l 1232 933 q 1188 930 1208 933 q 1152 916 1167 926 q 1127 886 1136 905 q 1118 833 1118 866 l 1118 158 q 1127 106 1118 125 q 1152 76 1136 86 q 1188 62 1167 65 q 1232 58 1208 58 l 1250 58 l 1250 0 l 880 0 z "},"N":{"ha":1060,"x_min":53,"x_max":1021,"o":"m 790 0 l 269 800 l 269 158 q 278 106 269 125 q 303 76 288 86 q 339 62 318 65 q 383 58 360 58 l 401 58 l 401 0 l 53 0 l 53 58 l 71 58 q 115 62 94 58 q 151 76 136 65 q 176 106 167 86 q 184 158 184 125 l 184 839 q 175 888 184 869 q 151 917 166 907 q 114 930 135 927 q 71 933 94 933 l 53 933 l 53 991 l 307 991 l 804 224 l 804 839 q 795 888 804 869 q 770 917 786 907 q 734 930 755 927 q 690 933 713 933 l 672 933 l 672 991 l 1021 991 l 1021 933 l 1003 933 q 959 930 979 933 q 922 916 938 926 q 898 886 907 905 q 889 833 889 866 l 889 0 l 790 0 z "},"O":{"ha":1031,"x_min":78,"x_max":951,"o":"m 951 497 q 923 288 951 382 q 839 127 895 194 q 702 23 783 60 q 515 -14 621 -14 q 323 23 405 -14 q 186 127 241 60 q 105 289 132 194 q 78 498 78 383 q 105 708 78 614 q 186 868 132 802 q 323 971 241 935 q 517 1007 406 1007 q 703 971 622 1007 q 839 868 783 935 q 923 707 895 801 q 951 497 951 613 m 232 497 q 247 313 232 394 q 296 176 262 232 q 384 91 330 120 q 515 61 438 61 q 647 91 593 61 q 734 176 701 120 q 783 313 768 232 q 798 497 798 394 q 783 681 798 600 q 734 818 768 762 q 647 903 701 873 q 517 932 594 932 q 385 903 439 932 q 297 818 331 873 q 247 681 262 762 q 232 497 232 600 z "},"P":{"ha":839,"x_min":53,"x_max":785,"o":"m 53 0 l 53 58 l 71 58 q 115 62 94 58 q 151 76 136 65 q 176 106 167 86 q 184 158 184 125 l 184 839 q 175 888 184 869 q 151 917 166 907 q 114 930 135 927 q 71 933 94 933 l 53 933 l 53 991 l 443 991 q 595 971 530 991 q 701 914 659 951 q 764 823 743 876 q 785 701 785 769 q 765 583 785 640 q 702 482 746 526 q 587 412 658 438 q 412 386 515 386 l 325 386 l 325 151 q 334 102 325 121 q 359 74 343 83 q 395 61 374 64 q 439 58 416 58 l 485 58 l 485 0 l 53 0 m 325 452 l 399 452 q 507 465 462 452 q 580 508 551 478 q 622 584 608 537 q 635 696 635 630 q 623 797 635 754 q 586 869 612 840 q 519 911 560 897 q 419 925 478 925 l 325 925 l 325 452 z "},"Q":{"ha":1031,"x_min":78,"x_max":951,"o":"m 951 497 q 929 310 951 395 q 863 159 907 224 q 755 52 819 94 q 608 -5 691 9 q 631 -124 614 -77 q 675 -201 648 -172 q 736 -242 701 -230 q 814 -254 772 -254 l 836 -254 l 836 -319 l 777 -319 q 667 -305 722 -319 q 568 -255 612 -290 q 493 -160 523 -219 q 456 -11 463 -100 q 289 40 360 -1 q 172 146 218 80 q 101 301 125 212 q 78 498 78 391 q 105 708 78 614 q 186 868 132 802 q 323 971 241 935 q 517 1007 406 1007 q 703 971 622 1007 q 839 868 783 935 q 923 707 895 801 q 951 497 951 613 m 232 497 q 247 313 232 394 q 296 176 262 232 q 384 91 330 120 q 515 61 438 61 q 647 91 593 61 q 734 176 701 120 q 783 313 768 232 q 798 497 798 394 q 783 681 798 600 q 734 818 768 762 q 647 903 701 873 q 517 932 594 932 q 385 903 439 932 q 297 818 331 873 q 247 681 262 762 q 232 497 232 600 z "},"R":{"ha":911,"x_min":53,"x_max":920,"o":"m 770 170 q 838 86 805 114 q 916 58 871 58 l 920 58 l 920 0 l 900 0 q 793 5 835 0 q 722 23 751 9 q 672 61 693 37 q 628 125 652 85 l 440 437 l 325 437 l 325 151 q 334 102 325 121 q 359 74 343 83 q 395 61 374 64 q 439 58 416 58 l 457 58 l 457 0 l 53 0 l 53 58 l 71 58 q 114 61 94 58 q 151 74 135 64 q 175 102 166 83 q 184 151 184 121 l 184 839 q 175 888 184 869 q 151 917 166 907 q 114 930 135 927 q 71 933 94 933 l 53 933 l 53 991 l 427 991 q 695 925 607 991 q 783 724 783 858 q 765 626 783 668 q 718 554 747 585 q 652 503 689 524 q 579 471 616 483 l 770 170 m 325 503 l 422 503 q 524 516 484 503 q 589 557 565 530 q 624 625 614 584 q 635 720 635 665 q 623 814 635 775 q 586 878 612 853 q 519 914 560 903 q 419 925 478 925 l 325 925 l 325 503 z "},"S":{"ha":755,"x_min":66,"x_max":685,"o":"m 343 -14 q 223 1 275 -14 q 137 40 172 15 q 84 102 102 66 q 66 182 66 138 q 93 250 66 224 q 167 275 119 275 q 180 192 169 232 q 214 121 191 152 q 271 73 236 91 q 354 54 305 54 q 500 99 448 54 q 553 229 553 144 q 542 296 553 267 q 506 350 531 326 q 440 398 481 375 q 338 446 399 420 q 225 502 273 472 q 145 569 177 532 q 98 652 113 606 q 82 754 82 697 q 105 861 82 814 q 168 940 127 907 q 264 989 209 972 q 386 1006 320 1006 q 496 993 448 1006 q 578 958 545 980 q 628 908 611 937 q 646 850 646 880 q 616 782 646 805 q 536 760 587 760 q 529 824 536 792 q 503 880 521 855 q 454 920 484 905 q 380 936 425 936 q 309 925 340 936 q 256 893 277 913 q 222 843 234 872 q 211 778 211 814 q 222 705 211 736 q 258 648 233 673 q 325 600 283 623 q 427 553 366 577 q 535 500 488 528 q 616 438 583 472 q 667 361 650 404 q 685 265 685 319 q 661 148 685 199 q 592 60 637 96 q 484 5 547 24 q 343 -14 421 -14 z "},"T":{"ha":851,"x_min":28,"x_max":823,"o":"m 494 158 q 504 106 494 125 q 528 76 513 86 q 564 62 543 65 q 608 58 585 58 l 640 58 l 640 0 l 208 0 l 208 58 l 240 58 q 284 61 263 58 q 320 74 304 64 q 345 102 336 83 q 354 151 354 121 l 354 922 l 221 922 q 170 913 191 922 q 136 888 149 904 q 116 852 123 873 q 107 808 110 831 l 100 749 l 28 749 l 35 991 l 817 991 l 823 749 l 751 749 l 745 808 q 735 852 742 831 q 715 888 728 873 q 682 913 703 904 q 629 922 661 922 l 494 922 l 494 158 z "},"U":{"ha":996,"x_min":21,"x_max":975,"o":"m 503 -14 q 355 4 420 -14 q 245 59 290 21 q 176 156 200 96 q 153 300 153 215 l 153 839 q 143 888 153 869 q 119 917 134 907 q 82 930 103 927 q 39 933 62 933 l 21 933 l 21 991 l 425 991 l 425 933 l 407 933 q 363 930 384 933 q 327 916 342 926 q 302 886 311 905 q 293 833 293 866 l 293 292 q 310 189 293 231 q 358 120 328 146 q 432 81 389 94 q 525 69 474 69 q 629 85 585 69 q 702 131 673 102 q 744 199 730 159 q 758 286 758 239 l 758 839 q 749 888 758 869 q 724 917 740 907 q 688 930 709 927 q 644 933 667 933 l 627 933 l 627 991 l 975 991 l 975 933 l 957 933 q 913 930 934 933 q 877 916 892 926 q 852 886 861 905 q 843 833 843 866 l 843 283 q 821 159 843 214 q 756 65 799 104 q 649 7 713 27 q 503 -14 585 -14 z "},"V":{"ha":937,"x_min":0,"x_max":937,"o":"m 416 0 l 117 860 q 100 896 109 882 q 80 918 92 910 q 54 930 68 926 q 18 933 39 933 l 0 933 l 0 991 l 382 991 l 382 933 l 350 933 q 287 917 308 933 q 267 867 267 901 q 270 843 267 855 q 278 815 273 831 l 431 364 q 467 244 452 302 q 493 136 481 186 q 519 243 504 186 q 557 364 534 299 l 710 806 q 719 838 715 823 q 722 865 722 854 q 700 917 722 901 q 631 933 677 933 l 599 933 l 599 991 l 937 991 l 937 933 l 911 933 q 876 929 890 933 q 849 913 861 925 q 827 880 838 901 q 806 825 817 859 l 518 0 l 416 0 z "},"W":{"ha":1454,"x_min":12,"x_max":1442,"o":"m 800 982 l 974 380 q 1009 248 994 311 q 1034 136 1024 184 q 1057 242 1044 186 q 1089 364 1070 297 l 1211 793 q 1216 811 1213 801 q 1221 831 1219 821 q 1224 850 1223 842 q 1226 865 1226 859 q 1203 917 1226 901 q 1135 933 1181 933 l 1103 933 l 1103 991 l 1442 991 l 1442 933 l 1415 933 q 1380 929 1395 933 q 1352 913 1364 925 q 1330 881 1340 902 q 1310 825 1320 860 l 1075 0 l 950 0 l 724 778 l 511 0 l 383 0 l 129 860 q 114 896 122 882 q 94 918 105 910 q 66 930 82 926 q 31 933 51 933 l 12 933 l 12 991 l 395 991 l 395 933 l 363 933 q 300 917 321 933 q 279 867 279 901 q 283 843 279 855 q 290 815 286 831 l 418 371 q 451 247 435 308 q 478 136 467 186 q 502 255 488 191 q 534 386 516 319 l 700 982 l 800 982 z "},"X":{"ha":917,"x_min":11,"x_max":905,"o":"m 647 893 q 641 913 647 905 q 626 925 635 921 q 602 931 616 930 q 572 933 589 933 l 568 933 l 568 991 l 872 991 l 872 933 l 860 933 q 823 928 840 933 q 791 912 806 924 q 759 881 775 900 q 722 833 742 862 l 521 543 l 777 132 q 834 75 807 92 q 888 58 861 58 l 905 58 l 905 0 l 530 0 l 530 58 l 538 58 q 621 104 621 58 q 619 119 621 112 q 612 137 617 127 q 598 162 608 147 q 575 200 589 177 l 437 421 l 283 193 q 271 173 277 184 q 260 150 265 162 q 251 125 254 138 q 248 102 248 113 q 270 68 248 78 q 338 58 292 58 l 342 58 l 342 0 l 11 0 l 11 58 l 20 58 q 63 63 45 58 q 98 80 82 68 q 130 110 114 92 q 164 155 145 128 l 396 488 l 167 860 q 110 917 142 900 q 47 933 79 933 l 29 933 l 29 991 l 406 991 l 406 933 l 401 933 q 362 930 378 933 q 338 922 347 927 q 326 909 329 916 q 322 893 322 901 q 323 879 322 886 q 328 863 324 872 q 337 842 331 854 q 355 811 344 829 l 481 608 l 612 808 q 637 853 628 832 q 647 893 647 874 z "},"Y":{"ha":868,"x_min":-7,"x_max":872,"o":"m 221 0 l 221 58 l 253 58 q 297 61 276 58 q 333 74 317 64 q 358 102 349 83 q 367 151 367 121 l 367 414 l 110 860 q 88 893 98 880 q 67 916 78 907 q 42 929 56 925 q 11 933 28 933 l -7 933 l -7 991 l 375 991 l 375 933 l 323 933 q 293 930 304 933 q 274 920 281 926 q 265 906 267 914 q 262 889 262 898 q 271 850 262 869 q 288 815 279 830 l 390 629 q 431 545 414 587 q 460 471 448 503 q 475 504 466 486 q 495 543 484 522 q 519 586 507 564 q 543 629 531 608 l 632 789 q 651 834 646 812 q 657 872 657 855 q 635 918 657 903 q 574 933 614 933 l 533 933 l 533 991 l 872 991 l 872 933 l 856 933 q 828 928 841 933 q 801 910 814 923 q 773 877 787 898 q 741 825 758 857 l 507 414 l 507 158 q 516 106 507 125 q 541 76 525 86 q 577 62 556 65 q 621 58 597 58 l 653 58 l 653 0 l 221 0 z "},"Z":{"ha":822,"x_min":50,"x_max":764,"o":"m 742 935 l 220 69 l 570 69 q 622 78 601 69 q 656 103 643 87 q 675 139 669 119 q 685 183 682 160 l 692 243 l 764 243 l 757 0 l 50 0 l 50 56 l 571 922 l 269 922 q 218 913 239 922 q 184 888 197 904 q 165 852 172 873 q 155 808 158 831 l 149 749 l 77 749 l 83 991 l 742 991 l 742 935 z "},"[":{"ha":500,"x_min":139,"x_max":449,"o":"m 139 -178 l 139 1055 l 449 1055 l 449 997 l 389 997 q 345 994 366 997 q 309 980 324 990 q 284 949 293 969 q 275 897 275 930 l 275 -20 q 284 -72 275 -52 q 309 -102 293 -92 q 345 -116 324 -113 q 389 -119 366 -119 l 449 -119 l 449 -178 l 139 -178 z "},"\\":{"ha":400,"x_min":0,"x_max":400,"o":"m 0 1055 l 81 1055 l 400 -168 l 318 -168 l 0 1055 z "},"]":{"ha":500,"x_min":52,"x_max":361,"o":"m 52 -178 l 52 -119 l 111 -119 q 156 -116 135 -119 q 192 -102 176 -113 q 216 -72 207 -92 q 225 -20 225 -52 l 225 897 q 216 949 225 930 q 192 980 207 969 q 156 994 176 990 q 111 997 135 997 l 52 997 l 52 1055 l 361 1055 l 361 -178 l 52 -178 z "},"^":{"ha":777,"x_min":71,"x_max":704,"o":"m 363 991 l 411 991 l 704 370 l 611 370 l 386 864 l 164 370 l 71 370 l 363 991 z "},"_":{"ha":637,"x_min":-7,"x_max":644,"o":"m 644 -197 l -7 -197 l -7 -115 l 644 -115 l 644 -197 z "},"`":{"ha":802,"x_min":267,"x_max":536,"o":"m 536 842 l 484 842 q 423 889 456 861 q 360 947 391 917 q 304 1004 330 977 q 267 1050 279 1031 l 267 1064 l 415 1064 q 440 1014 426 1041 q 471 959 455 986 q 505 905 488 931 q 536 860 522 880 l 536 842 z "},"a":{"ha":782,"x_min":69,"x_max":722,"o":"m 204 201 q 232 104 204 136 q 317 72 259 72 q 393 85 359 72 q 451 124 427 99 q 488 185 475 149 q 501 265 501 221 l 501 378 l 412 374 q 314 359 353 371 q 250 326 274 347 q 215 273 225 304 q 204 201 204 242 m 372 689 q 308 678 332 689 q 269 646 283 667 q 250 598 255 626 q 245 538 245 570 q 158 557 188 538 q 127 625 127 577 q 147 686 127 661 q 201 727 167 711 q 281 751 235 743 q 378 758 326 758 q 489 746 441 758 q 568 705 536 733 q 616 630 600 676 q 632 518 632 585 l 632 158 q 637 110 632 129 q 652 79 642 91 q 679 63 662 68 q 718 58 695 58 l 722 58 l 722 0 l 534 0 l 513 119 l 501 119 q 459 66 479 90 q 414 24 439 41 q 359 -4 390 6 q 285 -14 328 -14 q 199 0 239 -14 q 131 40 159 13 q 85 110 102 68 q 69 208 69 151 q 148 372 69 319 q 386 431 227 426 l 501 435 l 501 518 q 497 587 501 555 q 479 641 493 618 q 440 676 466 664 q 372 689 415 689 z "},"b":{"ha":852,"x_min":25,"x_max":777,"o":"m 777 374 q 758 200 777 273 q 703 79 739 127 q 614 9 667 32 q 493 -14 562 -14 q 420 -5 453 -14 q 362 20 388 4 q 316 59 336 37 q 281 109 296 81 l 272 109 l 248 0 l 25 0 l 25 58 l 36 58 q 80 62 60 58 q 116 76 101 65 q 141 106 132 86 q 150 158 150 125 l 150 903 q 141 952 150 933 q 116 981 132 970 q 80 994 100 991 q 36 997 59 997 l 25 997 l 25 1055 l 281 1055 l 281 800 q 280 746 281 777 q 278 686 279 715 q 275 619 277 654 l 281 619 q 316 677 296 651 q 361 721 336 703 q 420 748 387 739 q 493 758 452 758 q 614 735 562 758 q 703 666 667 713 q 758 546 739 618 q 777 374 777 473 m 469 669 q 379 651 415 669 q 321 597 342 633 q 290 505 299 560 q 281 374 281 449 q 290 245 281 301 q 321 152 299 190 q 379 95 343 114 q 471 75 416 75 q 549 95 517 75 q 602 152 581 114 q 632 246 623 190 q 642 375 642 302 q 632 504 642 449 q 602 596 623 559 q 548 651 581 633 q 469 669 515 669 z "},"c":{"ha":684,"x_min":77,"x_max":629,"o":"m 393 -14 q 266 8 324 -14 q 165 75 208 29 q 100 194 123 121 q 77 368 77 266 q 100 554 77 479 q 165 675 123 629 q 263 739 207 720 q 386 758 320 758 q 472 750 429 758 q 550 724 515 741 q 606 679 585 706 q 628 616 628 652 q 597 549 628 568 q 504 529 566 529 q 498 591 504 562 q 480 642 493 620 q 444 676 467 664 q 386 689 421 689 q 314 674 346 689 q 258 623 281 659 q 223 524 235 586 q 211 370 211 463 q 260 149 211 222 q 421 77 309 77 q 534 104 486 77 q 606 174 582 131 q 623 152 616 165 q 629 119 629 138 q 614 72 629 96 q 570 29 600 48 q 496 -2 541 10 q 393 -14 452 -14 z "},"d":{"ha":852,"x_min":77,"x_max":828,"o":"m 703 153 q 712 103 703 122 q 736 75 721 85 q 773 61 752 64 q 817 58 793 58 l 828 58 l 828 0 l 593 0 l 578 125 l 572 125 q 537 67 557 93 q 491 24 517 42 q 433 -4 465 6 q 359 -14 400 -14 q 238 9 291 -14 q 149 79 185 32 q 95 199 113 126 q 77 371 77 271 q 95 545 77 471 q 149 665 113 618 q 238 735 185 713 q 359 758 291 758 q 432 749 399 758 q 491 724 465 741 q 537 686 517 708 q 572 636 557 663 l 581 636 q 576 700 578 670 q 574 751 575 726 q 572 789 572 777 l 572 903 q 563 952 572 933 q 538 981 554 970 q 502 994 523 991 q 458 997 481 997 l 447 997 l 447 1055 l 703 1055 l 703 153 m 383 75 q 474 93 437 75 q 532 148 510 111 q 563 240 554 184 q 572 371 572 296 q 563 499 572 444 q 532 592 554 555 q 473 650 510 630 q 382 669 437 669 q 304 650 336 669 q 251 592 271 630 q 220 498 230 554 q 211 370 211 442 q 251 149 211 222 q 383 75 291 75 z "},"e":{"ha":743,"x_min":77,"x_max":673,"o":"m 382 684 q 263 621 304 684 q 214 437 221 558 l 533 437 q 525 538 533 492 q 499 616 517 583 q 453 666 481 648 q 382 684 424 684 m 399 -14 q 263 12 323 -14 q 162 86 203 37 q 99 206 121 135 q 77 367 77 277 q 157 660 77 562 q 385 758 237 758 q 505 737 452 758 q 596 674 559 716 q 653 571 633 633 q 673 427 673 509 l 673 363 l 211 363 q 226 232 212 287 q 266 142 240 178 q 330 91 292 107 q 418 74 368 74 q 485 82 454 74 q 541 104 515 90 q 585 135 566 117 q 616 171 604 152 q 634 154 626 167 q 643 123 643 141 q 628 78 643 102 q 583 34 613 54 q 506 0 552 14 q 399 -14 460 -14 z "},"f":{"ha":513,"x_min":37,"x_max":610,"o":"m 467 58 l 467 0 l 37 0 l 37 58 l 56 58 q 100 62 79 58 q 136 76 121 65 q 160 106 151 86 q 170 158 170 125 l 170 679 l 43 679 l 43 745 l 170 745 l 170 814 q 186 924 170 876 q 235 1004 203 971 q 313 1053 267 1036 q 415 1069 358 1069 q 507 1062 469 1069 q 567 1042 544 1055 q 600 1012 589 1029 q 610 972 610 994 q 601 939 610 954 q 577 915 593 924 q 542 900 562 905 q 496 895 521 895 q 491 936 496 916 q 476 971 487 956 q 448 996 466 987 q 404 1006 431 1006 q 354 994 374 1006 q 322 960 334 983 q 305 904 310 937 q 300 827 300 871 l 300 745 l 496 745 l 496 679 l 300 679 l 300 158 q 309 106 300 125 q 333 76 318 86 q 370 62 349 65 q 414 58 391 58 l 467 58 z "},"g":{"ha":747,"x_min":32,"x_max":730,"o":"m 730 715 q 726 687 730 701 q 713 664 722 674 q 690 649 704 654 q 657 643 676 643 q 655 659 657 651 q 648 674 653 667 q 634 686 643 682 q 611 690 625 690 q 579 686 593 690 q 551 673 565 682 q 590 605 575 644 q 606 505 606 565 q 590 410 606 454 q 544 334 574 366 q 466 284 513 302 q 355 267 418 267 q 337 267 347 267 q 317 268 327 267 q 298 269 307 268 q 283 271 289 270 q 258 256 270 264 q 236 237 245 248 q 222 214 227 227 q 216 186 216 201 q 223 159 216 169 q 241 143 229 149 q 268 135 252 137 q 302 134 284 134 l 460 134 q 566 118 522 134 q 636 75 609 102 q 676 9 664 47 q 689 -74 689 -29 q 667 -182 689 -134 q 600 -263 645 -230 q 485 -315 554 -297 q 321 -334 415 -334 q 104 -280 176 -334 q 32 -131 32 -227 q 46 -60 32 -90 q 84 -7 60 -29 q 140 28 109 14 q 205 47 171 41 q 178 64 191 54 q 153 88 164 74 q 136 121 142 102 q 129 161 129 139 q 151 233 129 203 q 220 292 172 263 q 166 325 190 304 q 127 374 143 347 q 103 434 111 401 q 94 501 94 467 q 111 609 94 562 q 159 690 127 656 q 241 741 192 723 q 355 758 290 758 q 405 754 380 758 q 450 744 429 751 q 487 730 471 738 q 514 713 504 722 q 538 737 524 724 q 568 761 551 750 q 605 780 585 772 q 648 787 625 787 q 685 782 669 787 q 710 766 700 776 q 725 743 720 756 q 730 715 730 730 m 144 -122 q 153 -179 144 -153 q 181 -224 161 -205 q 236 -254 201 -243 q 323 -265 271 -265 q 447 -253 398 -265 q 524 -218 495 -240 q 564 -164 552 -195 q 575 -97 575 -134 q 566 -44 575 -65 q 539 -12 557 -24 q 494 5 521 0 q 433 9 468 9 l 297 9 q 240 4 268 9 q 192 -15 213 -1 q 157 -55 170 -29 q 144 -122 144 -81 m 225 505 q 255 375 225 416 q 351 334 284 334 q 409 344 385 334 q 447 375 432 354 q 468 429 462 396 q 475 507 475 462 q 446 646 475 601 q 350 690 418 690 q 254 645 283 690 q 225 505 225 599 z "},"h":{"ha":882,"x_min":25,"x_max":843,"o":"m 399 58 l 399 0 l 25 0 l 25 58 l 36 58 q 80 62 60 58 q 116 76 101 65 q 141 106 132 86 q 150 158 150 125 l 150 903 q 141 952 150 933 q 116 981 132 970 q 80 994 100 991 q 36 997 59 997 l 25 997 l 25 1055 l 281 1055 l 281 750 q 280 710 281 731 q 278 672 279 690 q 275 632 277 652 l 282 632 q 486 758 345 758 q 591 742 545 758 q 668 693 637 726 q 715 609 699 661 q 732 486 732 557 l 732 158 q 740 106 732 125 q 762 76 748 86 q 796 62 777 65 q 839 58 816 58 l 843 58 l 843 0 l 602 0 l 602 479 q 593 560 602 525 q 567 620 585 595 q 520 657 549 644 q 449 669 491 669 q 374 653 406 669 q 322 608 342 637 q 291 537 301 578 q 281 444 281 495 l 281 151 q 290 102 281 121 q 315 74 299 83 q 351 61 330 64 q 395 58 372 58 l 399 58 z "},"i":{"ha":444,"x_min":32,"x_max":427,"o":"m 50 58 q 94 61 73 58 q 130 74 115 64 q 155 102 146 83 q 164 151 164 121 l 164 591 q 155 641 164 622 q 130 669 146 659 q 94 683 115 680 q 50 686 73 686 l 46 686 l 46 745 l 294 745 l 294 158 q 303 106 294 125 q 328 76 313 86 q 364 62 343 65 q 408 58 385 58 l 427 58 l 427 0 l 32 0 l 32 58 l 50 58 m 144 970 q 151 1010 144 994 q 168 1037 157 1027 q 193 1051 178 1047 q 224 1055 207 1055 q 254 1051 240 1055 q 279 1037 269 1047 q 296 1010 290 1027 q 302 970 302 994 q 296 929 302 945 q 279 903 290 913 q 254 888 269 892 q 224 884 240 884 q 193 888 207 884 q 168 903 178 892 q 151 929 157 913 q 144 970 144 945 z "},"j":{"ha":416,"x_min":-17,"x_max":289,"o":"m 281 745 l 281 -11 q 260 -166 281 -104 q 203 -266 240 -229 q 116 -318 167 -302 q 5 -334 66 -334 l -17 -334 l -17 -268 l -7 -268 q 60 -255 31 -268 q 109 -213 89 -243 q 139 -135 129 -184 q 150 -12 150 -85 l 150 591 q 141 641 150 622 q 116 669 132 659 q 80 683 100 680 q 36 686 59 686 l 32 686 l 32 745 l 281 745 m 131 970 q 137 1010 131 994 q 154 1037 143 1027 q 179 1051 164 1047 q 210 1055 193 1055 q 240 1051 226 1055 q 266 1037 255 1047 q 282 1010 276 1027 q 289 970 289 994 q 282 929 289 945 q 266 903 276 913 q 240 888 255 892 q 210 884 226 884 q 179 888 193 884 q 154 903 164 892 q 137 929 143 913 q 131 970 131 945 z "},"k":{"ha":812,"x_min":25,"x_max":814,"o":"m 471 447 l 656 172 q 727 87 692 117 q 810 58 763 58 l 814 58 l 814 0 l 794 0 q 695 4 734 0 q 627 21 656 7 q 575 62 599 35 q 522 135 551 89 l 383 353 l 281 277 l 281 151 q 290 102 281 121 q 315 74 299 83 q 351 61 330 64 q 395 58 372 58 l 399 58 l 399 0 l 25 0 l 25 58 l 36 58 q 80 62 60 58 q 116 76 101 65 q 141 106 132 86 q 150 158 150 125 l 150 903 q 141 952 150 933 q 116 981 132 970 q 80 994 100 991 q 36 997 59 997 l 25 997 l 25 1055 l 281 1055 l 281 519 q 280 471 281 500 q 278 413 279 441 q 275 345 277 380 l 449 534 q 486 578 471 559 q 509 612 500 597 q 522 637 518 626 q 525 659 525 648 q 508 681 525 676 q 457 686 492 686 l 457 745 l 764 745 l 764 686 q 669 652 715 686 q 568 557 623 618 l 471 447 z "},"l":{"ha":431,"x_min":18,"x_max":412,"o":"m 36 58 q 80 62 60 58 q 116 76 101 65 q 141 106 132 86 q 150 158 150 125 l 150 903 q 141 952 150 933 q 116 981 132 970 q 80 994 100 991 q 36 997 59 997 l 18 997 l 18 1055 l 281 1055 l 281 158 q 290 106 281 125 q 314 76 298 86 q 350 62 330 65 q 395 58 371 58 l 412 58 l 412 0 l 18 0 l 18 58 l 36 58 z "},"m":{"ha":1312,"x_min":39,"x_max":1274,"o":"m 412 58 l 412 0 l 39 0 l 39 58 l 57 58 q 100 62 81 58 q 134 76 120 65 q 156 106 149 86 q 164 158 164 125 l 164 591 q 156 641 164 622 q 134 669 148 659 q 100 683 119 680 q 57 686 80 686 l 53 686 l 53 745 l 271 745 l 289 632 l 296 632 q 340 695 317 671 q 389 734 363 720 q 444 753 415 748 q 505 758 473 758 q 570 751 539 758 q 626 730 600 745 q 673 691 652 715 q 707 632 694 667 l 718 632 q 764 695 739 671 q 815 734 788 720 q 873 753 843 748 q 936 758 903 758 q 1031 742 989 758 q 1102 693 1073 726 q 1147 609 1131 661 q 1162 486 1162 557 l 1162 158 q 1171 106 1162 125 q 1193 76 1179 86 q 1227 62 1207 65 q 1270 58 1246 58 l 1274 58 l 1274 0 l 1032 0 l 1032 479 q 1024 560 1032 525 q 999 620 1017 595 q 954 657 982 644 q 886 669 926 669 q 813 653 843 669 q 766 608 784 636 q 740 542 747 579 q 732 463 732 505 l 732 158 q 740 106 732 125 q 762 76 748 86 q 796 62 777 65 q 839 58 816 58 l 843 58 l 843 0 l 602 0 l 602 479 q 594 560 602 525 q 569 620 586 595 q 524 657 551 644 q 456 669 496 669 q 379 651 410 669 q 330 602 349 633 q 302 530 311 570 q 294 444 294 489 l 294 151 q 303 102 294 121 q 328 74 313 83 q 365 61 344 64 q 408 58 385 58 l 412 58 z "},"n":{"ha":896,"x_min":39,"x_max":857,"o":"m 412 58 l 412 0 l 39 0 l 39 58 l 50 58 q 95 62 74 58 q 131 76 115 65 q 155 106 146 86 q 164 158 164 125 l 164 591 q 155 641 164 622 q 130 669 146 659 q 94 683 115 680 q 50 686 73 686 l 46 686 l 46 745 l 271 745 l 289 632 l 296 632 q 341 695 317 671 q 392 734 366 720 q 449 753 419 748 q 513 758 479 758 q 611 742 568 758 q 684 693 654 726 q 730 609 714 661 q 746 486 746 557 l 746 158 q 754 106 746 125 q 776 76 762 86 q 810 62 790 65 q 852 58 829 58 l 857 58 l 857 0 l 615 0 l 615 479 q 607 560 615 525 q 581 620 599 595 q 534 657 563 644 q 463 669 505 669 q 383 651 415 669 q 331 602 351 633 q 303 530 311 570 q 294 444 294 489 l 294 151 q 303 102 294 121 q 328 74 313 83 q 365 61 344 64 q 408 58 385 58 l 412 58 z "},"o":{"ha":802,"x_min":77,"x_max":725,"o":"m 725 374 q 642 82 725 178 q 399 -14 559 -14 q 264 10 323 -14 q 162 82 204 34 q 99 203 121 130 q 77 374 77 276 q 159 663 77 568 q 403 758 241 758 q 538 735 478 758 q 639 664 597 711 q 703 544 681 616 q 725 374 725 471 m 211 374 q 221 237 211 296 q 254 139 231 178 q 313 79 277 99 q 401 58 349 58 q 490 79 454 58 q 548 139 526 99 q 580 237 570 178 q 590 374 590 296 q 580 509 590 451 q 547 607 570 568 q 489 665 525 646 q 400 685 452 685 q 312 665 348 685 q 254 607 276 646 q 221 509 231 568 q 211 374 211 451 z "},"p":{"ha":852,"x_min":18,"x_max":777,"o":"m 469 669 q 379 651 415 669 q 321 597 342 633 q 290 505 299 560 q 281 374 281 449 q 290 245 281 301 q 321 152 299 190 q 379 95 343 114 q 471 75 416 75 q 549 95 517 75 q 602 152 581 114 q 632 246 623 190 q 642 375 642 302 q 632 504 642 449 q 602 596 623 559 q 548 651 581 633 q 469 669 515 669 m 777 374 q 758 200 777 273 q 703 79 739 127 q 614 9 667 32 q 493 -14 562 -14 q 420 -5 453 -14 q 362 20 388 4 q 316 59 336 37 q 281 109 296 81 l 275 109 q 278 41 277 73 q 279 15 279 28 q 280 -12 279 1 q 280 -34 280 -24 q 281 -49 281 -43 l 281 -182 q 290 -231 281 -212 q 315 -259 299 -250 q 351 -272 330 -269 q 395 -275 372 -275 l 399 -275 l 399 -334 l 25 -334 l 25 -275 l 36 -275 q 80 -272 60 -275 q 116 -258 101 -269 q 141 -228 132 -248 q 150 -175 150 -208 l 150 591 q 141 641 150 622 q 116 669 132 659 q 80 683 100 680 q 36 686 59 686 l 18 686 l 18 745 l 261 745 l 275 619 l 281 619 q 316 677 296 651 q 361 721 336 703 q 420 748 387 739 q 493 758 452 758 q 614 735 562 758 q 703 666 667 713 q 758 546 739 618 q 777 374 777 473 z "},"q":{"ha":852,"x_min":77,"x_max":828,"o":"m 828 -334 l 412 -334 l 412 -275 l 458 -275 q 503 -272 482 -275 q 539 -258 524 -269 q 563 -228 554 -248 q 572 -175 572 -208 l 572 -56 q 573 -1 572 -32 q 575 58 574 30 q 578 125 576 91 l 572 125 q 537 67 557 93 q 491 24 517 42 q 433 -4 465 6 q 359 -14 400 -14 q 238 9 291 -14 q 149 79 185 32 q 95 199 113 126 q 77 371 77 271 q 95 545 77 471 q 149 665 113 618 q 238 735 185 713 q 359 758 291 758 q 432 749 399 758 q 491 724 465 741 q 537 686 517 708 q 572 636 557 663 l 581 636 l 606 745 l 828 745 l 828 686 l 817 686 q 772 683 793 686 q 736 669 751 680 q 712 638 721 659 q 703 586 703 618 l 703 -180 q 712 -230 703 -211 q 736 -258 721 -248 q 773 -272 752 -269 q 817 -275 793 -275 l 828 -275 l 828 -334 m 383 75 q 474 93 437 75 q 532 148 510 111 q 563 240 554 184 q 572 371 572 296 q 563 499 572 444 q 532 592 554 555 q 473 650 510 630 q 382 669 437 669 q 304 650 336 669 q 251 592 271 630 q 220 498 230 554 q 211 370 211 442 q 251 149 211 222 q 383 75 291 75 z "},"r":{"ha":654,"x_min":46,"x_max":633,"o":"m 447 0 l 46 0 l 46 58 l 50 58 q 95 62 74 58 q 131 76 115 65 q 155 106 146 86 q 164 158 164 125 l 164 591 q 155 641 164 622 q 130 669 146 659 q 94 683 115 680 q 50 686 73 686 l 46 686 l 46 745 l 260 745 l 286 607 l 293 607 q 321 666 307 638 q 356 714 335 693 q 407 746 376 734 q 484 758 437 758 q 596 732 559 758 q 633 657 633 705 q 626 617 633 635 q 604 586 619 599 q 564 565 588 572 q 504 558 539 558 q 488 641 504 616 q 431 667 471 667 q 385 652 405 667 q 349 613 364 637 q 323 558 334 589 q 306 494 313 527 q 297 429 300 461 q 294 370 294 396 l 294 151 q 303 102 294 121 q 328 74 313 83 q 365 61 344 64 q 408 58 385 58 l 447 58 l 447 0 z "},"s":{"ha":627,"x_min":62,"x_max":566,"o":"m 292 -14 q 197 -4 239 -14 q 125 23 155 5 q 79 70 95 42 q 62 134 62 97 q 72 180 62 161 q 94 210 81 199 q 122 225 107 220 q 150 229 138 229 q 157 161 150 193 q 182 105 165 129 q 229 67 200 81 q 300 53 258 53 q 366 62 337 53 q 413 88 394 71 q 443 128 433 104 q 453 179 453 151 q 445 223 453 205 q 418 258 437 242 q 366 292 399 275 q 282 330 332 309 q 189 376 229 354 q 123 424 149 398 q 85 483 98 450 q 72 561 72 515 q 91 645 72 608 q 144 706 109 682 q 227 744 178 731 q 334 757 275 757 q 421 747 383 757 q 485 719 459 736 q 524 679 511 702 q 536 629 536 655 q 510 569 536 591 q 436 546 484 546 q 407 654 436 616 q 317 693 378 693 q 256 685 281 693 q 215 662 231 677 q 192 627 199 647 q 184 582 184 606 q 194 536 184 555 q 224 500 203 517 q 278 469 245 484 q 357 435 311 454 q 451 389 412 412 q 516 340 490 367 q 553 281 541 314 q 566 204 566 248 q 546 109 566 150 q 490 41 526 68 q 404 0 454 14 q 292 -14 353 -14 z "},"t":{"ha":489,"x_min":26,"x_max":457,"o":"m 368 60 q 414 62 393 60 q 457 69 435 65 l 457 8 q 434 0 448 4 q 403 -7 420 -4 q 368 -12 387 -10 q 334 -14 350 -14 q 243 -2 281 -14 q 180 34 205 9 q 144 100 156 59 q 132 201 132 142 l 132 665 l 26 665 l 26 721 q 82 731 52 721 q 135 765 112 741 q 173 826 159 791 q 199 916 188 862 l 262 916 l 262 745 l 444 745 l 444 665 l 262 665 l 262 197 q 291 93 262 126 q 368 60 320 60 z "},"u":{"ha":882,"x_min":32,"x_max":850,"o":"m 732 151 q 741 102 732 121 q 766 74 750 83 q 802 61 781 64 q 846 58 823 58 l 850 58 l 850 0 l 629 0 l 611 113 l 604 113 q 558 49 583 73 q 504 11 532 24 q 444 -8 475 -3 q 379 -14 413 -14 q 281 2 324 -14 q 210 51 239 18 q 165 136 180 84 q 150 258 150 187 l 150 591 q 141 641 150 622 q 116 669 132 659 q 80 683 100 680 q 36 686 59 686 l 32 686 l 32 745 l 281 745 l 281 265 q 288 184 281 220 q 312 125 295 149 q 356 88 328 100 q 427 75 385 75 q 506 92 473 75 q 560 137 538 108 q 591 208 581 167 q 602 300 602 250 l 602 586 q 592 638 602 618 q 568 669 583 659 q 532 683 553 680 q 488 686 511 686 l 484 686 l 484 745 l 732 745 l 732 151 z "},"v":{"ha":804,"x_min":5,"x_max":800,"o":"m 5 686 l 5 745 l 353 745 l 353 686 l 335 686 q 272 670 293 686 q 252 619 252 654 q 254 596 252 608 q 262 568 257 584 l 357 306 q 375 252 366 281 q 393 194 385 222 q 408 140 401 165 q 418 97 415 115 l 422 97 q 434 134 426 112 q 451 182 441 156 q 472 235 461 208 q 492 288 482 262 l 591 558 q 601 591 598 575 q 604 618 604 606 q 582 670 604 654 q 513 686 559 686 l 503 686 l 503 745 l 800 745 l 800 686 l 783 686 q 749 682 763 686 q 723 665 734 677 q 701 632 711 653 q 677 578 690 611 l 458 0 l 332 0 l 109 612 q 92 648 100 634 q 71 671 83 663 q 45 683 60 680 q 9 686 30 686 l 5 686 z "},"w":{"ha":1197,"x_min":1,"x_max":1196,"o":"m 661 741 l 800 329 q 818 275 808 304 q 835 218 827 246 q 850 165 843 190 q 860 122 857 140 l 864 122 q 884 207 870 157 q 918 325 897 258 l 987 549 q 997 586 993 566 q 1000 618 1000 606 q 978 670 1000 654 q 908 686 955 686 l 899 686 l 899 745 l 1196 745 l 1196 686 l 1178 686 q 1143 682 1158 686 q 1116 666 1128 678 q 1094 633 1104 654 q 1074 578 1084 612 l 895 0 l 783 0 l 618 489 l 593 581 l 396 0 l 286 0 l 104 612 q 87 648 96 634 q 67 671 79 663 q 41 683 56 680 q 5 686 26 686 l 1 686 l 1 745 l 345 745 l 345 686 l 326 686 q 264 674 285 686 q 243 628 243 662 q 247 600 243 616 q 254 568 250 584 l 319 335 q 334 280 326 310 q 348 221 341 250 q 359 165 354 191 q 368 122 365 140 l 372 122 q 381 163 376 140 q 395 213 387 186 q 412 268 403 240 q 429 321 420 296 l 574 741 l 661 741 z "},"x":{"ha":803,"x_min":7,"x_max":796,"o":"m 533 646 q 512 679 533 671 q 458 686 490 686 l 454 686 l 454 745 l 758 745 l 758 686 l 746 686 q 709 683 726 686 q 676 670 692 680 q 644 643 661 661 q 606 597 627 625 l 463 407 l 667 132 q 725 75 697 92 q 778 58 752 58 l 796 58 l 796 0 l 437 0 l 437 58 l 444 58 q 528 104 528 58 q 526 120 528 112 q 517 138 524 127 q 501 163 511 149 q 475 200 491 178 l 382 325 l 285 189 q 272 170 279 181 q 260 148 265 159 q 251 124 254 136 q 248 102 248 113 q 267 68 248 78 q 334 58 287 58 l 338 58 l 338 0 l 7 0 l 7 58 l 20 58 q 64 62 45 58 q 100 77 83 66 q 134 104 117 87 q 171 147 151 121 l 346 374 l 171 612 q 112 667 140 648 q 52 686 83 686 l 33 686 l 33 745 l 386 745 l 386 686 l 382 686 q 342 683 358 686 q 318 674 327 680 q 306 661 309 669 q 302 646 302 654 q 311 617 302 631 q 335 582 319 604 l 427 457 l 498 561 q 524 606 514 585 q 533 646 533 627 z "},"y":{"ha":785,"x_min":5,"x_max":785,"o":"m 785 745 l 785 686 l 781 686 q 746 682 760 686 q 719 665 731 677 q 697 632 707 653 q 675 578 687 611 l 464 -5 q 418 -123 439 -73 q 372 -211 396 -174 q 320 -271 349 -247 q 256 -309 292 -294 q 174 -328 220 -323 q 65 -334 127 -334 l 53 -334 l 53 -268 q 174 -247 123 -268 q 262 -189 225 -226 q 324 -103 299 -153 q 366 5 349 -53 l 109 612 q 90 648 99 634 q 70 671 81 662 q 44 683 59 680 q 9 686 30 686 l 5 686 l 5 745 l 339 745 l 339 686 l 335 686 q 272 670 293 686 q 252 619 252 654 q 254 596 252 608 q 262 568 256 584 l 364 321 q 384 269 374 297 q 404 213 395 241 q 420 161 413 186 q 431 119 428 137 l 435 119 q 455 194 442 150 q 486 288 469 237 l 579 558 q 588 591 585 575 q 591 618 591 606 q 569 670 591 654 q 500 686 546 686 l 496 686 l 496 745 l 785 745 z "},"z":{"ha":710,"x_min":58,"x_max":632,"o":"m 472 79 q 512 89 496 79 q 539 114 528 98 q 556 150 549 130 q 567 193 562 171 l 574 225 l 632 225 l 625 0 l 58 0 l 58 56 l 461 665 l 244 665 q 199 658 217 665 q 171 637 182 651 q 152 602 159 623 q 138 553 145 581 l 136 547 l 78 547 l 92 745 l 624 745 l 624 688 l 220 79 l 472 79 z "},"{":{"ha":595,"x_min":69,"x_max":525,"o":"m 433 -178 q 347 -163 385 -178 q 284 -123 309 -149 q 246 -61 259 -98 q 233 22 233 -24 l 233 264 q 221 334 233 307 q 186 379 208 362 q 134 402 163 395 q 69 411 104 410 l 69 469 q 134 477 104 471 q 186 501 163 484 q 221 545 208 517 q 233 615 233 573 l 233 857 q 284 1004 233 952 q 433 1055 334 1055 l 525 1055 l 525 996 l 484 996 q 396 959 422 996 q 370 850 370 922 l 370 612 q 331 499 370 545 q 215 441 293 454 l 215 440 q 332 382 295 427 q 370 268 370 337 l 370 28 q 396 -81 370 -43 q 484 -118 422 -118 l 525 -118 l 525 -178 l 433 -178 z "},"|":{"ha":777,"x_min":346,"x_max":429,"o":"m 429 -334 l 346 -334 l 346 1055 l 429 1055 l 429 -334 z "},"}":{"ha":595,"x_min":69,"x_max":525,"o":"m 69 -118 l 111 -118 q 199 -81 173 -118 q 225 28 225 -43 l 225 268 q 262 382 225 337 q 379 440 299 427 l 379 441 q 263 499 302 454 q 225 612 225 545 l 225 850 q 199 959 225 922 q 111 996 173 996 l 69 996 l 69 1055 l 161 1055 q 310 1004 260 1055 q 361 857 361 952 l 361 615 q 374 545 361 573 q 409 501 387 517 q 460 477 431 484 q 525 469 490 471 l 525 411 q 460 402 490 410 q 409 379 431 395 q 374 334 387 362 q 361 264 361 307 l 361 22 q 348 -61 361 -24 q 310 -123 335 -98 q 248 -163 285 -149 q 161 -178 210 -178 l 69 -178 l 69 -118 z "},"~":{"ha":777,"x_min":75,"x_max":700,"o":"m 525 374 q 483 382 505 374 q 440 404 461 391 q 399 432 418 416 q 364 461 380 447 q 334 489 349 475 q 304 512 319 502 q 275 528 290 522 q 244 534 260 534 q 184 495 203 534 q 157 374 164 456 l 75 374 q 88 460 79 417 q 115 538 96 504 q 166 595 134 573 q 250 616 199 616 q 296 608 273 616 q 341 585 319 599 q 382 555 363 572 q 418 525 401 539 q 447 499 433 511 q 475 477 461 486 q 503 461 489 467 q 532 456 517 456 q 589 497 570 456 q 616 616 607 539 l 700 616 q 686 530 695 573 q 657 452 676 486 q 606 395 637 417 q 525 374 574 374 z "},"":{"ha":361,"x_min":0,"x_max":0,"o":""},"":{"ha":463,"x_min":143,"x_max":318,"o":"m 311 -249 l 150 -249 l 199 464 l 262 464 l 311 -249 m 318 659 q 311 613 318 631 q 293 584 304 595 q 265 568 281 573 q 231 564 249 564 q 197 568 213 564 q 169 584 181 573 q 150 613 157 595 q 143 659 143 631 q 150 703 143 685 q 169 732 157 721 q 197 748 181 743 q 231 753 213 753 q 265 748 249 753 q 293 732 281 743 q 311 703 304 721 q 318 659 318 685 z "},"":{"ha":777,"x_min":110,"x_max":689,"o":"m 396 122 q 280 153 333 129 q 190 222 228 177 q 131 336 152 267 q 110 501 110 405 q 132 676 110 604 q 193 794 155 748 q 284 862 232 840 q 396 890 336 885 l 396 991 l 465 991 l 465 890 q 545 877 505 887 q 617 850 585 867 q 669 808 649 833 q 689 750 689 783 q 658 682 689 702 q 566 663 627 663 q 559 717 566 691 q 541 764 553 743 q 510 799 529 785 q 465 818 491 813 l 465 201 q 523 205 494 201 q 578 216 551 210 q 627 230 604 222 q 667 245 650 238 l 667 170 q 579 136 631 151 q 465 119 527 121 l 465 0 l 396 0 l 396 122 m 244 503 q 281 304 244 378 q 396 210 318 231 l 396 818 q 335 792 363 812 q 287 736 307 773 q 255 642 267 699 q 244 503 244 585 z "},"":{"ha":777,"x_min":68,"x_max":736,"o":"m 339 468 q 358 397 349 433 q 367 319 367 361 q 333 214 367 260 q 244 131 300 168 l 248 125 q 301 144 276 138 q 349 150 326 150 q 410 142 376 150 q 476 123 443 134 q 539 105 509 113 q 590 97 569 97 q 635 104 614 97 q 674 123 656 111 q 708 149 692 134 q 736 179 723 163 l 736 89 q 707 54 724 72 q 667 20 690 35 q 617 -4 645 5 q 554 -14 589 -14 q 486 -4 519 -14 q 419 18 453 6 q 350 39 385 29 q 278 49 315 49 q 192 36 232 49 q 107 1 152 22 l 89 -7 l 89 66 l 114 82 q 165 120 140 98 q 211 171 191 142 q 244 235 231 199 q 257 311 257 270 q 247 391 257 352 q 222 468 237 430 l 68 468 l 68 533 l 196 533 q 177 581 186 555 q 160 636 168 608 q 148 695 153 665 q 143 754 143 726 q 163 861 143 814 q 219 940 182 907 q 308 989 256 972 q 427 1006 361 1006 q 541 994 494 1006 q 616 961 587 982 q 659 911 646 940 q 672 850 672 883 q 643 782 672 805 q 562 760 613 760 q 556 824 562 792 q 535 880 551 855 q 493 920 520 905 q 421 936 465 936 q 303 890 340 936 q 265 757 265 844 q 271 693 265 724 q 284 633 276 662 q 302 579 292 604 q 319 533 311 553 l 555 533 l 555 468 l 339 468 z "},"":{"ha":777,"x_min":89,"x_max":686,"o":"m 134 497 q 145 577 134 539 q 180 646 157 614 l 89 737 l 147 796 l 237 704 q 307 740 269 727 q 387 753 345 753 q 466 740 428 753 q 534 704 503 727 l 628 798 l 686 737 l 595 646 q 630 577 618 614 q 643 497 643 539 q 630 417 643 455 q 595 349 618 380 l 686 257 l 629 199 l 536 290 q 467 256 505 269 q 387 243 429 243 q 308 255 345 243 q 239 290 271 267 l 147 199 l 89 257 l 179 349 q 145 417 157 380 q 134 497 134 455 m 211 497 q 225 428 211 460 q 263 372 239 396 q 319 334 287 348 q 387 319 351 319 q 458 334 425 319 q 514 372 490 348 q 552 428 538 396 q 566 497 566 460 q 552 568 566 535 q 514 624 538 600 q 458 662 490 648 q 387 676 425 676 q 319 662 351 676 q 263 624 287 648 q 225 568 239 600 q 211 497 211 535 z "},"":{"ha":777,"x_min":7,"x_max":770,"o":"m 179 0 l 179 58 l 211 58 q 254 61 234 58 q 290 74 275 64 q 314 102 305 83 q 325 151 323 121 l 325 245 l 131 245 l 131 311 l 325 311 l 325 408 l 131 408 l 131 473 l 298 473 l 110 860 q 91 894 100 880 q 71 917 82 908 q 45 929 60 926 q 11 933 31 933 l 7 933 l 7 991 l 345 991 l 345 933 l 335 933 q 274 920 293 933 q 256 879 256 907 q 261 842 256 863 q 278 798 267 821 l 345 650 q 364 603 355 628 q 382 553 374 578 q 397 508 391 529 q 408 473 404 487 q 417 495 411 481 q 431 527 423 510 q 447 563 439 545 q 463 595 456 581 l 542 764 q 567 831 558 800 q 575 878 575 862 q 556 920 575 906 q 490 933 536 933 l 486 933 l 486 991 l 770 991 l 770 933 l 757 933 q 726 928 739 933 q 702 911 713 924 q 679 878 691 899 q 652 825 667 857 l 482 473 l 654 473 l 654 408 l 460 408 l 460 311 l 654 311 l 654 245 l 460 245 l 460 158 q 469 106 460 125 q 493 76 478 86 q 529 62 509 65 q 574 58 550 58 l 606 58 l 606 0 l 179 0 z "},"":{"ha":777,"x_min":346,"x_max":429,"o":"m 429 500 l 346 500 l 346 1055 l 429 1055 l 429 500 m 429 -334 l 346 -334 l 346 222 l 429 222 l 429 -334 z "},"":{"ha":755,"x_min":109,"x_max":685,"o":"m 406 539 q 312 586 355 563 q 232 637 268 609 q 207 605 217 624 q 197 558 197 586 q 207 508 197 530 q 239 465 216 486 q 301 421 262 444 q 400 370 340 399 q 483 327 442 349 q 557 277 524 306 q 576 313 568 293 q 583 355 583 332 q 576 400 583 379 q 550 443 570 421 q 496 488 531 465 q 406 539 461 511 m 387 -90 q 515 -53 473 -90 q 557 49 557 -15 q 549 102 557 79 q 516 148 542 125 q 443 198 491 170 q 313 265 394 225 q 219 320 258 292 q 155 380 180 349 q 120 447 131 411 q 109 524 109 482 q 132 615 109 576 q 191 679 155 654 q 152 747 165 709 q 139 835 139 785 q 158 929 139 888 q 212 998 178 970 q 293 1041 245 1026 q 395 1055 340 1055 q 494 1043 452 1055 q 565 1011 536 1031 q 607 962 593 990 q 621 900 621 933 q 594 835 621 855 q 522 815 567 815 q 515 878 522 848 q 493 933 509 909 q 451 971 477 957 q 389 986 426 986 q 281 951 319 986 q 243 851 243 917 q 257 790 243 814 q 298 745 271 765 q 366 706 326 725 q 458 661 406 687 q 560 604 517 633 q 631 545 603 576 q 672 479 659 514 q 685 404 685 445 q 678 354 685 379 q 659 307 671 330 q 633 264 648 284 q 602 228 618 244 q 633 167 621 201 q 644 90 644 133 q 629 -10 644 35 q 582 -89 614 -56 q 499 -140 549 -121 q 378 -158 448 -158 q 280 -148 324 -158 q 205 -117 237 -137 q 157 -66 174 -96 q 140 3 140 -37 q 150 50 140 31 q 172 80 159 68 q 200 95 185 91 q 228 100 216 100 q 237 29 228 63 q 266 -32 246 -5 q 315 -74 285 -58 q 387 -90 345 -90 z "},"":{"ha":802,"x_min":197,"x_max":603,"o":"m 197 956 q 203 992 197 977 q 218 1016 208 1007 q 240 1029 227 1025 q 268 1034 253 1034 q 296 1029 283 1034 q 318 1016 309 1025 q 334 992 328 1007 q 339 956 339 977 q 334 920 339 935 q 318 895 328 905 q 296 882 309 886 q 268 878 283 878 q 217 895 237 878 q 197 956 197 913 m 461 956 q 467 992 461 977 q 481 1016 472 1007 q 504 1029 491 1025 q 532 1034 517 1034 q 559 1029 547 1034 q 582 1016 572 1025 q 597 992 592 1007 q 603 956 603 977 q 597 920 603 935 q 582 895 592 905 q 559 882 572 886 q 532 878 547 878 q 481 895 501 878 q 461 956 461 913 z "},"":{"ha":1174,"x_min":77,"x_max":1097,"o":"m 611 248 q 670 256 643 248 q 719 277 697 264 q 756 308 741 291 q 782 342 772 325 q 796 325 790 336 q 802 298 802 313 q 788 260 802 279 q 749 224 775 240 q 684 197 723 208 q 593 187 645 187 q 472 210 524 187 q 385 273 420 232 q 333 370 350 313 q 315 497 315 427 q 334 621 315 565 q 391 718 353 677 q 484 782 429 759 q 612 804 539 804 q 696 797 661 804 q 755 775 732 789 q 791 744 779 762 q 803 705 803 726 q 795 678 803 690 q 775 657 788 666 q 745 645 762 649 q 708 640 728 640 q 703 679 708 660 q 686 712 698 697 q 656 737 675 728 q 610 746 637 746 q 527 730 561 746 q 471 682 492 713 q 439 604 449 650 q 429 497 429 557 q 476 312 429 377 q 611 248 523 248 m 77 496 q 95 632 77 566 q 146 754 113 697 q 225 857 179 810 q 329 937 272 904 q 450 989 385 970 q 586 1007 515 1007 q 722 989 656 1007 q 844 937 787 970 q 947 857 901 904 q 1027 754 994 810 q 1079 632 1061 697 q 1097 496 1097 566 q 1079 360 1097 425 q 1027 238 1061 295 q 947 135 994 182 q 844 56 901 89 q 722 4 787 22 q 586 -14 656 -14 q 450 4 515 -14 q 329 56 385 22 q 225 135 272 89 q 146 238 179 182 q 95 360 113 295 q 77 496 77 425 m 153 496 q 168 381 153 436 q 212 277 184 326 q 280 190 240 229 q 368 122 319 150 q 471 78 416 94 q 586 62 526 62 q 702 78 646 62 q 806 122 758 94 q 893 190 854 150 q 961 277 933 229 q 1005 381 989 326 q 1021 496 1021 436 q 1005 611 1021 555 q 961 715 989 667 q 893 803 933 764 q 806 871 854 843 q 702 915 758 899 q 586 930 646 930 q 471 915 526 930 q 368 871 416 899 q 280 803 319 843 q 212 715 240 764 q 168 611 184 667 q 153 496 153 556 z "},"":{"ha":530,"x_min":49,"x_max":507,"o":"m 170 668 q 188 608 170 625 q 233 591 206 591 q 275 600 256 591 q 306 623 293 608 q 325 658 318 637 q 332 703 332 678 l 332 768 l 289 766 q 232 759 255 766 q 196 739 210 751 q 176 709 182 726 q 170 668 170 691 m 262 947 q 229 940 241 947 q 209 920 216 932 q 199 889 201 907 q 196 852 196 872 q 115 866 143 852 q 86 913 86 880 q 100 953 86 937 q 139 979 115 969 q 196 994 163 989 q 265 999 229 999 q 345 991 311 999 q 402 965 379 983 q 436 918 425 947 q 447 848 447 890 l 447 637 q 460 595 447 606 q 507 583 473 583 l 507 536 l 372 536 l 347 600 l 340 600 q 314 573 328 587 q 281 550 299 560 q 241 534 263 540 q 193 528 220 528 q 87 564 126 528 q 49 669 49 600 q 104 771 49 739 q 272 810 159 804 l 332 812 l 332 852 q 329 891 332 873 q 320 921 327 908 q 299 940 313 933 q 262 947 286 947 z "},"":{"ha":714,"x_min":90,"x_max":624,"o":"m 90 397 l 302 639 l 372 639 l 232 375 l 372 111 l 302 111 l 90 353 l 90 397 m 342 397 l 554 639 l 624 639 l 484 375 l 624 111 l 554 111 l 342 353 l 342 397 z "},"":{"ha":777,"x_min":90,"x_max":686,"o":"m 686 538 l 686 171 l 603 171 l 603 456 l 90 456 l 90 538 l 686 538 z "},"":{"ha":431,"x_min":35,"x_max":396,"o":"m 35 326 l 35 431 l 396 431 l 396 326 l 35 326 z "},"":{"ha":1174,"x_min":77,"x_max":1097,"o":"m 323 243 l 342 243 q 368 244 355 243 q 389 251 380 246 q 404 266 398 256 q 410 292 409 275 l 410 699 q 404 725 409 715 q 389 740 398 734 q 368 746 380 745 q 342 747 355 747 l 323 747 l 323 796 l 574 796 q 812 631 812 796 q 802 572 812 597 q 773 529 791 547 q 733 498 755 511 q 686 478 710 486 l 810 279 q 823 261 817 268 q 838 250 829 254 q 859 244 847 245 q 888 243 871 243 l 888 196 l 741 196 l 587 454 l 514 454 l 514 292 q 521 266 515 275 q 535 251 526 256 q 556 244 545 246 q 582 243 568 243 l 602 243 l 602 196 l 323 196 l 323 243 m 514 507 l 572 507 q 635 515 610 507 q 675 537 660 522 q 696 575 690 552 q 703 629 703 598 q 695 682 703 660 q 672 716 688 703 q 630 736 656 730 q 568 742 605 742 l 514 742 l 514 507 m 77 496 q 95 632 77 566 q 146 754 113 697 q 225 857 179 810 q 329 937 272 904 q 450 989 385 970 q 586 1007 515 1007 q 722 989 656 1007 q 844 937 787 970 q 947 857 901 904 q 1027 754 994 810 q 1079 632 1061 697 q 1097 496 1097 566 q 1079 360 1097 425 q 1027 238 1061 295 q 947 135 994 182 q 844 56 901 89 q 722 4 787 22 q 586 -14 656 -14 q 450 4 515 -14 q 329 56 385 22 q 225 135 272 89 q 146 238 179 182 q 95 360 113 295 q 77 496 77 425 m 153 496 q 168 381 153 436 q 212 277 184 326 q 280 190 240 229 q 368 122 319 150 q 471 78 416 94 q 586 62 526 62 q 702 78 646 62 q 806 122 758 94 q 893 190 854 150 q 961 277 933 229 q 1005 381 989 326 q 1021 496 1021 436 q 1005 611 1021 555 q 961 715 989 667 q 893 803 933 764 q 806 871 854 843 q 702 915 758 899 q 586 930 646 930 q 471 915 526 930 q 368 871 416 899 q 280 803 319 843 q 212 715 240 764 q 168 611 184 667 q 153 496 153 556 z "},"":{"ha":637,"x_min":-7,"x_max":644,"o":"m 644 1055 l -7 1055 l -7 1137 l 644 1137 l 644 1055 z "},"":{"ha":555,"x_min":66,"x_max":488,"o":"m 66 781 q 83 863 66 825 q 128 930 100 901 q 195 975 157 958 q 277 991 233 991 q 359 975 321 991 q 426 930 397 958 q 471 863 454 901 q 488 781 488 825 q 471 699 488 737 q 426 632 454 661 q 359 587 397 604 q 277 571 321 571 q 195 587 233 571 q 128 632 157 604 q 83 699 100 661 q 66 781 66 737 m 150 781 q 160 731 150 755 q 187 691 170 708 q 227 663 204 673 q 277 653 250 653 q 327 663 304 653 q 367 691 350 673 q 394 731 385 708 q 404 781 404 755 q 394 831 404 808 q 367 872 385 854 q 327 899 350 889 q 277 909 304 909 q 227 899 250 909 q 187 872 204 889 q 160 831 170 854 q 150 781 150 808 z "},"":{"ha":777,"x_min":90,"x_max":686,"o":"m 429 456 l 429 199 l 346 199 l 346 456 l 90 456 l 90 538 l 346 538 l 346 794 l 429 794 l 429 538 l 686 538 l 686 456 l 429 456 m 686 0 l 90 0 l 90 82 l 686 82 l 686 0 z "},"":{"ha":555,"x_min":58,"x_max":485,"o":"m 468 856 q 460 795 468 823 q 435 738 453 766 q 389 679 418 709 q 317 611 360 648 l 170 485 l 371 485 q 415 502 403 485 q 432 542 428 519 l 437 571 l 485 571 l 481 397 l 58 397 l 58 460 l 235 618 q 286 674 265 646 q 320 731 307 703 q 338 789 332 760 q 343 844 343 817 q 339 887 343 867 q 325 920 334 906 q 299 942 315 935 q 261 950 283 950 q 218 940 236 950 q 190 914 201 930 q 174 875 179 897 q 170 829 170 853 q 96 841 123 829 q 69 889 69 852 q 81 936 69 914 q 118 972 94 957 q 178 997 142 988 q 261 1006 214 1006 q 413 967 358 1006 q 468 856 468 929 z "},"":{"ha":555,"x_min":56,"x_max":488,"o":"m 241 389 q 103 420 151 389 q 56 503 56 452 q 73 552 56 533 q 119 571 90 571 q 126 528 119 549 q 148 490 134 507 q 185 462 163 473 q 237 452 207 452 q 328 480 295 452 q 361 572 361 508 q 326 650 361 621 q 214 679 290 679 l 168 679 l 168 736 l 214 736 q 262 744 240 736 q 302 768 285 753 q 328 806 319 784 q 338 856 338 828 q 319 926 338 902 q 258 950 301 950 q 214 940 232 950 q 186 914 197 930 q 171 875 176 897 q 167 829 167 853 q 124 832 143 829 q 91 841 104 834 q 71 859 78 848 q 64 889 64 871 q 76 936 64 914 q 114 972 89 957 q 175 997 138 988 q 258 1006 211 1006 q 342 996 304 1006 q 408 969 380 987 q 449 926 435 951 q 464 868 464 901 q 452 813 464 838 q 421 771 441 789 q 376 740 402 753 q 322 718 351 726 l 322 711 q 379 698 350 707 q 432 674 408 690 q 472 634 456 659 q 488 571 488 609 q 465 485 488 520 q 406 429 442 450 q 327 398 370 408 q 241 389 283 389 z "},"":{"ha":802,"x_min":265,"x_max":534,"o":"m 265 860 q 297 905 281 880 q 330 959 314 931 q 360 1014 346 986 q 386 1064 375 1041 l 534 1064 l 534 1050 q 496 1004 522 1031 q 441 947 471 977 q 378 889 410 917 q 318 842 346 861 l 265 842 l 265 860 z "},"":{"ha":854,"x_min":119,"x_max":796,"o":"m 386 -14 q 286 8 328 -14 q 216 68 244 29 q 221 -39 218 10 q 236 -124 224 -87 q 269 -183 247 -161 q 329 -212 290 -206 q 323 -261 329 -239 q 306 -299 317 -283 q 275 -325 294 -315 q 232 -334 257 -334 q 190 -326 210 -334 q 154 -298 170 -317 q 129 -247 138 -279 q 119 -168 119 -215 q 122 -79 119 -127 q 127 27 124 -31 q 133 155 130 85 q 136 313 136 226 l 136 745 l 267 745 l 267 278 q 273 195 267 233 q 296 131 280 158 q 339 90 312 104 q 406 75 366 75 q 475 92 444 75 q 528 137 507 108 q 562 208 550 167 q 574 300 574 250 l 574 745 l 704 745 l 704 179 q 712 126 704 149 q 733 88 720 103 q 761 66 745 73 q 791 58 777 58 l 796 58 l 796 0 l 721 0 q 631 28 664 0 q 586 111 599 56 l 581 111 q 546 60 564 83 q 504 21 527 37 q 451 -4 480 5 q 386 -14 422 -14 z "},"":{"ha":857,"x_min":56,"x_max":800,"o":"m 583 985 l 452 985 l 452 -154 l 235 -154 l 235 -96 l 253 -96 q 297 -92 277 -96 q 333 -78 318 -89 q 358 -48 349 -68 q 367 4 367 -28 l 367 536 l 268 536 q 166 558 207 536 q 101 618 125 581 q 66 705 77 656 q 56 808 56 754 q 67 909 56 864 q 104 987 79 955 q 171 1038 130 1020 q 271 1055 212 1055 l 800 1055 l 800 997 l 782 997 q 738 994 759 997 q 702 980 717 990 q 677 949 686 969 q 668 897 668 930 l 668 4 q 677 -48 668 -28 q 702 -78 686 -68 q 738 -92 717 -89 q 782 -96 759 -96 l 800 -96 l 800 -154 l 583 -154 l 583 985 z "},"":{"ha":347,"x_min":86,"x_max":261,"o":"m 86 494 q 93 540 86 522 q 112 569 100 558 q 139 584 123 580 q 174 589 155 589 q 207 584 191 589 q 235 569 223 580 q 254 540 247 558 q 261 494 261 522 q 254 450 261 468 q 235 421 247 432 q 207 405 223 410 q 174 400 191 400 q 139 405 155 400 q 112 421 123 410 q 93 450 100 432 q 86 494 86 468 z "},"":{"ha":463,"x_min":83,"x_max":374,"o":"m 374 -175 q 327 -291 374 -249 q 191 -334 279 -334 q 166 -333 180 -334 q 138 -330 153 -332 q 110 -325 124 -328 q 83 -318 96 -321 l 83 -248 q 134 -256 109 -253 q 178 -258 159 -258 q 240 -237 218 -258 q 262 -180 262 -216 q 233 -119 262 -140 q 158 -96 203 -99 l 187 12 l 253 12 l 239 -47 q 340 -86 307 -53 q 374 -175 374 -120 z "},"":{"ha":555,"x_min":58,"x_max":467,"o":"m 214 899 q 184 870 197 882 q 160 851 172 859 q 136 841 148 844 q 109 838 123 838 q 72 853 85 838 q 58 895 58 869 q 90 899 75 897 q 128 910 105 901 q 186 940 151 920 q 275 999 220 960 l 345 999 l 345 498 q 349 470 345 481 q 362 454 354 460 q 380 447 370 449 q 403 446 391 446 l 467 446 l 467 399 l 86 399 l 86 446 l 163 446 q 185 447 175 446 q 203 454 195 449 q 215 470 211 460 q 220 498 220 481 l 220 899 l 214 899 z "},"":{"ha":551,"x_min":49,"x_max":503,"o":"m 170 764 q 193 628 170 673 q 277 583 217 583 q 359 628 335 583 q 383 764 383 673 q 358 896 383 852 q 275 940 334 940 q 193 896 217 940 q 170 764 170 852 m 503 764 q 445 586 503 644 q 275 528 387 528 q 109 586 168 528 q 49 764 49 645 q 106 941 49 883 q 278 999 164 999 q 372 984 330 999 q 442 941 413 970 q 487 867 471 911 q 503 764 503 823 z "},"":{"ha":714,"x_min":90,"x_max":624,"o":"m 624 353 l 411 111 l 342 111 l 482 375 l 342 639 l 411 639 l 624 397 l 624 353 m 372 353 l 160 111 l 90 111 l 231 375 l 90 639 l 160 639 l 372 397 l 372 353 z "},"":{"ha":1166,"x_min":14,"x_max":1135,"o":"m 170 899 q 140 870 153 882 q 116 851 127 859 q 92 841 104 844 q 64 838 79 838 q 28 853 41 838 q 14 895 14 869 q 46 899 31 897 q 84 910 61 901 q 142 940 107 920 q 231 999 176 960 l 300 999 l 300 498 q 305 470 300 481 q 318 454 310 460 q 336 447 326 449 q 359 446 347 446 l 422 446 l 422 399 l 42 399 l 42 446 l 119 446 q 141 447 131 446 q 159 454 151 449 q 171 470 167 460 q 176 498 176 481 l 176 899 l 170 899 m 384 0 l 292 0 l 787 991 l 878 991 l 384 0 m 1002 177 l 1002 100 q 1006 72 1002 83 q 1019 56 1011 62 q 1038 49 1027 51 q 1060 47 1048 47 l 1088 47 l 1088 1 l 782 1 l 782 47 l 821 47 q 842 49 832 47 q 860 56 852 51 q 873 72 868 62 q 878 100 878 83 l 878 177 l 631 177 l 631 218 l 890 601 l 1002 601 l 1002 237 l 1135 237 l 1135 177 l 1002 177 m 878 393 q 880 443 878 415 q 885 496 882 471 q 873 473 880 485 q 864 456 867 462 l 713 237 l 878 237 l 878 393 z "},"":{"ha":1166,"x_min":14,"x_max":1116,"o":"m 170 899 q 140 870 153 882 q 116 851 127 859 q 92 841 104 844 q 64 838 79 838 q 28 853 41 838 q 14 895 14 869 q 46 899 31 897 q 84 910 61 901 q 142 940 107 920 q 231 999 176 960 l 300 999 l 300 498 q 305 470 300 481 q 318 454 310 460 q 336 447 326 449 q 359 446 347 446 l 422 446 l 422 399 l 42 399 l 42 446 l 119 446 q 141 447 131 446 q 159 454 151 449 q 171 470 167 460 q 176 498 176 481 l 176 899 l 170 899 m 356 0 l 264 0 l 760 991 l 850 991 l 356 0 m 1099 459 q 1091 398 1099 427 q 1066 341 1084 370 q 1020 282 1048 313 q 947 214 991 252 l 800 88 l 1002 88 q 1046 105 1034 88 q 1063 145 1059 122 l 1068 174 l 1116 174 l 1112 1 l 689 1 l 689 63 l 865 221 q 917 277 896 249 q 950 335 938 306 q 968 392 963 363 q 974 448 974 420 q 969 490 974 471 q 955 524 965 509 q 930 546 945 538 q 892 553 914 553 q 849 544 867 553 q 821 517 831 534 q 805 478 810 500 q 800 433 800 456 q 727 444 753 433 q 700 492 700 456 q 712 539 700 517 q 748 576 724 560 q 808 600 772 591 q 892 609 844 609 q 1044 571 989 609 q 1099 459 1099 532 z "},"":{"ha":1166,"x_min":56,"x_max":1135,"o":"m 241 389 q 103 420 151 389 q 56 503 56 452 q 73 552 56 533 q 119 571 90 571 q 126 528 119 549 q 148 490 134 507 q 185 462 163 473 q 237 452 207 452 q 328 480 295 452 q 361 572 361 508 q 326 650 361 621 q 214 679 290 679 l 168 679 l 168 736 l 214 736 q 262 744 240 736 q 302 768 285 753 q 328 806 319 784 q 338 856 338 828 q 319 926 338 902 q 258 950 301 950 q 214 940 232 950 q 186 914 197 930 q 171 875 176 897 q 167 829 167 853 q 124 832 143 829 q 91 841 104 834 q 71 859 78 848 q 64 889 64 871 q 76 936 64 914 q 114 972 89 957 q 175 997 138 988 q 258 1006 211 1006 q 342 996 304 1006 q 408 969 380 987 q 449 926 435 951 q 464 868 464 901 q 452 813 464 838 q 421 771 441 789 q 376 740 402 753 q 322 718 351 726 l 322 711 q 379 698 350 707 q 432 674 408 690 q 472 634 456 659 q 488 571 488 609 q 465 485 488 520 q 406 429 442 450 q 327 398 370 408 q 241 389 283 389 m 412 0 l 319 0 l 815 991 l 906 991 l 412 0 m 1002 177 l 1002 100 q 1006 72 1002 83 q 1019 56 1011 62 q 1038 49 1027 51 q 1060 47 1048 47 l 1088 47 l 1088 1 l 782 1 l 782 47 l 821 47 q 842 49 832 47 q 860 56 852 51 q 873 72 868 62 q 878 100 878 83 l 878 177 l 631 177 l 631 218 l 890 601 l 1002 601 l 1002 237 l 1135 237 l 1135 177 l 1002 177 m 878 393 q 880 443 878 415 q 885 496 882 471 q 873 473 880 485 q 864 456 867 462 l 713 237 l 878 237 l 878 393 z "},"":{"ha":694,"x_min":71,"x_max":635,"o":"m 340 463 l 425 463 l 425 252 q 324 195 365 227 q 258 125 283 162 q 223 47 233 87 q 212 -36 212 6 q 221 -101 212 -72 q 248 -152 230 -131 q 295 -184 267 -173 q 364 -196 324 -196 q 437 -182 408 -196 q 485 -143 467 -168 q 511 -86 503 -119 q 519 -18 519 -54 q 566 -24 545 -18 q 602 -41 587 -30 q 626 -69 617 -52 q 635 -109 635 -86 q 620 -170 635 -142 q 572 -219 604 -199 q 491 -252 540 -240 q 375 -264 442 -264 q 254 -247 309 -264 q 157 -198 198 -230 q 94 -119 117 -165 q 71 -12 71 -72 q 89 92 71 45 q 141 178 106 139 q 226 248 176 216 q 340 306 276 279 l 340 463 m 472 657 q 465 612 472 630 q 447 583 458 593 q 419 567 435 572 q 385 562 403 562 q 351 567 367 562 q 323 583 335 572 q 304 612 311 593 q 297 657 297 630 q 304 702 297 684 q 323 731 311 720 q 351 747 335 742 q 385 751 367 751 q 419 747 403 751 q 447 731 435 742 q 465 702 458 720 q 472 657 472 684 z "},"":{"ha":979,"x_min":0,"x_max":979,"o":"m 281 332 l 228 186 q 218 154 222 170 q 215 126 215 138 q 238 75 215 91 q 307 58 260 58 l 339 58 l 339 0 l 0 0 l 0 58 l 26 58 q 61 63 47 58 q 87 79 75 67 q 109 113 98 92 q 132 167 119 134 l 440 991 l 549 991 l 863 132 q 879 96 871 111 q 899 74 888 82 q 926 62 911 65 q 961 58 941 58 l 979 58 l 979 0 l 597 0 l 597 58 l 629 58 q 713 125 713 58 q 710 149 713 136 q 701 176 707 161 l 646 332 l 281 332 m 534 644 q 495 760 513 706 q 465 864 477 814 q 454 815 460 839 q 440 768 448 792 q 423 716 433 743 q 401 657 414 690 l 307 401 l 621 401 l 534 644 m 546 1071 l 493 1071 q 433 1118 465 1090 q 370 1176 400 1146 q 314 1233 339 1206 q 276 1279 289 1261 l 276 1293 l 425 1293 q 450 1243 435 1270 q 481 1188 465 1215 q 514 1135 497 1160 q 546 1089 531 1109 l 546 1071 z "},"":{"ha":979,"x_min":0,"x_max":979,"o":"m 281 332 l 228 186 q 218 154 222 170 q 215 126 215 138 q 238 75 215 91 q 307 58 260 58 l 339 58 l 339 0 l 0 0 l 0 58 l 26 58 q 61 63 47 58 q 87 79 75 67 q 109 113 98 92 q 132 167 119 134 l 440 991 l 549 991 l 863 132 q 879 96 871 111 q 899 74 888 82 q 926 62 911 65 q 961 58 941 58 l 979 58 l 979 0 l 597 0 l 597 58 l 629 58 q 713 125 713 58 q 710 149 713 136 q 701 176 707 161 l 646 332 l 281 332 m 534 644 q 495 760 513 706 q 465 864 477 814 q 454 815 460 839 q 440 768 448 792 q 423 716 433 743 q 401 657 414 690 l 307 401 l 621 401 l 534 644 m 432 1089 q 464 1135 448 1109 q 497 1188 481 1160 q 527 1243 513 1215 q 553 1293 542 1270 l 701 1293 l 701 1279 q 663 1233 688 1261 q 608 1176 638 1206 q 545 1118 577 1146 q 485 1071 513 1090 l 432 1071 l 432 1089 z "},"":{"ha":979,"x_min":0,"x_max":979,"o":"m 281 332 l 228 186 q 218 154 222 170 q 215 126 215 138 q 238 75 215 91 q 307 58 260 58 l 339 58 l 339 0 l 0 0 l 0 58 l 26 58 q 61 63 47 58 q 87 79 75 67 q 109 113 98 92 q 132 167 119 134 l 440 991 l 549 991 l 863 132 q 879 96 871 111 q 899 74 888 82 q 926 62 911 65 q 961 58 941 58 l 979 58 l 979 0 l 597 0 l 597 58 l 629 58 q 713 125 713 58 q 710 149 713 136 q 701 176 707 161 l 646 332 l 281 332 m 534 644 q 495 760 513 706 q 465 864 477 814 q 454 815 460 839 q 440 768 448 792 q 423 716 433 743 q 401 657 414 690 l 307 401 l 621 401 l 534 644 m 286 1089 q 322 1135 302 1109 q 361 1188 342 1160 q 397 1243 380 1215 q 425 1293 414 1270 l 557 1293 q 585 1243 568 1270 q 621 1188 602 1215 q 660 1135 640 1160 q 696 1089 680 1109 l 696 1071 l 642 1071 q 562 1128 602 1094 q 490 1196 522 1162 q 419 1128 458 1162 q 340 1071 380 1094 l 286 1071 l 286 1089 z "},"":{"ha":979,"x_min":0,"x_max":979,"o":"m 281 332 l 228 186 q 218 154 222 170 q 215 126 215 138 q 238 75 215 91 q 307 58 260 58 l 339 58 l 339 0 l 0 0 l 0 58 l 26 58 q 61 63 47 58 q 87 79 75 67 q 109 113 98 92 q 132 167 119 134 l 440 991 l 549 991 l 863 132 q 879 96 871 111 q 899 74 888 82 q 926 62 911 65 q 961 58 941 58 l 979 58 l 979 0 l 597 0 l 597 58 l 629 58 q 713 125 713 58 q 710 149 713 136 q 701 176 707 161 l 646 332 l 281 332 m 534 644 q 495 760 513 706 q 465 864 477 814 q 454 815 460 839 q 440 768 448 792 q 423 716 433 743 q 401 657 414 690 l 307 401 l 621 401 l 534 644 m 607 1161 q 640 1167 627 1161 q 660 1184 652 1173 q 670 1207 667 1194 q 675 1235 673 1221 l 737 1235 q 726 1174 735 1203 q 699 1121 717 1144 q 655 1084 682 1098 q 591 1071 629 1071 q 524 1084 554 1071 q 468 1115 494 1098 q 419 1145 441 1131 q 374 1158 396 1158 q 340 1152 353 1158 q 321 1136 328 1146 q 311 1113 314 1126 q 305 1085 307 1099 l 243 1085 q 254 1146 245 1117 q 281 1198 263 1175 q 326 1235 299 1221 q 390 1249 353 1249 q 457 1235 427 1249 q 514 1205 488 1221 q 563 1175 540 1188 q 607 1161 585 1161 z "},"":{"ha":979,"x_min":0,"x_max":979,"o":"m 281 332 l 228 186 q 218 154 222 170 q 215 126 215 138 q 238 75 215 91 q 307 58 260 58 l 339 58 l 339 0 l 0 0 l 0 58 l 26 58 q 61 63 47 58 q 87 79 75 67 q 109 113 98 92 q 132 167 119 134 l 440 991 l 549 991 l 863 132 q 879 96 871 111 q 899 74 888 82 q 926 62 911 65 q 961 58 941 58 l 979 58 l 979 0 l 597 0 l 597 58 l 629 58 q 713 125 713 58 q 710 149 713 136 q 701 176 707 161 l 646 332 l 281 332 m 534 644 q 495 760 513 706 q 465 864 477 814 q 454 815 460 839 q 440 768 448 792 q 423 716 433 743 q 401 657 414 690 l 307 401 l 621 401 l 534 644 m 288 1185 q 293 1221 288 1206 q 308 1245 298 1236 q 330 1259 317 1255 q 358 1263 343 1263 q 386 1259 373 1263 q 409 1245 399 1255 q 424 1221 418 1236 q 429 1185 429 1206 q 424 1149 429 1164 q 409 1124 418 1134 q 386 1111 399 1115 q 358 1107 373 1107 q 308 1124 328 1107 q 288 1185 288 1142 m 551 1185 q 557 1221 551 1206 q 572 1245 562 1236 q 594 1259 581 1255 q 622 1263 607 1263 q 650 1259 637 1263 q 672 1245 663 1255 q 688 1221 682 1236 q 693 1185 693 1206 q 688 1149 693 1164 q 672 1124 682 1134 q 650 1111 663 1115 q 622 1107 637 1107 q 571 1124 591 1107 q 551 1185 551 1142 z "},"":{"ha":979,"x_min":0,"x_max":979,"o":"m 281 332 l 228 186 q 218 154 222 170 q 215 126 215 138 q 238 75 215 91 q 307 58 260 58 l 339 58 l 339 0 l 0 0 l 0 58 l 26 58 q 61 63 47 58 q 87 79 75 67 q 109 113 98 92 q 132 167 119 134 l 440 991 l 549 991 l 863 132 q 879 96 871 111 q 899 74 888 82 q 926 62 911 65 q 961 58 941 58 l 979 58 l 979 0 l 597 0 l 597 58 l 629 58 q 713 125 713 58 q 710 149 713 136 q 701 176 707 161 l 646 332 l 281 332 m 534 644 q 495 760 513 706 q 465 864 477 814 q 454 815 460 839 q 440 768 448 792 q 423 716 433 743 q 401 657 414 690 l 307 401 l 621 401 l 534 644 m 659 1075 q 646 1009 659 1038 q 610 962 633 981 q 557 933 587 943 q 492 924 526 924 q 427 933 457 924 q 373 962 396 943 q 338 1009 351 981 q 325 1075 325 1038 q 338 1140 325 1112 q 373 1187 351 1168 q 427 1216 396 1206 q 492 1226 457 1226 q 557 1216 526 1226 q 610 1187 587 1206 q 646 1140 633 1168 q 659 1075 659 1112 m 583 1075 q 576 1113 583 1097 q 556 1139 569 1129 q 527 1154 544 1149 q 492 1158 511 1158 q 456 1154 473 1158 q 427 1139 439 1149 q 407 1113 414 1129 q 400 1075 400 1097 q 407 1037 400 1053 q 427 1011 414 1021 q 456 996 439 1001 q 492 991 473 991 q 527 996 511 991 q 556 1011 544 1001 q 576 1037 569 1021 q 583 1075 583 1053 z "},"":{"ha":1321,"x_min":0,"x_max":1263,"o":"m 781 69 l 1048 69 q 1104 78 1081 69 q 1143 103 1128 87 q 1168 139 1159 119 q 1181 183 1177 160 l 1190 243 l 1263 243 l 1253 0 l 509 0 l 509 58 l 526 58 q 570 61 549 58 q 605 74 590 64 q 630 102 621 83 q 640 151 640 121 l 640 332 l 321 332 l 244 186 q 228 144 233 164 q 222 113 222 125 q 244 71 222 84 q 306 58 265 58 l 338 58 l 338 0 l 0 0 l 0 58 l 22 58 q 88 84 59 58 q 146 167 117 110 l 547 926 l 439 933 l 439 991 l 1208 991 l 1215 749 l 1143 749 l 1136 808 q 1126 852 1133 831 q 1104 887 1118 872 q 1067 912 1089 903 q 1014 922 1045 922 l 781 922 l 781 553 l 1116 553 l 1116 485 l 781 485 l 781 69 m 621 922 q 576 828 604 884 q 513 704 548 772 q 438 558 478 635 q 357 401 398 481 l 640 401 l 640 922 l 621 922 z "},"":{"ha":852,"x_min":79,"x_max":806,"o":"m 525 1006 q 649 994 596 1006 q 736 961 701 982 q 788 911 771 940 q 806 850 806 883 q 797 809 806 827 q 771 779 787 791 q 733 760 755 766 q 685 753 711 753 q 676 817 685 785 q 649 874 668 849 q 598 916 629 900 q 522 932 568 932 q 389 903 444 932 q 299 819 334 874 q 249 683 264 764 q 233 497 233 602 q 250 327 233 404 q 301 194 266 250 q 391 109 336 139 q 522 78 446 78 q 612 88 573 78 q 681 114 651 98 q 733 152 711 130 q 774 196 756 173 q 793 176 785 189 q 800 142 800 163 q 782 88 800 115 q 728 38 764 60 q 635 1 691 16 q 501 -14 578 -14 q 319 23 397 -14 q 187 127 240 60 q 106 288 134 194 q 79 497 79 382 q 108 703 79 610 q 192 864 136 797 q 332 968 248 931 q 525 1006 415 1006 m 639 -175 q 592 -291 639 -249 q 456 -334 545 -334 q 431 -333 445 -334 q 404 -330 418 -332 q 375 -325 389 -328 q 349 -318 361 -321 l 349 -248 q 399 -256 374 -253 q 443 -258 424 -258 q 505 -237 483 -258 q 528 -180 528 -216 q 498 -119 528 -140 q 423 -96 469 -99 l 452 12 l 518 12 l 504 -47 q 605 -86 572 -53 q 639 -175 639 -120 z "},"":{"ha":865,"x_min":53,"x_max":807,"o":"m 325 69 l 593 69 q 649 78 626 69 q 688 103 673 87 q 713 139 704 119 q 725 183 722 160 l 734 243 l 807 243 l 798 0 l 53 0 l 53 58 l 71 58 q 114 61 94 58 q 151 74 135 64 q 175 102 166 83 q 184 151 184 121 l 184 833 q 176 886 184 866 q 151 916 167 905 q 115 930 136 926 q 71 933 94 933 l 53 933 l 53 991 l 753 991 l 760 749 l 688 749 l 681 808 q 670 852 678 831 q 648 888 663 873 q 611 913 633 904 q 558 922 589 922 l 325 922 l 325 553 l 660 553 l 660 485 l 325 485 l 325 69 m 504 1071 l 451 1071 q 391 1118 423 1090 q 328 1176 358 1146 q 272 1233 297 1206 q 234 1279 247 1261 l 234 1293 l 382 1293 q 408 1243 393 1270 q 439 1188 422 1215 q 472 1135 455 1160 q 504 1089 489 1109 l 504 1071 z "},"":{"ha":865,"x_min":53,"x_max":807,"o":"m 325 69 l 593 69 q 649 78 626 69 q 688 103 673 87 q 713 139 704 119 q 725 183 722 160 l 734 243 l 807 243 l 798 0 l 53 0 l 53 58 l 71 58 q 114 61 94 58 q 151 74 135 64 q 175 102 166 83 q 184 151 184 121 l 184 833 q 176 886 184 866 q 151 916 167 905 q 115 930 136 926 q 71 933 94 933 l 53 933 l 53 991 l 753 991 l 760 749 l 688 749 l 681 808 q 670 852 678 831 q 648 888 663 873 q 611 913 633 904 q 558 922 589 922 l 325 922 l 325 553 l 660 553 l 660 485 l 325 485 l 325 69 m 370 1089 q 402 1135 385 1109 q 434 1188 418 1160 q 465 1243 450 1215 q 490 1293 479 1270 l 639 1293 l 639 1279 q 601 1233 626 1261 q 545 1176 576 1206 q 483 1118 515 1146 q 422 1071 450 1090 l 370 1071 l 370 1089 z "},"":{"ha":865,"x_min":53,"x_max":807,"o":"m 325 69 l 593 69 q 649 78 626 69 q 688 103 673 87 q 713 139 704 119 q 725 183 722 160 l 734 243 l 807 243 l 798 0 l 53 0 l 53 58 l 71 58 q 114 61 94 58 q 151 74 135 64 q 175 102 166 83 q 184 151 184 121 l 184 833 q 176 886 184 866 q 151 916 167 905 q 115 930 136 926 q 71 933 94 933 l 53 933 l 53 991 l 753 991 l 760 749 l 688 749 l 681 808 q 670 852 678 831 q 648 888 663 873 q 611 913 633 904 q 558 922 589 922 l 325 922 l 325 553 l 660 553 l 660 485 l 325 485 l 325 69 m 237 1089 q 273 1135 254 1109 q 312 1188 293 1160 q 349 1243 332 1215 q 376 1293 366 1270 l 508 1293 q 536 1243 519 1270 q 572 1188 553 1215 q 611 1135 591 1160 q 647 1089 631 1109 l 647 1071 l 593 1071 q 513 1128 553 1094 q 441 1196 473 1162 q 370 1128 410 1162 q 292 1071 331 1094 l 237 1071 l 237 1089 z "},"":{"ha":865,"x_min":53,"x_max":807,"o":"m 325 69 l 593 69 q 649 78 626 69 q 688 103 673 87 q 713 139 704 119 q 725 183 722 160 l 734 243 l 807 243 l 798 0 l 53 0 l 53 58 l 71 58 q 114 61 94 58 q 151 74 135 64 q 175 102 166 83 q 184 151 184 121 l 184 833 q 176 886 184 866 q 151 916 167 905 q 115 930 136 926 q 71 933 94 933 l 53 933 l 53 991 l 753 991 l 760 749 l 688 749 l 681 808 q 670 852 678 831 q 648 888 663 873 q 611 913 633 904 q 558 922 589 922 l 325 922 l 325 553 l 660 553 l 660 485 l 325 485 l 325 69 m 232 1185 q 237 1221 232 1206 q 252 1245 243 1236 q 275 1259 262 1255 q 302 1263 288 1263 q 330 1259 317 1263 q 353 1245 343 1255 q 368 1221 363 1236 q 374 1185 374 1206 q 368 1149 374 1164 q 353 1124 363 1134 q 330 1111 343 1115 q 302 1107 317 1107 q 252 1124 272 1107 q 232 1185 232 1142 m 496 1185 q 501 1221 496 1206 q 516 1245 507 1236 q 538 1259 526 1255 q 566 1263 551 1263 q 594 1259 581 1263 q 617 1245 607 1255 q 632 1221 627 1236 q 637 1185 637 1206 q 632 1149 637 1164 q 617 1124 627 1134 q 594 1111 607 1115 q 566 1107 581 1107 q 516 1124 536 1107 q 496 1185 496 1142 z "},"":{"ha":510,"x_min":51,"x_max":457,"o":"m 53 0 l 53 58 l 71 58 q 115 62 94 58 q 151 76 136 65 q 176 106 167 86 q 184 158 184 125 l 184 833 q 176 886 184 866 q 151 916 167 905 q 115 930 136 926 q 71 933 94 933 l 53 933 l 53 991 l 457 991 l 457 933 l 439 933 q 395 930 416 933 q 358 916 374 926 q 334 886 343 905 q 325 833 325 866 l 325 158 q 334 106 325 125 q 358 76 343 86 q 395 62 374 65 q 439 58 416 58 l 457 58 l 457 0 l 53 0 m 321 1071 l 268 1071 q 208 1118 240 1090 q 144 1176 175 1146 q 89 1233 114 1206 q 51 1279 64 1261 l 51 1293 l 199 1293 q 225 1243 210 1270 q 256 1188 239 1215 q 289 1135 272 1160 q 321 1089 306 1109 l 321 1071 z "},"":{"ha":510,"x_min":53,"x_max":457,"o":"m 53 0 l 53 58 l 71 58 q 115 62 94 58 q 151 76 136 65 q 176 106 167 86 q 184 158 184 125 l 184 833 q 176 886 184 866 q 151 916 167 905 q 115 930 136 926 q 71 933 94 933 l 53 933 l 53 991 l 457 991 l 457 933 l 439 933 q 395 930 416 933 q 358 916 374 926 q 334 886 343 905 q 325 833 325 866 l 325 158 q 334 106 325 125 q 358 76 343 86 q 395 62 374 65 q 439 58 416 58 l 457 58 l 457 0 l 53 0 m 184 1089 q 216 1135 199 1109 q 249 1188 233 1160 q 279 1243 264 1215 q 304 1293 294 1270 l 453 1293 l 453 1279 q 415 1233 440 1261 q 359 1176 390 1206 q 297 1118 329 1146 q 237 1071 264 1090 l 184 1071 l 184 1089 z "},"":{"ha":510,"x_min":50,"x_max":459,"o":"m 53 0 l 53 58 l 71 58 q 115 62 94 58 q 151 76 136 65 q 176 106 167 86 q 184 158 184 125 l 184 833 q 176 886 184 866 q 151 916 167 905 q 115 930 136 926 q 71 933 94 933 l 53 933 l 53 991 l 457 991 l 457 933 l 439 933 q 395 930 416 933 q 358 916 374 926 q 334 886 343 905 q 325 833 325 866 l 325 158 q 334 106 325 125 q 358 76 343 86 q 395 62 374 65 q 439 58 416 58 l 457 58 l 457 0 l 53 0 m 50 1089 q 85 1135 66 1109 q 124 1188 105 1160 q 161 1243 144 1215 q 189 1293 178 1270 l 320 1293 q 348 1243 331 1270 q 384 1188 365 1215 q 423 1135 404 1160 q 459 1089 443 1109 l 459 1071 l 405 1071 q 325 1128 365 1094 q 254 1196 285 1162 q 182 1128 222 1162 q 104 1071 143 1094 l 50 1071 l 50 1089 z "},"":{"ha":510,"x_min":50,"x_max":457,"o":"m 53 0 l 53 58 l 71 58 q 115 62 94 58 q 151 76 136 65 q 176 106 167 86 q 184 158 184 125 l 184 833 q 176 886 184 866 q 151 916 167 905 q 115 930 136 926 q 71 933 94 933 l 53 933 l 53 991 l 457 991 l 457 933 l 439 933 q 395 930 416 933 q 358 916 374 926 q 334 886 343 905 q 325 833 325 866 l 325 158 q 334 106 325 125 q 358 76 343 86 q 395 62 374 65 q 439 58 416 58 l 457 58 l 457 0 l 53 0 m 50 1185 q 55 1221 50 1206 q 70 1245 60 1236 q 92 1259 79 1255 q 120 1263 105 1263 q 148 1259 135 1263 q 171 1245 161 1255 q 186 1221 180 1236 q 191 1185 191 1206 q 186 1149 191 1164 q 171 1124 180 1134 q 148 1111 161 1115 q 120 1107 135 1107 q 70 1124 90 1107 q 50 1185 50 1142 m 313 1185 q 319 1221 313 1206 q 334 1245 324 1236 q 356 1259 343 1255 q 384 1263 369 1263 q 412 1259 399 1263 q 434 1245 425 1255 q 450 1221 444 1236 q 455 1185 455 1206 q 450 1149 455 1164 q 434 1124 444 1134 q 412 1111 425 1115 q 384 1107 399 1107 q 333 1124 353 1107 q 313 1185 313 1142 z "},"":{"ha":1010,"x_min":53,"x_max":930,"o":"m 53 553 l 184 553 l 184 839 q 175 888 184 869 q 151 917 166 907 q 114 930 135 927 q 71 933 94 933 l 53 933 l 53 991 l 478 991 q 669 959 585 991 q 811 863 753 926 q 900 707 869 800 q 930 497 930 615 q 902 291 930 383 q 817 135 873 199 q 676 35 761 70 q 478 0 591 0 l 53 0 l 53 58 l 71 58 q 115 62 94 58 q 151 76 136 65 q 176 106 167 86 q 184 158 184 125 l 184 485 l 53 485 l 53 553 m 446 71 q 590 99 528 71 q 694 181 652 127 q 756 315 735 235 q 777 497 777 394 q 756 680 777 600 q 694 813 735 759 q 591 895 653 867 q 447 922 529 922 l 325 922 l 325 553 l 561 553 l 561 485 l 325 485 l 325 71 l 446 71 z "},"":{"ha":1060,"x_min":53,"x_max":1021,"o":"m 790 0 l 269 800 l 269 158 q 278 106 269 125 q 303 76 288 86 q 339 62 318 65 q 383 58 360 58 l 401 58 l 401 0 l 53 0 l 53 58 l 71 58 q 115 62 94 58 q 151 76 136 65 q 176 106 167 86 q 184 158 184 125 l 184 839 q 175 888 184 869 q 151 917 166 907 q 114 930 135 927 q 71 933 94 933 l 53 933 l 53 991 l 307 991 l 804 224 l 804 839 q 795 888 804 869 q 770 917 786 907 q 734 930 755 927 q 690 933 713 933 l 672 933 l 672 991 l 1021 991 l 1021 933 l 1003 933 q 959 930 979 933 q 922 916 938 926 q 898 886 907 905 q 889 833 889 866 l 889 0 l 790 0 m 664 1161 q 697 1167 684 1161 q 716 1184 709 1173 q 727 1207 724 1194 q 732 1235 730 1221 l 794 1235 q 783 1174 792 1203 q 756 1121 774 1144 q 712 1084 739 1098 q 648 1071 686 1071 q 581 1084 611 1071 q 525 1115 551 1098 q 476 1145 498 1131 q 431 1158 453 1158 q 397 1152 410 1158 q 378 1136 385 1146 q 368 1113 371 1126 q 362 1085 364 1099 l 300 1085 q 311 1146 302 1117 q 338 1198 320 1175 q 383 1235 356 1221 q 447 1249 410 1249 q 514 1235 484 1249 q 571 1205 545 1221 q 620 1175 597 1188 q 664 1161 642 1161 z "},"":{"ha":1031,"x_min":78,"x_max":951,"o":"m 951 497 q 923 288 951 382 q 839 127 895 194 q 702 23 783 60 q 515 -14 621 -14 q 323 23 405 -14 q 186 127 241 60 q 105 289 132 194 q 78 498 78 383 q 105 708 78 614 q 186 868 132 802 q 323 971 241 935 q 517 1007 406 1007 q 703 971 622 1007 q 839 868 783 935 q 923 707 895 801 q 951 497 951 613 m 232 497 q 247 313 232 394 q 296 176 262 232 q 384 91 330 120 q 515 61 438 61 q 647 91 593 61 q 734 176 701 120 q 783 313 768 232 q 798 497 798 394 q 783 681 798 600 q 734 818 768 762 q 647 903 701 873 q 517 932 594 932 q 385 903 439 932 q 297 818 331 873 q 247 681 262 762 q 232 497 232 600 m 584 1071 l 531 1071 q 471 1118 503 1090 q 408 1176 438 1146 q 352 1233 377 1206 q 314 1279 327 1261 l 314 1293 l 463 1293 q 488 1243 473 1270 q 519 1188 503 1215 q 552 1135 535 1160 q 584 1089 569 1109 l 584 1071 z "},"":{"ha":1031,"x_min":78,"x_max":951,"o":"m 951 497 q 923 288 951 382 q 839 127 895 194 q 702 23 783 60 q 515 -14 621 -14 q 323 23 405 -14 q 186 127 241 60 q 105 289 132 194 q 78 498 78 383 q 105 708 78 614 q 186 868 132 802 q 323 971 241 935 q 517 1007 406 1007 q 703 971 622 1007 q 839 868 783 935 q 923 707 895 801 q 951 497 951 613 m 232 497 q 247 313 232 394 q 296 176 262 232 q 384 91 330 120 q 515 61 438 61 q 647 91 593 61 q 734 176 701 120 q 783 313 768 232 q 798 497 798 394 q 783 681 798 600 q 734 818 768 762 q 647 903 701 873 q 517 932 594 932 q 385 903 439 932 q 297 818 331 873 q 247 681 262 762 q 232 497 232 600 m 440 1089 q 472 1135 456 1109 q 505 1188 489 1160 q 535 1243 521 1215 q 561 1293 550 1270 l 709 1293 l 709 1279 q 671 1233 696 1261 q 616 1176 646 1206 q 553 1118 585 1146 q 493 1071 521 1090 l 440 1071 l 440 1089 z "},"":{"ha":1031,"x_min":78,"x_max":951,"o":"m 951 497 q 923 288 951 382 q 839 127 895 194 q 702 23 783 60 q 515 -14 621 -14 q 323 23 405 -14 q 186 127 241 60 q 105 289 132 194 q 78 498 78 383 q 105 708 78 614 q 186 868 132 802 q 323 971 241 935 q 517 1007 406 1007 q 703 971 622 1007 q 839 868 783 935 q 923 707 895 801 q 951 497 951 613 m 232 497 q 247 313 232 394 q 296 176 262 232 q 384 91 330 120 q 515 61 438 61 q 647 91 593 61 q 734 176 701 120 q 783 313 768 232 q 798 497 798 394 q 783 681 798 600 q 734 818 768 762 q 647 903 701 873 q 517 932 594 932 q 385 903 439 932 q 297 818 331 873 q 247 681 262 762 q 232 497 232 600 m 311 1089 q 347 1135 328 1109 q 386 1188 367 1160 q 422 1243 406 1215 q 450 1293 439 1270 l 582 1293 q 610 1243 593 1270 q 646 1188 627 1215 q 685 1135 665 1160 q 721 1089 705 1109 l 721 1071 l 667 1071 q 587 1128 627 1094 q 515 1196 547 1162 q 444 1128 484 1162 q 366 1071 405 1094 l 311 1071 l 311 1089 z "},"":{"ha":1031,"x_min":78,"x_max":951,"o":"m 951 497 q 923 288 951 382 q 839 127 895 194 q 702 23 783 60 q 515 -14 621 -14 q 323 23 405 -14 q 186 127 241 60 q 105 289 132 194 q 78 498 78 383 q 105 708 78 614 q 186 868 132 802 q 323 971 241 935 q 517 1007 406 1007 q 703 971 622 1007 q 839 868 783 935 q 923 707 895 801 q 951 497 951 613 m 232 497 q 247 313 232 394 q 296 176 262 232 q 384 91 330 120 q 515 61 438 61 q 647 91 593 61 q 734 176 701 120 q 783 313 768 232 q 798 497 798 394 q 783 681 798 600 q 734 818 768 762 q 647 903 701 873 q 517 932 594 932 q 385 903 439 932 q 297 818 331 873 q 247 681 262 762 q 232 497 232 600 m 623 1161 q 655 1167 643 1161 q 675 1184 668 1173 q 685 1207 682 1194 q 690 1235 688 1221 l 753 1235 q 742 1174 751 1203 q 715 1121 732 1144 q 671 1084 697 1098 q 607 1071 644 1071 q 539 1084 570 1071 q 483 1115 509 1098 q 434 1145 457 1131 q 389 1158 412 1158 q 356 1152 368 1158 q 337 1136 344 1146 q 326 1113 330 1126 q 321 1085 323 1099 l 258 1085 q 270 1146 260 1117 q 297 1198 279 1175 q 341 1235 315 1221 q 406 1249 368 1249 q 473 1235 443 1249 q 529 1205 503 1221 q 578 1175 555 1188 q 623 1161 601 1161 z "},"":{"ha":1031,"x_min":78,"x_max":951,"o":"m 951 497 q 923 288 951 382 q 839 127 895 194 q 702 23 783 60 q 515 -14 621 -14 q 323 23 405 -14 q 186 127 241 60 q 105 289 132 194 q 78 498 78 383 q 105 708 78 614 q 186 868 132 802 q 323 971 241 935 q 517 1007 406 1007 q 703 971 622 1007 q 839 868 783 935 q 923 707 895 801 q 951 497 951 613 m 232 497 q 247 313 232 394 q 296 176 262 232 q 384 91 330 120 q 515 61 438 61 q 647 91 593 61 q 734 176 701 120 q 783 313 768 232 q 798 497 798 394 q 783 681 798 600 q 734 818 768 762 q 647 903 701 873 q 517 932 594 932 q 385 903 439 932 q 297 818 331 873 q 247 681 262 762 q 232 497 232 600 m 309 1185 q 314 1221 309 1206 q 329 1245 319 1236 q 351 1259 338 1255 q 379 1263 364 1263 q 407 1259 394 1263 q 430 1245 420 1255 q 445 1221 439 1236 q 450 1185 450 1206 q 445 1149 450 1164 q 430 1124 439 1134 q 407 1111 420 1115 q 379 1107 394 1107 q 329 1124 349 1107 q 309 1185 309 1142 m 572 1185 q 578 1221 572 1206 q 593 1245 583 1236 q 615 1259 602 1255 q 643 1263 628 1263 q 671 1259 658 1263 q 693 1245 684 1255 q 709 1221 703 1236 q 714 1185 714 1206 q 709 1149 714 1164 q 693 1124 703 1134 q 671 1111 684 1115 q 643 1107 658 1107 q 592 1124 612 1107 q 572 1185 572 1142 z "},"":{"ha":777,"x_min":98,"x_max":676,"o":"m 387 439 l 157 208 l 98 268 l 329 498 l 98 728 l 157 786 l 387 555 l 618 787 l 676 728 l 446 497 l 676 267 l 618 208 l 387 439 z "},"":{"ha":1031,"x_min":78,"x_max":951,"o":"m 789 918 q 910 745 869 852 q 951 497 951 638 q 923 288 951 382 q 839 127 895 194 q 702 23 783 60 q 515 -14 621 -14 q 398 -2 452 -14 q 300 33 345 10 l 252 -56 l 170 -56 l 240 72 q 118 247 158 138 q 78 498 78 356 q 105 708 78 614 q 186 868 132 802 q 323 971 241 935 q 517 1007 406 1007 q 631 994 578 1007 q 729 957 684 981 l 781 1048 l 861 1048 l 789 918 m 232 497 q 247 312 232 392 q 297 175 262 232 l 685 876 q 517 932 621 932 q 385 903 439 932 q 297 818 331 873 q 247 681 262 762 q 232 497 232 600 m 798 497 q 782 681 798 601 q 733 818 767 762 l 346 115 q 515 61 410 61 q 647 91 593 61 q 734 176 701 120 q 783 313 768 232 q 798 497 798 394 z "},"":{"ha":996,"x_min":21,"x_max":975,"o":"m 503 -14 q 355 4 420 -14 q 245 59 290 21 q 176 156 200 96 q 153 300 153 215 l 153 839 q 143 888 153 869 q 119 917 134 907 q 82 930 103 927 q 39 933 62 933 l 21 933 l 21 991 l 425 991 l 425 933 l 407 933 q 363 930 384 933 q 327 916 342 926 q 302 886 311 905 q 293 833 293 866 l 293 292 q 310 189 293 231 q 358 120 328 146 q 432 81 389 94 q 525 69 474 69 q 629 85 585 69 q 702 131 673 102 q 744 199 730 159 q 758 286 758 239 l 758 839 q 749 888 758 869 q 724 917 740 907 q 688 930 709 927 q 644 933 667 933 l 627 933 l 627 991 l 975 991 l 975 933 l 957 933 q 913 930 934 933 q 877 916 892 926 q 852 886 861 905 q 843 833 843 866 l 843 283 q 821 159 843 214 q 756 65 799 104 q 649 7 713 27 q 503 -14 585 -14 m 578 1071 l 525 1071 q 465 1118 497 1090 q 401 1176 432 1146 q 346 1233 371 1206 q 308 1279 321 1261 l 308 1293 l 456 1293 q 482 1243 467 1270 q 513 1188 496 1215 q 546 1135 529 1160 q 578 1089 563 1109 l 578 1071 z "},"":{"ha":996,"x_min":21,"x_max":975,"o":"m 503 -14 q 355 4 420 -14 q 245 59 290 21 q 176 156 200 96 q 153 300 153 215 l 153 839 q 143 888 153 869 q 119 917 134 907 q 82 930 103 927 q 39 933 62 933 l 21 933 l 21 991 l 425 991 l 425 933 l 407 933 q 363 930 384 933 q 327 916 342 926 q 302 886 311 905 q 293 833 293 866 l 293 292 q 310 189 293 231 q 358 120 328 146 q 432 81 389 94 q 525 69 474 69 q 629 85 585 69 q 702 131 673 102 q 744 199 730 159 q 758 286 758 239 l 758 839 q 749 888 758 869 q 724 917 740 907 q 688 930 709 927 q 644 933 667 933 l 627 933 l 627 991 l 975 991 l 975 933 l 957 933 q 913 930 934 933 q 877 916 892 926 q 852 886 861 905 q 843 833 843 866 l 843 283 q 821 159 843 214 q 756 65 799 104 q 649 7 713 27 q 503 -14 585 -14 m 440 1089 q 472 1135 456 1109 q 505 1188 489 1160 q 535 1243 521 1215 q 561 1293 550 1270 l 709 1293 l 709 1279 q 671 1233 696 1261 q 616 1176 646 1206 q 553 1118 585 1146 q 493 1071 521 1090 l 440 1071 l 440 1089 z "},"":{"ha":996,"x_min":21,"x_max":975,"o":"m 503 -14 q 355 4 420 -14 q 245 59 290 21 q 176 156 200 96 q 153 300 153 215 l 153 839 q 143 888 153 869 q 119 917 134 907 q 82 930 103 927 q 39 933 62 933 l 21 933 l 21 991 l 425 991 l 425 933 l 407 933 q 363 930 384 933 q 327 916 342 926 q 302 886 311 905 q 293 833 293 866 l 293 292 q 310 189 293 231 q 358 120 328 146 q 432 81 389 94 q 525 69 474 69 q 629 85 585 69 q 702 131 673 102 q 744 199 730 159 q 758 286 758 239 l 758 839 q 749 888 758 869 q 724 917 740 907 q 688 930 709 927 q 644 933 667 933 l 627 933 l 627 991 l 975 991 l 975 933 l 957 933 q 913 930 934 933 q 877 916 892 926 q 852 886 861 905 q 843 833 843 866 l 843 283 q 821 159 843 214 q 756 65 799 104 q 649 7 713 27 q 503 -14 585 -14 m 319 1089 q 355 1135 336 1109 q 394 1188 375 1160 q 431 1243 414 1215 q 458 1293 448 1270 l 590 1293 q 618 1243 601 1270 q 654 1188 635 1215 q 693 1135 673 1160 q 729 1089 713 1109 l 729 1071 l 675 1071 q 595 1128 635 1094 q 524 1196 555 1162 q 452 1128 492 1162 q 374 1071 413 1094 l 319 1071 l 319 1089 z "},"":{"ha":996,"x_min":21,"x_max":975,"o":"m 503 -14 q 355 4 420 -14 q 245 59 290 21 q 176 156 200 96 q 153 300 153 215 l 153 839 q 143 888 153 869 q 119 917 134 907 q 82 930 103 927 q 39 933 62 933 l 21 933 l 21 991 l 425 991 l 425 933 l 407 933 q 363 930 384 933 q 327 916 342 926 q 302 886 311 905 q 293 833 293 866 l 293 292 q 310 189 293 231 q 358 120 328 146 q 432 81 389 94 q 525 69 474 69 q 629 85 585 69 q 702 131 673 102 q 744 199 730 159 q 758 286 758 239 l 758 839 q 749 888 758 869 q 724 917 740 907 q 688 930 709 927 q 644 933 667 933 l 627 933 l 627 991 l 975 991 l 975 933 l 957 933 q 913 930 934 933 q 877 916 892 926 q 852 886 861 905 q 843 833 843 866 l 843 283 q 821 159 843 214 q 756 65 799 104 q 649 7 713 27 q 503 -14 585 -14 m 323 1185 q 329 1221 323 1206 q 344 1245 334 1236 q 366 1259 353 1255 q 394 1263 379 1263 q 422 1259 409 1263 q 445 1245 435 1255 q 460 1221 454 1236 q 465 1185 465 1206 q 460 1149 465 1164 q 445 1124 454 1134 q 422 1111 435 1115 q 394 1107 409 1107 q 343 1124 363 1107 q 323 1185 323 1142 m 587 1185 q 593 1221 587 1206 q 608 1245 598 1236 q 630 1259 617 1255 q 658 1263 643 1263 q 686 1259 673 1263 q 708 1245 699 1255 q 724 1221 718 1236 q 729 1185 729 1206 q 724 1149 729 1164 q 708 1124 718 1134 q 686 1111 699 1115 q 658 1107 673 1107 q 607 1124 627 1107 q 587 1185 587 1142 z "},"":{"ha":868,"x_min":-7,"x_max":872,"o":"m 221 0 l 221 58 l 253 58 q 297 61 276 58 q 333 74 317 64 q 358 102 349 83 q 367 151 367 121 l 367 414 l 110 860 q 88 893 98 880 q 67 916 78 907 q 42 929 56 925 q 11 933 28 933 l -7 933 l -7 991 l 375 991 l 375 933 l 323 933 q 293 930 304 933 q 274 920 281 926 q 265 906 267 914 q 262 889 262 898 q 271 850 262 869 q 288 815 279 830 l 390 629 q 431 545 414 587 q 460 471 448 503 q 475 504 466 486 q 495 543 484 522 q 519 586 507 564 q 543 629 531 608 l 632 789 q 651 834 646 812 q 657 872 657 855 q 635 918 657 903 q 574 933 614 933 l 533 933 l 533 991 l 872 991 l 872 933 l 856 933 q 828 928 841 933 q 801 910 814 923 q 773 877 787 898 q 741 825 758 857 l 507 414 l 507 158 q 516 106 507 125 q 541 76 525 86 q 577 62 556 65 q 621 58 597 58 l 653 58 l 653 0 l 221 0 m 385 1089 q 417 1135 400 1109 q 449 1188 433 1160 q 480 1243 465 1215 q 505 1293 494 1270 l 654 1293 l 654 1279 q 616 1233 641 1261 q 560 1176 591 1206 q 497 1118 530 1146 q 437 1071 465 1090 l 385 1071 l 385 1089 z "},"":{"ha":839,"x_min":53,"x_max":785,"o":"m 53 0 l 53 58 l 71 58 q 115 62 94 58 q 151 76 136 65 q 176 106 167 86 q 184 158 184 125 l 184 833 q 176 886 184 866 q 151 916 167 905 q 115 930 136 926 q 71 933 94 933 l 53 933 l 53 991 l 471 991 l 471 933 l 439 933 q 395 930 416 933 q 358 916 374 926 q 334 886 343 905 q 325 833 325 866 l 325 791 l 443 791 q 701 721 618 791 q 785 515 785 651 q 765 399 785 454 q 702 302 746 344 q 587 237 658 261 q 412 214 515 214 l 325 214 l 325 158 q 334 106 325 125 q 358 76 343 86 q 395 62 374 65 q 439 58 416 58 l 471 58 l 471 0 l 53 0 m 325 279 l 399 279 q 507 291 462 279 q 580 329 551 302 q 622 400 608 355 q 635 510 635 444 q 623 609 635 568 q 586 675 612 650 q 519 713 560 701 q 419 725 478 725 l 325 725 l 325 279 z "},"":{"ha":899,"x_min":32,"x_max":838,"o":"m 602 53 q 685 84 652 53 q 718 179 718 115 q 713 222 718 202 q 693 260 708 241 q 652 296 678 278 q 583 335 625 315 q 507 378 540 357 q 451 425 473 399 q 418 483 429 450 q 407 559 407 515 q 421 636 407 602 q 463 695 435 671 q 534 734 491 720 q 636 747 577 747 q 627 860 636 813 q 596 938 617 907 q 542 983 575 968 q 463 997 509 997 q 389 983 420 997 q 336 945 357 970 q 305 885 315 920 q 294 806 294 850 l 294 0 l 32 0 l 32 58 l 50 58 q 95 62 74 58 q 131 76 115 65 q 155 106 146 86 q 164 158 164 125 l 164 679 l 52 679 l 52 745 l 164 745 l 164 786 q 187 915 164 863 q 251 999 210 967 q 346 1046 291 1031 q 464 1060 400 1060 q 608 1035 551 1060 q 701 963 666 1010 q 751 844 736 915 q 766 682 766 774 l 665 682 q 557 654 591 682 q 522 570 522 626 q 529 531 522 549 q 553 498 536 514 q 597 466 570 482 q 667 431 625 450 q 752 380 719 407 q 804 324 785 353 q 830 264 823 295 q 838 203 838 234 q 821 109 838 150 q 775 41 805 68 q 701 0 745 14 q 603 -14 658 -14 q 514 -4 554 -14 q 446 23 474 5 q 401 70 417 42 q 386 134 386 97 q 394 180 386 161 q 414 210 402 199 q 440 225 427 220 q 465 229 454 229 q 472 161 465 193 q 495 105 479 129 q 537 67 511 81 q 602 53 564 53 z "},"":{"ha":782,"x_min":69,"x_max":722,"o":"m 204 201 q 232 104 204 136 q 317 72 259 72 q 393 85 359 72 q 451 124 427 99 q 488 185 475 149 q 501 265 501 221 l 501 378 l 412 374 q 314 359 353 371 q 250 326 274 347 q 215 273 225 304 q 204 201 204 242 m 372 689 q 308 678 332 689 q 269 646 283 667 q 250 598 255 626 q 245 538 245 570 q 158 557 188 538 q 127 625 127 577 q 147 686 127 661 q 201 727 167 711 q 281 751 235 743 q 378 758 326 758 q 489 746 441 758 q 568 705 536 733 q 616 630 600 676 q 632 518 632 585 l 632 158 q 637 110 632 129 q 652 79 642 91 q 679 63 662 68 q 718 58 695 58 l 722 58 l 722 0 l 534 0 l 513 119 l 501 119 q 459 66 479 90 q 414 24 439 41 q 359 -4 390 6 q 285 -14 328 -14 q 199 0 239 -14 q 131 40 159 13 q 85 110 102 68 q 69 208 69 151 q 148 372 69 319 q 386 431 227 426 l 501 435 l 501 518 q 497 587 501 555 q 479 641 493 618 q 440 676 466 664 q 372 689 415 689 m 452 842 l 399 842 q 339 889 372 861 q 276 947 307 917 q 220 1004 245 977 q 182 1050 195 1031 l 182 1064 l 331 1064 q 356 1014 342 1041 q 387 959 371 986 q 420 905 404 931 q 452 860 437 880 l 452 842 z "},"":{"ha":782,"x_min":69,"x_max":722,"o":"m 204 201 q 232 104 204 136 q 317 72 259 72 q 393 85 359 72 q 451 124 427 99 q 488 185 475 149 q 501 265 501 221 l 501 378 l 412 374 q 314 359 353 371 q 250 326 274 347 q 215 273 225 304 q 204 201 204 242 m 372 689 q 308 678 332 689 q 269 646 283 667 q 250 598 255 626 q 245 538 245 570 q 158 557 188 538 q 127 625 127 577 q 147 686 127 661 q 201 727 167 711 q 281 751 235 743 q 378 758 326 758 q 489 746 441 758 q 568 705 536 733 q 616 630 600 676 q 632 518 632 585 l 632 158 q 637 110 632 129 q 652 79 642 91 q 679 63 662 68 q 718 58 695 58 l 722 58 l 722 0 l 534 0 l 513 119 l 501 119 q 459 66 479 90 q 414 24 439 41 q 359 -4 390 6 q 285 -14 328 -14 q 199 0 239 -14 q 131 40 159 13 q 85 110 102 68 q 69 208 69 151 q 148 372 69 319 q 386 431 227 426 l 501 435 l 501 518 q 497 587 501 555 q 479 641 493 618 q 440 676 466 664 q 372 689 415 689 m 319 860 q 352 905 335 880 q 384 959 368 931 q 415 1014 400 986 q 440 1064 429 1041 l 589 1064 l 589 1050 q 551 1004 576 1031 q 495 947 526 977 q 432 889 465 917 q 372 842 400 861 l 319 842 l 319 860 z "},"":{"ha":782,"x_min":69,"x_max":722,"o":"m 204 201 q 232 104 204 136 q 317 72 259 72 q 393 85 359 72 q 451 124 427 99 q 488 185 475 149 q 501 265 501 221 l 501 378 l 412 374 q 314 359 353 371 q 250 326 274 347 q 215 273 225 304 q 204 201 204 242 m 372 689 q 308 678 332 689 q 269 646 283 667 q 250 598 255 626 q 245 538 245 570 q 158 557 188 538 q 127 625 127 577 q 147 686 127 661 q 201 727 167 711 q 281 751 235 743 q 378 758 326 758 q 489 746 441 758 q 568 705 536 733 q 616 630 600 676 q 632 518 632 585 l 632 158 q 637 110 632 129 q 652 79 642 91 q 679 63 662 68 q 718 58 695 58 l 722 58 l 722 0 l 534 0 l 513 119 l 501 119 q 459 66 479 90 q 414 24 439 41 q 359 -4 390 6 q 285 -14 328 -14 q 199 0 239 -14 q 131 40 159 13 q 85 110 102 68 q 69 208 69 151 q 148 372 69 319 q 386 431 227 426 l 501 435 l 501 518 q 497 587 501 555 q 479 641 493 618 q 440 676 466 664 q 372 689 415 689 m 177 860 q 213 905 193 880 q 252 959 233 931 q 288 1014 271 986 q 316 1064 305 1041 l 448 1064 q 475 1014 458 1041 q 512 959 492 986 q 551 905 531 931 q 587 860 570 880 l 587 842 l 532 842 q 452 899 492 865 q 381 966 412 933 q 310 899 349 933 q 231 842 271 865 l 177 842 l 177 860 z "},"":{"ha":782,"x_min":69,"x_max":722,"o":"m 204 201 q 232 104 204 136 q 317 72 259 72 q 393 85 359 72 q 451 124 427 99 q 488 185 475 149 q 501 265 501 221 l 501 378 l 412 374 q 314 359 353 371 q 250 326 274 347 q 215 273 225 304 q 204 201 204 242 m 372 689 q 308 678 332 689 q 269 646 283 667 q 250 598 255 626 q 245 538 245 570 q 158 557 188 538 q 127 625 127 577 q 147 686 127 661 q 201 727 167 711 q 281 751 235 743 q 378 758 326 758 q 489 746 441 758 q 568 705 536 733 q 616 630 600 676 q 632 518 632 585 l 632 158 q 637 110 632 129 q 652 79 642 91 q 679 63 662 68 q 718 58 695 58 l 722 58 l 722 0 l 534 0 l 513 119 l 501 119 q 459 66 479 90 q 414 24 439 41 q 359 -4 390 6 q 285 -14 328 -14 q 199 0 239 -14 q 131 40 159 13 q 85 110 102 68 q 69 208 69 151 q 148 372 69 319 q 386 431 227 426 l 501 435 l 501 518 q 497 587 501 555 q 479 641 493 618 q 440 676 466 664 q 372 689 415 689 m 504 932 q 537 938 524 932 q 556 955 549 944 q 567 978 564 965 q 572 1006 570 991 l 634 1006 q 623 944 632 974 q 596 892 614 915 q 552 855 578 869 q 488 842 526 842 q 421 855 451 842 q 365 885 391 869 q 316 916 338 902 q 271 929 293 929 q 237 923 250 929 q 218 907 225 917 q 208 883 211 897 q 202 856 204 870 l 140 856 q 151 917 142 888 q 178 969 160 946 q 223 1006 196 992 q 287 1019 250 1019 q 354 1006 324 1019 q 411 976 385 992 q 459 945 437 959 q 504 932 482 932 z "},"":{"ha":782,"x_min":69,"x_max":722,"o":"m 204 201 q 232 104 204 136 q 317 72 259 72 q 393 85 359 72 q 451 124 427 99 q 488 185 475 149 q 501 265 501 221 l 501 378 l 412 374 q 314 359 353 371 q 250 326 274 347 q 215 273 225 304 q 204 201 204 242 m 372 689 q 308 678 332 689 q 269 646 283 667 q 250 598 255 626 q 245 538 245 570 q 158 557 188 538 q 127 625 127 577 q 147 686 127 661 q 201 727 167 711 q 281 751 235 743 q 378 758 326 758 q 489 746 441 758 q 568 705 536 733 q 616 630 600 676 q 632 518 632 585 l 632 158 q 637 110 632 129 q 652 79 642 91 q 679 63 662 68 q 718 58 695 58 l 722 58 l 722 0 l 534 0 l 513 119 l 501 119 q 459 66 479 90 q 414 24 439 41 q 359 -4 390 6 q 285 -14 328 -14 q 199 0 239 -14 q 131 40 159 13 q 85 110 102 68 q 69 208 69 151 q 148 372 69 319 q 386 431 227 426 l 501 435 l 501 518 q 497 587 501 555 q 479 641 493 618 q 440 676 466 664 q 372 689 415 689 m 174 956 q 180 992 174 977 q 195 1016 185 1007 q 217 1029 204 1025 q 245 1034 230 1034 q 273 1029 260 1034 q 295 1016 286 1025 q 311 992 305 1007 q 316 956 316 977 q 311 920 316 935 q 295 895 305 905 q 273 882 286 886 q 245 878 260 878 q 194 895 214 878 q 174 956 174 913 m 438 956 q 444 992 438 977 q 458 1016 449 1007 q 481 1029 468 1025 q 509 1034 494 1034 q 536 1029 524 1034 q 559 1016 549 1025 q 574 992 569 1007 q 580 956 580 977 q 574 920 580 935 q 559 895 569 905 q 536 882 549 886 q 509 878 524 878 q 458 895 478 878 q 438 956 438 913 z "},"":{"ha":782,"x_min":69,"x_max":722,"o":"m 204 201 q 232 104 204 136 q 317 72 259 72 q 393 85 359 72 q 451 124 427 99 q 488 185 475 149 q 501 265 501 221 l 501 378 l 412 374 q 314 359 353 371 q 250 326 274 347 q 215 273 225 304 q 204 201 204 242 m 372 689 q 308 678 332 689 q 269 646 283 667 q 250 598 255 626 q 245 538 245 570 q 158 557 188 538 q 127 625 127 577 q 147 686 127 661 q 201 727 167 711 q 281 751 235 743 q 378 758 326 758 q 489 746 441 758 q 568 705 536 733 q 616 630 600 676 q 632 518 632 585 l 632 158 q 637 110 632 129 q 652 79 642 91 q 679 63 662 68 q 718 58 695 58 l 722 58 l 722 0 l 534 0 l 513 119 l 501 119 q 459 66 479 90 q 414 24 439 41 q 359 -4 390 6 q 285 -14 328 -14 q 199 0 239 -14 q 131 40 159 13 q 85 110 102 68 q 69 208 69 151 q 148 372 69 319 q 386 431 227 426 l 501 435 l 501 518 q 497 587 501 555 q 479 641 493 618 q 440 676 466 664 q 372 689 415 689 m 555 979 q 543 914 555 942 q 507 867 530 886 q 454 838 484 848 q 389 828 423 828 q 323 838 354 828 q 270 867 293 848 q 235 914 248 886 q 222 979 222 942 q 235 1044 222 1016 q 270 1092 248 1073 q 323 1121 293 1111 q 389 1131 354 1131 q 454 1121 423 1131 q 507 1092 484 1111 q 543 1044 530 1073 q 555 979 555 1016 m 480 979 q 473 1018 480 1002 q 453 1043 466 1034 q 424 1058 441 1053 q 389 1063 408 1063 q 353 1058 370 1063 q 324 1043 336 1053 q 304 1018 311 1034 q 297 979 297 1002 q 304 941 297 957 q 324 915 311 925 q 353 901 336 905 q 389 896 370 896 q 424 901 408 896 q 453 915 441 905 q 473 941 466 925 q 480 979 480 957 z "},"":{"ha":1168,"x_min":69,"x_max":1099,"o":"m 204 201 q 232 104 204 136 q 317 72 259 72 q 393 85 359 72 q 451 124 427 99 q 488 185 475 149 q 501 265 501 221 l 501 349 l 501 367 l 501 378 l 412 374 q 314 359 353 371 q 250 326 274 347 q 215 273 225 304 q 204 201 204 242 m 807 684 q 688 621 729 684 q 639 437 646 558 l 958 437 q 950 538 958 492 q 924 616 942 583 q 878 666 907 648 q 807 684 849 684 m 828 -14 q 655 26 726 -14 q 546 144 585 66 q 510 85 533 113 q 454 34 487 56 q 379 -1 421 12 q 285 -14 336 -14 q 199 0 239 -14 q 131 40 159 13 q 85 110 102 68 q 69 208 69 151 q 148 372 69 319 q 386 431 227 426 l 501 435 l 501 518 q 497 587 501 555 q 479 641 493 618 q 440 676 466 664 q 372 689 415 689 q 308 678 332 689 q 269 646 283 667 q 250 598 255 626 q 245 538 245 570 q 158 557 188 538 q 127 625 127 577 q 147 686 127 661 q 201 727 167 711 q 281 751 235 743 q 378 758 326 758 q 510 738 456 758 q 595 673 564 718 q 810 758 672 758 q 930 737 877 758 q 1021 674 984 716 q 1079 571 1059 633 q 1099 427 1099 509 l 1099 363 l 636 363 q 651 232 637 287 q 690 142 664 178 q 756 91 716 107 q 851 74 796 74 q 910 81 882 74 q 963 102 939 89 q 1008 133 988 115 q 1042 171 1028 151 q 1060 154 1051 167 q 1068 123 1068 141 q 1053 78 1068 102 q 1008 34 1038 54 q 933 0 979 14 q 828 -14 888 -14 z "},"":{"ha":684,"x_min":77,"x_max":629,"o":"m 393 -14 q 266 8 324 -14 q 165 75 208 29 q 100 194 123 121 q 77 368 77 266 q 100 554 77 479 q 165 675 123 629 q 263 739 207 720 q 386 758 320 758 q 472 750 429 758 q 550 724 515 741 q 606 679 585 706 q 628 616 628 652 q 597 549 628 568 q 504 529 566 529 q 498 591 504 562 q 480 642 493 620 q 444 676 467 664 q 386 689 421 689 q 314 674 346 689 q 258 623 281 659 q 223 524 235 586 q 211 370 211 463 q 260 149 211 222 q 421 77 309 77 q 534 104 486 77 q 606 174 582 131 q 623 152 616 165 q 629 119 629 138 q 614 72 629 96 q 570 29 600 48 q 496 -2 541 10 q 393 -14 452 -14 m 532 -175 q 485 -291 532 -249 q 349 -334 437 -334 q 324 -333 338 -334 q 296 -330 311 -332 q 268 -325 282 -328 q 241 -318 254 -321 l 241 -248 q 292 -256 267 -253 q 336 -258 317 -258 q 398 -237 376 -258 q 420 -180 420 -216 q 391 -119 420 -140 q 316 -96 361 -99 l 345 12 l 411 12 l 397 -47 q 498 -86 465 -53 q 532 -175 532 -120 z "},"":{"ha":743,"x_min":77,"x_max":673,"o":"m 382 684 q 263 621 304 684 q 214 437 221 558 l 533 437 q 525 538 533 492 q 499 616 517 583 q 453 666 481 648 q 382 684 424 684 m 399 -14 q 263 12 323 -14 q 162 86 203 37 q 99 206 121 135 q 77 367 77 277 q 157 660 77 562 q 385 758 237 758 q 505 737 452 758 q 596 674 559 716 q 653 571 633 633 q 673 427 673 509 l 673 363 l 211 363 q 226 232 212 287 q 266 142 240 178 q 330 91 292 107 q 418 74 368 74 q 485 82 454 74 q 541 104 515 90 q 585 135 566 117 q 616 171 604 152 q 634 154 626 167 q 643 123 643 141 q 628 78 643 102 q 583 34 613 54 q 506 0 552 14 q 399 -14 460 -14 m 463 842 l 410 842 q 350 889 382 861 q 287 947 317 917 q 231 1004 256 977 q 193 1050 206 1031 l 193 1064 l 342 1064 q 367 1014 353 1041 q 398 959 382 986 q 431 905 414 931 q 463 860 448 880 l 463 842 z "},"":{"ha":743,"x_min":77,"x_max":673,"o":"m 382 684 q 263 621 304 684 q 214 437 221 558 l 533 437 q 525 538 533 492 q 499 616 517 583 q 453 666 481 648 q 382 684 424 684 m 399 -14 q 263 12 323 -14 q 162 86 203 37 q 99 206 121 135 q 77 367 77 277 q 157 660 77 562 q 385 758 237 758 q 505 737 452 758 q 596 674 559 716 q 653 571 633 633 q 673 427 673 509 l 673 363 l 211 363 q 226 232 212 287 q 266 142 240 178 q 330 91 292 107 q 418 74 368 74 q 485 82 454 74 q 541 104 515 90 q 585 135 566 117 q 616 171 604 152 q 634 154 626 167 q 643 123 643 141 q 628 78 643 102 q 583 34 613 54 q 506 0 552 14 q 399 -14 460 -14 m 321 860 q 353 905 336 880 q 386 959 370 931 q 416 1014 401 986 q 441 1064 431 1041 l 590 1064 l 590 1050 q 552 1004 577 1031 q 496 947 527 977 q 434 889 466 917 q 374 842 401 861 l 321 842 l 321 860 z "},"":{"ha":743,"x_min":77,"x_max":673,"o":"m 382 684 q 263 621 304 684 q 214 437 221 558 l 533 437 q 525 538 533 492 q 499 616 517 583 q 453 666 481 648 q 382 684 424 684 m 399 -14 q 263 12 323 -14 q 162 86 203 37 q 99 206 121 135 q 77 367 77 277 q 157 660 77 562 q 385 758 237 758 q 505 737 452 758 q 596 674 559 716 q 653 571 633 633 q 673 427 673 509 l 673 363 l 211 363 q 226 232 212 287 q 266 142 240 178 q 330 91 292 107 q 418 74 368 74 q 485 82 454 74 q 541 104 515 90 q 585 135 566 117 q 616 171 604 152 q 634 154 626 167 q 643 123 643 141 q 628 78 643 102 q 583 34 613 54 q 506 0 552 14 q 399 -14 460 -14 m 173 860 q 209 905 189 880 q 248 959 229 931 q 284 1014 267 986 q 312 1064 301 1041 l 444 1064 q 471 1014 454 1041 q 508 959 488 986 q 547 905 527 931 q 583 860 566 880 l 583 842 l 528 842 q 448 899 488 865 q 377 966 408 933 q 306 899 345 933 q 227 842 267 865 l 173 842 l 173 860 z "},"":{"ha":743,"x_min":77,"x_max":673,"o":"m 382 684 q 263 621 304 684 q 214 437 221 558 l 533 437 q 525 538 533 492 q 499 616 517 583 q 453 666 481 648 q 382 684 424 684 m 399 -14 q 263 12 323 -14 q 162 86 203 37 q 99 206 121 135 q 77 367 77 277 q 157 660 77 562 q 385 758 237 758 q 505 737 452 758 q 596 674 559 716 q 653 571 633 633 q 673 427 673 509 l 673 363 l 211 363 q 226 232 212 287 q 266 142 240 178 q 330 91 292 107 q 418 74 368 74 q 485 82 454 74 q 541 104 515 90 q 585 135 566 117 q 616 171 604 152 q 634 154 626 167 q 643 123 643 141 q 628 78 643 102 q 583 34 613 54 q 506 0 552 14 q 399 -14 460 -14 m 172 956 q 177 992 172 977 q 192 1016 182 1007 q 214 1029 201 1025 q 242 1034 227 1034 q 270 1029 257 1034 q 293 1016 283 1025 q 308 992 302 1007 q 313 956 313 977 q 308 920 313 935 q 293 895 302 905 q 270 882 283 886 q 242 878 257 878 q 192 895 212 878 q 172 956 172 913 m 435 956 q 441 992 435 977 q 456 1016 446 1007 q 478 1029 465 1025 q 506 1034 491 1034 q 534 1029 521 1034 q 556 1016 547 1025 q 572 992 566 1007 q 577 956 577 977 q 572 920 577 935 q 556 895 566 905 q 534 882 547 886 q 506 878 521 878 q 455 895 475 878 q 435 956 435 913 z "},"":{"ha":444,"x_min":26,"x_max":427,"o":"m 50 58 q 94 61 73 58 q 130 74 115 64 q 155 102 146 83 q 164 151 164 121 l 164 591 q 155 641 164 622 q 130 669 146 659 q 94 683 115 680 q 50 686 73 686 l 46 686 l 46 745 l 294 745 l 294 158 q 303 106 294 125 q 328 76 313 86 q 364 62 343 65 q 408 58 385 58 l 427 58 l 427 0 l 32 0 l 32 58 l 50 58 m 296 842 l 243 842 q 182 889 215 861 q 119 947 150 917 q 64 1004 89 977 q 26 1050 39 1031 l 26 1064 l 174 1064 q 200 1014 185 1041 q 231 959 214 986 q 264 905 247 931 q 296 860 281 880 l 296 842 z "},"":{"ha":444,"x_min":32,"x_max":432,"o":"m 50 58 q 94 61 73 58 q 130 74 115 64 q 155 102 146 83 q 164 151 164 121 l 164 591 q 155 641 164 622 q 130 669 146 659 q 94 683 115 680 q 50 686 73 686 l 46 686 l 46 745 l 294 745 l 294 158 q 303 106 294 125 q 328 76 313 86 q 364 62 343 65 q 408 58 385 58 l 427 58 l 427 0 l 32 0 l 32 58 l 50 58 m 163 860 q 195 905 178 880 q 228 959 212 931 q 258 1014 243 986 q 283 1064 273 1041 l 432 1064 l 432 1050 q 394 1004 419 1031 q 338 947 369 977 q 276 889 308 917 q 216 842 243 861 l 163 842 l 163 860 z "},"":{"ha":444,"x_min":15,"x_max":427,"o":"m 50 58 q 94 61 73 58 q 130 74 115 64 q 155 102 146 83 q 164 151 164 121 l 164 591 q 155 641 164 622 q 130 669 146 659 q 94 683 115 680 q 50 686 73 686 l 46 686 l 46 745 l 294 745 l 294 158 q 303 106 294 125 q 328 76 313 86 q 364 62 343 65 q 408 58 385 58 l 427 58 l 427 0 l 32 0 l 32 58 l 50 58 m 15 860 q 51 905 31 880 q 90 959 71 931 q 126 1014 109 986 q 154 1064 143 1041 l 286 1064 q 313 1014 296 1041 q 350 959 330 986 q 389 905 369 931 q 425 860 408 880 l 425 842 l 370 842 q 290 899 330 865 q 219 966 250 933 q 148 899 187 933 q 69 842 109 865 l 15 842 l 15 860 z "},"":{"ha":444,"x_min":12,"x_max":427,"o":"m 50 58 q 94 61 73 58 q 130 74 115 64 q 155 102 146 83 q 164 151 164 121 l 164 591 q 155 641 164 622 q 130 669 146 659 q 94 683 115 680 q 50 686 73 686 l 46 686 l 46 745 l 294 745 l 294 158 q 303 106 294 125 q 328 76 313 86 q 364 62 343 65 q 408 58 385 58 l 427 58 l 427 0 l 32 0 l 32 58 l 50 58 m 12 956 q 18 992 12 977 q 33 1016 23 1007 q 55 1029 42 1025 q 83 1034 68 1034 q 111 1029 98 1034 q 133 1016 123 1025 q 149 992 143 1007 q 154 956 154 977 q 149 920 154 935 q 133 895 143 905 q 111 882 123 886 q 83 878 98 878 q 32 895 52 878 q 12 956 12 913 m 276 956 q 281 992 276 977 q 296 1016 287 1007 q 319 1029 306 1025 q 347 1034 332 1034 q 374 1029 361 1034 q 397 1016 387 1025 q 412 992 407 1007 q 418 956 418 977 q 412 920 418 935 q 397 895 407 905 q 374 882 387 886 q 347 878 361 878 q 296 895 316 878 q 276 956 276 913 z "},"":{"ha":802,"x_min":77,"x_max":725,"o":"m 208 1057 q 333 1016 272 1042 q 449 954 394 991 l 628 1059 l 628 979 l 505 909 q 595 816 554 869 q 664 700 635 764 q 709 562 693 636 q 725 404 725 488 q 642 90 725 193 q 399 -14 559 -14 q 264 8 323 -14 q 162 75 204 31 q 99 188 121 120 q 77 346 77 255 q 159 614 77 526 q 403 703 241 703 q 488 693 449 703 q 562 667 528 684 q 512 764 548 713 q 422 861 475 815 l 249 762 l 249 840 l 366 907 q 292 949 331 930 q 208 982 252 968 l 208 1057 m 211 346 q 221 221 211 275 q 254 131 231 168 q 313 77 277 95 q 401 58 349 58 q 490 77 454 58 q 548 131 526 95 q 580 221 570 168 q 590 346 590 275 q 580 470 590 416 q 547 558 570 523 q 489 612 525 594 q 400 629 452 629 q 312 612 348 629 q 254 558 276 594 q 221 470 231 523 q 211 346 211 416 z "},"":{"ha":896,"x_min":39,"x_max":857,"o":"m 412 58 l 412 0 l 39 0 l 39 58 l 50 58 q 95 62 74 58 q 131 76 115 65 q 155 106 146 86 q 164 158 164 125 l 164 591 q 155 641 164 622 q 130 669 146 659 q 94 683 115 680 q 50 686 73 686 l 46 686 l 46 745 l 271 745 l 289 632 l 296 632 q 341 695 317 671 q 392 734 366 720 q 449 753 419 748 q 513 758 479 758 q 611 742 568 758 q 684 693 654 726 q 730 609 714 661 q 746 486 746 557 l 746 158 q 754 106 746 125 q 776 76 762 86 q 810 62 790 65 q 852 58 829 58 l 857 58 l 857 0 l 615 0 l 615 479 q 607 560 615 525 q 581 620 599 595 q 534 657 563 644 q 463 669 505 669 q 383 651 415 669 q 331 602 351 633 q 303 530 311 570 q 294 444 294 489 l 294 151 q 303 102 294 121 q 328 74 313 83 q 365 61 344 64 q 408 58 385 58 l 412 58 m 571 932 q 604 938 591 932 q 624 955 616 944 q 634 978 631 965 q 639 1006 637 991 l 701 1006 q 690 944 699 974 q 663 892 681 915 q 619 855 646 869 q 555 842 593 842 q 488 855 518 842 q 432 885 458 869 q 383 916 406 902 q 338 929 360 929 q 304 923 317 929 q 285 907 292 917 q 275 883 278 897 q 269 856 271 870 l 207 856 q 218 917 209 888 q 245 969 227 946 q 290 1006 263 992 q 354 1019 317 1019 q 421 1006 391 1019 q 478 976 452 992 q 527 945 504 959 q 571 932 549 932 z "},"":{"ha":802,"x_min":77,"x_max":725,"o":"m 725 374 q 642 82 725 178 q 399 -14 559 -14 q 264 10 323 -14 q 162 82 204 34 q 99 203 121 130 q 77 374 77 276 q 159 663 77 568 q 403 758 241 758 q 538 735 478 758 q 639 664 597 711 q 703 544 681 616 q 725 374 725 471 m 211 374 q 221 237 211 296 q 254 139 231 178 q 313 79 277 99 q 401 58 349 58 q 490 79 454 58 q 548 139 526 99 q 580 237 570 178 q 590 374 590 296 q 580 509 590 451 q 547 607 570 568 q 489 665 525 646 q 400 685 452 685 q 312 665 348 685 q 254 607 276 646 q 221 509 231 568 q 211 374 211 451 m 472 842 l 419 842 q 359 889 391 861 q 296 947 326 917 q 240 1004 265 977 q 202 1050 215 1031 l 202 1064 l 351 1064 q 376 1014 361 1041 q 407 959 391 986 q 440 905 423 931 q 472 860 457 880 l 472 842 z "},"":{"ha":802,"x_min":77,"x_max":725,"o":"m 725 374 q 642 82 725 178 q 399 -14 559 -14 q 264 10 323 -14 q 162 82 204 34 q 99 203 121 130 q 77 374 77 276 q 159 663 77 568 q 403 758 241 758 q 538 735 478 758 q 639 664 597 711 q 703 544 681 616 q 725 374 725 471 m 211 374 q 221 237 211 296 q 254 139 231 178 q 313 79 277 99 q 401 58 349 58 q 490 79 454 58 q 548 139 526 99 q 580 237 570 178 q 590 374 590 296 q 580 509 590 451 q 547 607 570 568 q 489 665 525 646 q 400 685 452 685 q 312 665 348 685 q 254 607 276 646 q 221 509 231 568 q 211 374 211 451 m 347 860 q 379 905 363 880 q 412 959 396 931 q 443 1014 428 986 q 468 1064 457 1041 l 616 1064 l 616 1050 q 578 1004 604 1031 q 523 947 553 977 q 460 889 492 917 q 400 842 428 861 l 347 842 l 347 860 z "},"":{"ha":802,"x_min":77,"x_max":725,"o":"m 725 374 q 642 82 725 178 q 399 -14 559 -14 q 264 10 323 -14 q 162 82 204 34 q 99 203 121 130 q 77 374 77 276 q 159 663 77 568 q 403 758 241 758 q 538 735 478 758 q 639 664 597 711 q 703 544 681 616 q 725 374 725 471 m 211 374 q 221 237 211 296 q 254 139 231 178 q 313 79 277 99 q 401 58 349 58 q 490 79 454 58 q 548 139 526 99 q 580 237 570 178 q 590 374 590 296 q 580 509 590 451 q 547 607 570 568 q 489 665 525 646 q 400 685 452 685 q 312 665 348 685 q 254 607 276 646 q 221 509 231 568 q 211 374 211 451 m 193 860 q 229 905 209 880 q 268 959 248 931 q 304 1014 287 986 q 332 1064 321 1041 l 463 1064 q 491 1014 474 1041 q 527 959 508 986 q 566 905 547 931 q 602 860 586 880 l 602 842 l 548 842 q 468 899 508 865 q 397 966 428 933 q 326 899 365 933 q 247 842 286 865 l 193 842 l 193 860 z "},"":{"ha":802,"x_min":77,"x_max":725,"o":"m 725 374 q 642 82 725 178 q 399 -14 559 -14 q 264 10 323 -14 q 162 82 204 34 q 99 203 121 130 q 77 374 77 276 q 159 663 77 568 q 403 758 241 758 q 538 735 478 758 q 639 664 597 711 q 703 544 681 616 q 725 374 725 471 m 211 374 q 221 237 211 296 q 254 139 231 178 q 313 79 277 99 q 401 58 349 58 q 490 79 454 58 q 548 139 526 99 q 580 237 570 178 q 590 374 590 296 q 580 509 590 451 q 547 607 570 568 q 489 665 525 646 q 400 685 452 685 q 312 665 348 685 q 254 607 276 646 q 221 509 231 568 q 211 374 211 451 m 513 932 q 546 938 534 932 q 566 955 559 944 q 576 978 573 965 q 581 1006 579 991 l 644 1006 q 632 944 642 974 q 606 892 623 915 q 562 855 588 869 q 498 842 535 842 q 430 855 460 842 q 374 885 400 869 q 325 916 348 902 q 280 929 302 929 q 247 923 259 929 q 228 907 235 917 q 217 883 220 897 q 212 856 214 870 l 149 856 q 160 917 151 888 q 188 969 170 946 q 232 1006 205 992 q 296 1019 259 1019 q 364 1006 334 1019 q 420 976 394 992 q 469 945 446 959 q 513 932 492 932 z "},"":{"ha":802,"x_min":77,"x_max":725,"o":"m 725 374 q 642 82 725 178 q 399 -14 559 -14 q 264 10 323 -14 q 162 82 204 34 q 99 203 121 130 q 77 374 77 276 q 159 663 77 568 q 403 758 241 758 q 538 735 478 758 q 639 664 597 711 q 703 544 681 616 q 725 374 725 471 m 211 374 q 221 237 211 296 q 254 139 231 178 q 313 79 277 99 q 401 58 349 58 q 490 79 454 58 q 548 139 526 99 q 580 237 570 178 q 590 374 590 296 q 580 509 590 451 q 547 607 570 568 q 489 665 525 646 q 400 685 452 685 q 312 665 348 685 q 254 607 276 646 q 221 509 231 568 q 211 374 211 451 m 193 956 q 198 992 193 977 q 213 1016 203 1007 q 235 1029 222 1025 q 263 1034 248 1034 q 291 1029 278 1034 q 314 1016 304 1025 q 329 992 323 1007 q 334 956 334 977 q 329 920 334 935 q 314 895 323 905 q 291 882 304 886 q 263 878 278 878 q 213 895 233 878 q 193 956 193 913 m 456 956 q 462 992 456 977 q 477 1016 467 1007 q 499 1029 486 1025 q 527 1034 512 1034 q 555 1029 542 1034 q 577 1016 568 1025 q 593 992 587 1007 q 598 956 598 977 q 593 920 598 935 q 577 895 587 905 q 555 882 568 886 q 527 878 542 878 q 476 895 496 878 q 456 956 456 913 z "},"":{"ha":777,"x_min":90,"x_max":686,"o":"m 686 456 l 90 456 l 90 538 l 686 538 l 686 456 m 318 760 q 323 796 318 781 q 338 820 329 811 q 361 832 348 829 q 389 836 374 836 q 416 832 404 836 q 439 820 429 829 q 454 796 449 811 q 460 760 460 781 q 454 724 460 739 q 439 700 449 709 q 416 687 429 691 q 389 684 404 684 q 361 687 374 684 q 338 700 348 691 q 323 724 329 709 q 318 760 318 739 m 318 233 q 323 270 318 255 q 338 294 329 285 q 361 306 348 302 q 389 310 374 310 q 416 306 404 310 q 439 294 429 302 q 454 270 449 285 q 460 233 460 255 q 454 197 460 212 q 439 174 449 182 q 416 161 429 165 q 389 157 404 157 q 338 174 358 157 q 318 233 318 191 z "},"":{"ha":802,"x_min":77,"x_max":725,"o":"m 631 672 q 701 551 677 625 q 725 374 725 477 q 642 82 725 178 q 399 -14 559 -14 q 309 -4 351 -14 q 232 25 267 5 l 182 -56 l 100 -56 l 175 66 q 102 191 127 115 q 77 374 77 267 q 159 663 77 568 q 403 758 241 758 q 496 747 453 758 q 575 715 539 736 l 628 800 l 708 800 l 631 672 m 211 374 q 218 259 211 310 q 239 170 224 208 l 526 635 q 400 685 480 685 q 312 665 348 685 q 254 607 276 646 q 221 509 231 568 q 211 374 211 451 m 590 374 q 566 567 590 494 l 279 103 q 331 70 301 81 q 401 58 361 58 q 490 79 454 58 q 548 139 526 99 q 580 237 570 178 q 590 374 590 296 z "},"":{"ha":882,"x_min":32,"x_max":850,"o":"m 732 151 q 741 102 732 121 q 766 74 750 83 q 802 61 781 64 q 846 58 823 58 l 850 58 l 850 0 l 629 0 l 611 113 l 604 113 q 558 49 583 73 q 504 11 532 24 q 444 -8 475 -3 q 379 -14 413 -14 q 281 2 324 -14 q 210 51 239 18 q 165 136 180 84 q 150 258 150 187 l 150 591 q 141 641 150 622 q 116 669 132 659 q 80 683 100 680 q 36 686 59 686 l 32 686 l 32 745 l 281 745 l 281 265 q 288 184 281 220 q 312 125 295 149 q 356 88 328 100 q 427 75 385 75 q 506 92 473 75 q 560 137 538 108 q 591 208 581 167 q 602 300 602 250 l 602 586 q 592 638 602 618 q 568 669 583 659 q 532 683 553 680 q 488 686 511 686 l 484 686 l 484 745 l 732 745 l 732 151 m 483 842 l 430 842 q 370 889 402 861 q 307 947 337 917 q 251 1004 276 977 q 213 1050 226 1031 l 213 1064 l 361 1064 q 387 1014 372 1041 q 418 959 401 986 q 451 905 434 931 q 483 860 468 880 l 483 842 z "},"":{"ha":882,"x_min":32,"x_max":850,"o":"m 732 151 q 741 102 732 121 q 766 74 750 83 q 802 61 781 64 q 846 58 823 58 l 850 58 l 850 0 l 629 0 l 611 113 l 604 113 q 558 49 583 73 q 504 11 532 24 q 444 -8 475 -3 q 379 -14 413 -14 q 281 2 324 -14 q 210 51 239 18 q 165 136 180 84 q 150 258 150 187 l 150 591 q 141 641 150 622 q 116 669 132 659 q 80 683 100 680 q 36 686 59 686 l 32 686 l 32 745 l 281 745 l 281 265 q 288 184 281 220 q 312 125 295 149 q 356 88 328 100 q 427 75 385 75 q 506 92 473 75 q 560 137 538 108 q 591 208 581 167 q 602 300 602 250 l 602 586 q 592 638 602 618 q 568 669 583 659 q 532 683 553 680 q 488 686 511 686 l 484 686 l 484 745 l 732 745 l 732 151 m 367 860 q 399 905 382 880 q 432 959 416 931 q 462 1014 448 986 q 488 1064 477 1041 l 636 1064 l 636 1050 q 598 1004 623 1031 q 543 947 573 977 q 480 889 512 917 q 420 842 448 861 l 367 842 l 367 860 z "},"":{"ha":882,"x_min":32,"x_max":850,"o":"m 732 151 q 741 102 732 121 q 766 74 750 83 q 802 61 781 64 q 846 58 823 58 l 850 58 l 850 0 l 629 0 l 611 113 l 604 113 q 558 49 583 73 q 504 11 532 24 q 444 -8 475 -3 q 379 -14 413 -14 q 281 2 324 -14 q 210 51 239 18 q 165 136 180 84 q 150 258 150 187 l 150 591 q 141 641 150 622 q 116 669 132 659 q 80 683 100 680 q 36 686 59 686 l 32 686 l 32 745 l 281 745 l 281 265 q 288 184 281 220 q 312 125 295 149 q 356 88 328 100 q 427 75 385 75 q 506 92 473 75 q 560 137 538 108 q 591 208 581 167 q 602 300 602 250 l 602 586 q 592 638 602 618 q 568 669 583 659 q 532 683 553 680 q 488 686 511 686 l 484 686 l 484 745 l 732 745 l 732 151 m 232 860 q 268 905 248 880 q 307 959 288 931 q 343 1014 326 986 q 371 1064 360 1041 l 503 1064 q 530 1014 513 1041 q 567 959 547 986 q 606 905 586 931 q 642 860 625 880 l 642 842 l 587 842 q 507 899 547 865 q 436 966 467 933 q 365 899 404 933 q 286 842 326 865 l 232 842 l 232 860 z "},"":{"ha":882,"x_min":32,"x_max":850,"o":"m 732 151 q 741 102 732 121 q 766 74 750 83 q 802 61 781 64 q 846 58 823 58 l 850 58 l 850 0 l 629 0 l 611 113 l 604 113 q 558 49 583 73 q 504 11 532 24 q 444 -8 475 -3 q 379 -14 413 -14 q 281 2 324 -14 q 210 51 239 18 q 165 136 180 84 q 150 258 150 187 l 150 591 q 141 641 150 622 q 116 669 132 659 q 80 683 100 680 q 36 686 59 686 l 32 686 l 32 745 l 281 745 l 281 265 q 288 184 281 220 q 312 125 295 149 q 356 88 328 100 q 427 75 385 75 q 506 92 473 75 q 560 137 538 108 q 591 208 581 167 q 602 300 602 250 l 602 586 q 592 638 602 618 q 568 669 583 659 q 532 683 553 680 q 488 686 511 686 l 484 686 l 484 745 l 732 745 l 732 151 m 236 956 q 241 992 236 977 q 256 1016 247 1007 q 279 1029 266 1025 q 307 1034 292 1034 q 334 1029 321 1034 q 357 1016 347 1025 q 372 992 367 1007 q 378 956 378 977 q 372 920 378 935 q 357 895 367 905 q 334 882 347 886 q 307 878 321 878 q 256 895 276 878 q 236 956 236 913 m 500 956 q 505 992 500 977 q 520 1016 511 1007 q 543 1029 530 1025 q 570 1034 555 1034 q 598 1029 585 1034 q 621 1016 611 1025 q 636 992 631 1007 q 642 956 642 977 q 636 920 642 935 q 621 895 631 905 q 598 882 611 886 q 570 878 585 878 q 520 895 540 878 q 500 956 500 913 z "},"":{"ha":785,"x_min":5,"x_max":785,"o":"m 785 745 l 785 686 l 781 686 q 746 682 760 686 q 719 665 731 677 q 697 632 707 653 q 675 578 687 611 l 464 -5 q 418 -123 439 -73 q 372 -211 396 -174 q 320 -271 349 -247 q 256 -309 292 -294 q 174 -328 220 -323 q 65 -334 127 -334 l 53 -334 l 53 -268 q 174 -247 123 -268 q 262 -189 225 -226 q 324 -103 299 -153 q 366 5 349 -53 l 109 612 q 90 648 99 634 q 70 671 81 662 q 44 683 59 680 q 9 686 30 686 l 5 686 l 5 745 l 339 745 l 339 686 l 335 686 q 272 670 293 686 q 252 619 252 654 q 254 596 252 608 q 262 568 256 584 l 364 321 q 384 269 374 297 q 404 213 395 241 q 420 161 413 186 q 431 119 428 137 l 435 119 q 455 194 442 150 q 486 288 469 237 l 579 558 q 588 591 585 575 q 591 618 591 606 q 569 670 591 654 q 500 686 546 686 l 496 686 l 496 745 l 785 745 m 342 860 q 374 905 357 880 q 407 959 391 931 q 437 1014 422 986 q 463 1064 452 1041 l 611 1064 l 611 1050 q 573 1004 598 1031 q 517 947 548 977 q 455 889 487 917 q 395 842 422 861 l 342 842 l 342 860 z "},"":{"ha":852,"x_min":25,"x_max":777,"o":"m 469 669 q 379 651 415 669 q 321 597 342 633 q 290 505 299 560 q 281 374 281 449 q 290 245 281 301 q 321 152 299 190 q 379 95 343 114 q 471 75 416 75 q 549 95 516 75 q 602 152 581 114 q 632 246 623 190 q 642 375 642 302 q 602 596 642 523 q 469 669 562 669 m 777 374 q 758 200 777 273 q 703 79 739 127 q 614 9 667 32 q 493 -14 562 -14 q 420 -5 453 -14 q 362 20 388 4 q 316 59 336 37 q 281 109 296 81 l 275 109 q 278 41 277 73 q 279 14 279 28 q 280 -12 279 1 q 280 -34 280 -24 q 281 -49 281 -43 l 281 -182 q 290 -231 281 -212 q 315 -259 299 -250 q 351 -272 330 -269 q 395 -275 372 -275 l 399 -275 l 399 -334 l 25 -334 l 25 -275 l 36 -275 q 80 -272 59 -275 q 116 -258 101 -269 q 141 -228 132 -248 q 150 -175 150 -208 l 150 903 q 141 952 150 933 q 116 981 132 970 q 80 994 100 991 q 36 997 59 997 l 25 997 l 25 1055 l 281 1055 l 281 800 q 280 746 281 777 q 278 686 279 715 q 275 619 277 654 l 281 619 q 316 677 296 651 q 361 721 336 703 q 420 748 387 739 q 493 758 452 758 q 614 735 562 758 q 703 666 667 713 q 758 546 739 618 q 777 374 777 473 z "},"":{"ha":785,"x_min":5,"x_max":785,"o":"m 785 745 l 785 686 l 781 686 q 746 682 760 686 q 719 665 731 677 q 697 632 707 653 q 675 578 687 611 l 464 -5 q 418 -123 439 -73 q 372 -211 396 -174 q 320 -271 349 -247 q 256 -309 292 -294 q 174 -328 220 -323 q 65 -334 127 -334 l 53 -334 l 53 -268 q 174 -247 123 -268 q 262 -189 225 -226 q 324 -103 299 -153 q 366 5 349 -53 l 109 612 q 90 648 99 634 q 70 671 81 662 q 44 683 59 680 q 9 686 30 686 l 5 686 l 5 745 l 339 745 l 339 686 l 335 686 q 272 670 293 686 q 252 619 252 654 q 254 596 252 608 q 262 568 256 584 l 364 321 q 384 269 374 297 q 404 213 395 241 q 420 161 413 186 q 431 119 428 137 l 435 119 q 455 194 442 150 q 486 288 469 237 l 579 558 q 588 591 585 575 q 591 618 591 606 q 569 670 591 654 q 500 686 546 686 l 496 686 l 496 745 l 785 745 m 217 956 q 222 992 217 977 q 237 1016 228 1007 q 260 1029 247 1025 q 288 1034 273 1034 q 315 1029 302 1034 q 338 1016 328 1025 q 353 992 348 1007 q 359 956 359 977 q 353 920 359 935 q 338 895 348 905 q 315 882 328 886 q 288 878 302 878 q 237 895 257 878 q 217 956 217 913 m 481 956 q 486 992 481 977 q 501 1016 492 1007 q 524 1029 511 1025 q 551 1034 536 1034 q 579 1029 566 1034 q 602 1016 592 1025 q 617 992 612 1007 q 623 956 623 977 q 617 920 623 935 q 602 895 612 905 q 579 882 592 886 q 551 878 566 878 q 501 895 521 878 q 481 956 481 913 z "},"":{"ha":979,"x_min":0,"x_max":979,"o":"m 281 332 l 228 186 q 218 154 222 170 q 215 126 215 138 q 238 75 215 91 q 307 58 260 58 l 339 58 l 339 0 l 0 0 l 0 58 l 26 58 q 61 63 47 58 q 87 79 75 67 q 109 113 98 92 q 132 167 119 134 l 440 991 l 549 991 l 863 132 q 879 96 871 111 q 899 74 888 82 q 926 62 911 65 q 961 58 941 58 l 979 58 l 979 0 l 597 0 l 597 58 l 629 58 q 713 125 713 58 q 710 149 713 136 q 701 176 707 161 l 646 332 l 281 332 m 534 644 q 495 760 513 706 q 465 864 477 814 q 454 815 460 839 q 440 768 448 792 q 423 716 433 743 q 401 657 414 690 l 307 401 l 621 401 l 534 644 m 688 1085 l 285 1085 l 285 1167 l 688 1167 l 688 1085 z "},"":{"ha":782,"x_min":69,"x_max":722,"o":"m 204 201 q 232 104 204 136 q 317 72 259 72 q 393 85 359 72 q 451 124 427 99 q 488 185 475 149 q 501 265 501 221 l 501 378 l 412 374 q 314 359 353 371 q 250 326 274 347 q 215 273 225 304 q 204 201 204 242 m 372 689 q 308 678 332 689 q 269 646 283 667 q 250 598 255 626 q 245 538 245 570 q 158 557 188 538 q 127 625 127 577 q 147 686 127 661 q 201 727 167 711 q 281 751 235 743 q 378 758 326 758 q 489 746 441 758 q 568 705 536 733 q 616 630 600 676 q 632 518 632 585 l 632 158 q 637 110 632 129 q 652 79 642 91 q 679 63 662 68 q 718 58 695 58 l 722 58 l 722 0 l 534 0 l 513 119 l 501 119 q 459 66 479 90 q 414 24 439 41 q 359 -4 390 6 q 285 -14 328 -14 q 199 0 239 -14 q 131 40 159 13 q 85 110 102 68 q 69 208 69 151 q 148 372 69 319 q 386 431 227 426 l 501 435 l 501 518 q 497 587 501 555 q 479 641 493 618 q 440 676 466 664 q 372 689 415 689 m 578 856 l 175 856 l 175 938 l 578 938 l 578 856 z "},"":{"ha":979,"x_min":0,"x_max":979,"o":"m 281 332 l 228 186 q 218 154 222 170 q 215 126 215 138 q 238 75 215 91 q 307 58 260 58 l 339 58 l 339 0 l 0 0 l 0 58 l 26 58 q 61 63 47 58 q 87 79 75 67 q 109 113 98 92 q 132 167 119 134 l 440 991 l 549 991 l 863 132 q 879 96 871 111 q 899 74 888 82 q 926 62 911 65 q 961 58 941 58 l 979 58 l 979 0 l 597 0 l 597 58 l 629 58 q 713 125 713 58 q 710 149 713 136 q 701 176 707 161 l 646 332 l 281 332 m 534 644 q 495 760 513 706 q 465 864 477 814 q 454 815 460 839 q 440 768 448 792 q 423 716 433 743 q 401 657 414 690 l 307 401 l 621 401 l 534 644 m 486 1071 q 400 1086 437 1071 q 340 1127 364 1101 q 305 1187 317 1153 q 292 1261 293 1222 l 355 1261 q 401 1188 367 1211 q 486 1166 435 1166 q 571 1188 537 1166 q 616 1261 605 1211 l 681 1261 q 668 1187 680 1222 q 632 1127 656 1153 q 572 1086 608 1101 q 486 1071 536 1071 z "},"":{"ha":782,"x_min":69,"x_max":722,"o":"m 204 201 q 232 104 204 136 q 317 72 259 72 q 393 85 359 72 q 451 124 427 99 q 488 185 475 149 q 501 265 501 221 l 501 378 l 412 374 q 314 359 353 371 q 250 326 274 347 q 215 273 225 304 q 204 201 204 242 m 372 689 q 308 678 332 689 q 269 646 283 667 q 250 598 255 626 q 245 538 245 570 q 158 557 188 538 q 127 625 127 577 q 147 686 127 661 q 201 727 167 711 q 281 751 235 743 q 378 758 326 758 q 489 746 441 758 q 568 705 536 733 q 616 630 600 676 q 632 518 632 585 l 632 158 q 637 110 632 129 q 652 79 642 91 q 679 63 662 68 q 718 58 695 58 l 722 58 l 722 0 l 534 0 l 513 119 l 501 119 q 459 66 479 90 q 414 24 439 41 q 359 -4 390 6 q 285 -14 328 -14 q 199 0 239 -14 q 131 40 159 13 q 85 110 102 68 q 69 208 69 151 q 148 372 69 319 q 386 431 227 426 l 501 435 l 501 518 q 497 587 501 555 q 479 641 493 618 q 440 676 466 664 q 372 689 415 689 m 382 842 q 297 857 333 842 q 237 898 260 872 q 201 958 213 924 q 188 1032 189 993 l 252 1032 q 297 959 263 981 q 382 937 331 937 q 467 959 433 937 q 513 1032 501 981 l 577 1032 q 564 958 576 993 q 528 898 552 924 q 468 857 504 872 q 382 842 432 842 z "},"":{"ha":979,"x_min":0,"x_max":979,"o":"m 281 332 l 228 186 q 218 154 222 170 q 215 126 215 138 q 238 75 215 91 q 307 58 260 58 l 339 58 l 339 0 l 0 0 l 0 58 l 26 58 q 61 63 47 58 q 87 79 75 67 q 109 113 98 92 q 132 167 119 134 l 440 991 l 549 991 l 863 132 q 879 96 871 111 q 899 74 888 82 q 926 62 911 65 q 961 58 941 58 l 979 58 l 979 0 l 597 0 l 597 58 l 629 58 q 713 125 713 58 q 710 149 713 136 q 701 176 707 161 l 646 332 l 281 332 m 534 644 q 495 760 513 706 q 465 864 477 814 q 454 815 460 839 q 440 768 448 792 q 423 716 433 743 q 401 657 414 690 l 307 401 l 621 401 l 534 644 m 633 -180 q 647 -119 633 -148 q 684 -65 661 -90 q 736 -24 707 -41 q 798 0 766 -7 l 877 0 q 832 -20 855 -7 q 790 -54 809 -34 q 760 -100 772 -74 q 747 -160 747 -127 q 754 -200 747 -183 q 774 -227 762 -216 q 805 -242 787 -237 q 844 -248 823 -248 q 884 -244 862 -248 q 931 -236 905 -241 l 931 -311 q 906 -321 920 -317 q 878 -328 892 -325 q 849 -332 863 -330 q 824 -334 835 -334 q 745 -325 780 -334 q 685 -297 709 -315 q 647 -249 660 -278 q 633 -180 633 -220 z "},"":{"ha":782,"x_min":69,"x_max":722,"o":"m 204 201 q 232 104 204 136 q 317 72 259 72 q 393 85 359 72 q 451 124 427 99 q 488 185 475 149 q 501 265 501 221 l 501 378 l 412 374 q 314 359 353 371 q 250 326 274 347 q 215 273 225 304 q 204 201 204 242 m 372 689 q 308 678 332 689 q 269 646 283 667 q 250 598 255 626 q 245 538 245 570 q 158 557 188 538 q 127 625 127 577 q 147 686 127 661 q 201 727 167 711 q 281 751 235 743 q 378 758 326 758 q 489 746 441 758 q 568 705 536 733 q 616 630 600 676 q 632 518 632 585 l 632 158 q 637 110 632 129 q 652 79 642 91 q 679 63 662 68 q 718 58 695 58 l 722 58 l 722 0 l 534 0 l 513 119 l 501 119 q 459 66 479 90 q 414 24 439 41 q 359 -4 390 6 q 285 -14 328 -14 q 199 0 239 -14 q 131 40 159 13 q 85 110 102 68 q 69 208 69 151 q 148 372 69 319 q 386 431 227 426 l 501 435 l 501 518 q 497 587 501 555 q 479 641 493 618 q 440 676 466 664 q 372 689 415 689 m 372 -180 q 386 -119 372 -148 q 422 -65 399 -90 q 475 -24 446 -41 q 536 0 505 -7 l 616 0 q 571 -20 594 -7 q 529 -54 548 -34 q 498 -100 511 -74 q 486 -160 486 -127 q 493 -200 486 -183 q 513 -227 500 -216 q 544 -242 526 -237 q 583 -248 562 -248 q 623 -244 601 -248 q 670 -236 644 -241 l 670 -311 q 645 -321 659 -317 q 616 -328 631 -325 q 588 -332 602 -330 q 563 -334 574 -334 q 484 -325 519 -334 q 424 -297 448 -315 q 386 -249 399 -278 q 372 -180 372 -220 z "},"":{"ha":852,"x_min":79,"x_max":806,"o":"m 525 1006 q 649 994 596 1006 q 736 961 701 982 q 788 911 771 940 q 806 850 806 883 q 797 809 806 827 q 771 779 787 791 q 733 760 755 766 q 685 753 711 753 q 676 817 685 785 q 649 874 668 849 q 598 916 629 900 q 522 932 568 932 q 389 903 444 932 q 299 819 334 874 q 249 683 264 764 q 233 497 233 602 q 250 327 233 404 q 301 194 266 250 q 391 109 336 139 q 522 78 446 78 q 612 88 573 78 q 681 114 651 98 q 733 152 711 130 q 774 196 756 173 q 793 176 785 189 q 800 142 800 163 q 782 88 800 115 q 728 38 764 60 q 635 1 691 16 q 501 -14 578 -14 q 319 23 397 -14 q 187 127 240 60 q 106 288 134 194 q 79 497 79 382 q 108 703 79 610 q 192 864 136 797 q 332 968 248 931 q 525 1006 415 1006 m 446 1089 q 478 1135 461 1109 q 510 1188 494 1160 q 541 1243 526 1215 q 566 1293 555 1270 l 715 1293 l 715 1279 q 677 1233 702 1261 q 621 1176 652 1206 q 558 1118 591 1146 q 498 1071 526 1090 l 446 1071 l 446 1089 z "},"":{"ha":684,"x_min":77,"x_max":629,"o":"m 393 -14 q 266 8 324 -14 q 165 75 208 29 q 100 194 123 121 q 77 368 77 266 q 100 554 77 479 q 165 675 123 629 q 263 739 207 720 q 386 758 320 758 q 472 750 429 758 q 550 724 515 741 q 606 679 585 706 q 628 616 628 652 q 597 549 628 568 q 504 529 566 529 q 498 591 504 562 q 480 642 493 620 q 444 676 467 664 q 386 689 421 689 q 314 674 346 689 q 258 623 281 659 q 223 524 235 586 q 211 370 211 463 q 260 149 211 222 q 421 77 309 77 q 534 104 486 77 q 606 174 582 131 q 623 152 616 165 q 629 119 629 138 q 614 72 629 96 q 570 29 600 48 q 496 -2 541 10 q 393 -14 452 -14 m 315 860 q 348 905 331 880 q 380 959 364 931 q 411 1014 396 986 q 436 1064 425 1041 l 585 1064 l 585 1050 q 547 1004 572 1031 q 491 947 522 977 q 428 889 460 917 q 368 842 396 861 l 315 842 l 315 860 z "},"":{"ha":852,"x_min":79,"x_max":806,"o":"m 525 1006 q 649 994 596 1006 q 736 961 701 982 q 788 911 771 940 q 806 850 806 883 q 797 809 806 827 q 771 779 787 791 q 733 760 755 766 q 685 753 711 753 q 676 817 685 785 q 649 874 668 849 q 598 916 629 900 q 522 932 568 932 q 389 903 444 932 q 299 819 334 874 q 249 683 264 764 q 233 497 233 602 q 250 327 233 404 q 301 194 266 250 q 391 109 336 139 q 522 78 446 78 q 612 88 573 78 q 681 114 651 98 q 733 152 711 130 q 774 196 756 173 q 793 176 785 189 q 800 142 800 163 q 782 88 800 115 q 728 38 764 60 q 635 1 691 16 q 501 -14 578 -14 q 319 23 397 -14 q 187 127 240 60 q 106 288 134 194 q 79 497 79 382 q 108 703 79 610 q 192 864 136 797 q 332 968 248 931 q 525 1006 415 1006 m 311 1089 q 347 1135 328 1109 q 386 1188 367 1160 q 422 1243 406 1215 q 450 1293 439 1270 l 582 1293 q 610 1243 593 1270 q 646 1188 627 1215 q 685 1135 665 1160 q 721 1089 705 1109 l 721 1071 l 667 1071 q 587 1128 627 1094 q 515 1196 547 1162 q 444 1128 484 1162 q 366 1071 405 1094 l 311 1071 l 311 1089 z "},"":{"ha":684,"x_min":77,"x_max":629,"o":"m 393 -14 q 266 8 324 -14 q 165 75 208 29 q 100 194 123 121 q 77 368 77 266 q 100 554 77 479 q 165 675 123 629 q 263 739 207 720 q 386 758 320 758 q 472 750 429 758 q 550 724 515 741 q 606 679 585 706 q 628 616 628 652 q 597 549 628 568 q 504 529 566 529 q 498 591 504 562 q 480 642 493 620 q 444 676 467 664 q 386 689 421 689 q 314 674 346 689 q 258 623 281 659 q 223 524 235 586 q 211 370 211 463 q 260 149 211 222 q 421 77 309 77 q 534 104 486 77 q 606 174 582 131 q 623 152 616 165 q 629 119 629 138 q 614 72 629 96 q 570 29 600 48 q 496 -2 541 10 q 393 -14 452 -14 m 189 860 q 224 905 205 880 q 263 959 244 931 q 300 1014 283 986 q 328 1064 317 1041 l 459 1064 q 487 1014 470 1041 q 523 959 504 986 q 562 905 543 931 q 598 860 582 880 l 598 842 l 544 842 q 464 899 504 865 q 393 966 424 933 q 321 899 361 933 q 243 842 282 865 l 189 842 l 189 860 z "},"":{"ha":852,"x_min":79,"x_max":806,"o":"m 525 1006 q 649 994 596 1006 q 736 961 701 982 q 788 911 771 940 q 806 850 806 883 q 797 809 806 827 q 771 779 787 791 q 733 760 755 766 q 685 753 711 753 q 676 817 685 785 q 649 874 668 849 q 598 916 629 900 q 522 932 568 932 q 389 903 444 932 q 299 819 334 874 q 249 683 264 764 q 233 497 233 602 q 250 327 233 404 q 301 194 266 250 q 391 109 336 139 q 522 78 446 78 q 612 88 573 78 q 681 114 651 98 q 733 152 711 130 q 774 196 756 173 q 793 176 785 189 q 800 142 800 163 q 782 88 800 115 q 728 38 764 60 q 635 1 691 16 q 501 -14 578 -14 q 319 23 397 -14 q 187 127 240 60 q 106 288 134 194 q 79 497 79 382 q 108 703 79 610 q 192 864 136 797 q 332 968 248 931 q 525 1006 415 1006 m 441 1178 q 448 1219 441 1202 q 465 1245 454 1235 q 490 1259 475 1255 q 521 1263 504 1263 q 551 1259 537 1263 q 576 1245 566 1255 q 594 1219 587 1235 q 600 1178 600 1202 q 594 1137 600 1154 q 576 1111 587 1121 q 551 1096 566 1101 q 521 1092 537 1092 q 490 1096 504 1092 q 465 1111 475 1101 q 448 1137 454 1121 q 441 1178 441 1154 z "},"":{"ha":684,"x_min":77,"x_max":629,"o":"m 393 -14 q 266 8 324 -14 q 165 75 208 29 q 100 194 123 121 q 77 368 77 266 q 100 554 77 479 q 165 675 123 629 q 263 739 207 720 q 386 758 320 758 q 472 750 429 758 q 550 724 515 741 q 606 679 585 706 q 628 616 628 652 q 597 549 628 568 q 504 529 566 529 q 498 591 504 562 q 480 642 493 620 q 444 676 467 664 q 386 689 421 689 q 314 674 346 689 q 258 623 281 659 q 223 524 235 586 q 211 370 211 463 q 260 149 211 222 q 421 77 309 77 q 534 104 486 77 q 606 174 582 131 q 623 152 616 165 q 629 119 629 138 q 614 72 629 96 q 570 29 600 48 q 496 -2 541 10 q 393 -14 452 -14 m 314 949 q 320 989 314 973 q 337 1016 326 1006 q 362 1030 348 1026 q 393 1034 376 1034 q 424 1030 410 1034 q 449 1016 438 1026 q 466 989 460 1006 q 473 949 473 973 q 466 908 473 924 q 449 882 460 892 q 424 867 438 871 q 393 863 410 863 q 362 867 376 863 q 337 882 348 871 q 320 908 326 892 q 314 949 314 924 z "},"":{"ha":852,"x_min":79,"x_max":806,"o":"m 525 1006 q 649 994 596 1006 q 736 961 701 982 q 788 911 771 940 q 806 850 806 883 q 797 809 806 827 q 771 779 787 791 q 733 760 755 766 q 685 753 711 753 q 676 817 685 785 q 649 874 668 849 q 598 916 629 900 q 522 932 568 932 q 389 903 444 932 q 299 819 334 874 q 249 683 264 764 q 233 497 233 602 q 250 327 233 404 q 301 194 266 250 q 391 109 336 139 q 522 78 446 78 q 612 88 573 78 q 681 114 651 98 q 733 152 711 130 q 774 196 756 173 q 793 176 785 189 q 800 142 800 163 q 782 88 800 115 q 728 38 764 60 q 635 1 691 16 q 501 -14 578 -14 q 319 23 397 -14 q 187 127 240 60 q 106 288 134 194 q 79 497 79 382 q 108 703 79 610 q 192 864 136 797 q 332 968 248 931 q 525 1006 415 1006 m 296 1293 l 350 1293 q 390 1266 370 1281 q 429 1235 410 1251 q 466 1201 448 1218 q 500 1166 484 1183 q 533 1201 515 1183 q 571 1235 551 1218 q 611 1266 591 1251 q 651 1293 631 1281 l 705 1293 l 705 1275 q 669 1230 689 1255 q 630 1176 650 1204 q 594 1122 611 1149 q 566 1071 577 1095 l 435 1071 q 407 1122 424 1095 q 371 1176 390 1149 q 332 1230 351 1204 q 296 1275 312 1255 l 296 1293 z "},"":{"ha":684,"x_min":77,"x_max":629,"o":"m 393 -14 q 266 8 324 -14 q 165 75 208 29 q 100 194 123 121 q 77 368 77 266 q 100 554 77 479 q 165 675 123 629 q 263 739 207 720 q 386 758 320 758 q 472 750 429 758 q 550 724 515 741 q 606 679 585 706 q 628 616 628 652 q 597 549 628 568 q 504 529 566 529 q 498 591 504 562 q 480 642 493 620 q 444 676 467 664 q 386 689 421 689 q 314 674 346 689 q 258 623 281 659 q 223 524 235 586 q 211 370 211 463 q 260 149 211 222 q 421 77 309 77 q 534 104 486 77 q 606 174 582 131 q 623 152 616 165 q 629 119 629 138 q 614 72 629 96 q 570 29 600 48 q 496 -2 541 10 q 393 -14 452 -14 m 186 1064 l 240 1064 q 280 1037 260 1052 q 319 1005 300 1022 q 356 971 338 989 q 390 937 374 954 q 424 971 406 954 q 461 1005 441 989 q 501 1037 481 1022 q 541 1064 522 1052 l 595 1064 l 595 1046 q 559 1000 579 1026 q 520 947 540 975 q 484 892 501 920 q 456 842 467 865 l 325 842 q 297 892 314 865 q 261 947 280 920 q 222 1000 241 975 q 186 1046 202 1026 l 186 1064 z "},"":{"ha":1010,"x_min":53,"x_max":930,"o":"m 930 497 q 902 291 930 383 q 817 135 873 199 q 676 35 761 70 q 478 0 591 0 l 53 0 l 53 58 l 71 58 q 115 62 94 58 q 151 76 136 65 q 176 106 167 86 q 184 158 184 125 l 184 839 q 175 888 184 869 q 151 917 166 907 q 114 930 135 927 q 71 933 94 933 l 53 933 l 53 991 l 478 991 q 669 959 585 991 q 811 863 753 926 q 900 707 869 800 q 930 497 930 615 m 446 71 q 590 99 528 71 q 694 181 652 127 q 756 315 735 235 q 777 497 777 394 q 694 813 777 704 q 447 922 612 922 l 325 922 l 325 71 l 446 71 m 256 1293 l 310 1293 q 350 1266 330 1281 q 389 1235 370 1251 q 426 1201 408 1218 q 460 1166 444 1183 q 493 1201 475 1183 q 531 1235 511 1218 q 571 1266 551 1251 q 611 1293 591 1281 l 665 1293 l 665 1275 q 629 1230 649 1255 q 590 1176 610 1204 q 554 1122 571 1149 q 526 1071 537 1095 l 395 1071 q 367 1122 384 1095 q 331 1176 350 1149 q 292 1230 311 1204 q 256 1275 272 1255 l 256 1293 z "},"":{"ha":852,"x_min":77,"x_max":942,"o":"m 703 153 q 712 103 703 122 q 736 75 721 85 q 773 61 752 64 q 817 58 793 58 l 828 58 l 828 0 l 593 0 l 578 125 l 572 125 q 537 67 557 93 q 491 24 517 42 q 433 -4 465 6 q 359 -14 400 -14 q 238 9 291 -14 q 149 79 185 32 q 95 199 113 126 q 77 371 77 271 q 95 545 77 471 q 149 665 113 618 q 238 735 185 713 q 359 758 291 758 q 432 749 399 758 q 491 724 465 741 q 537 686 517 708 q 572 636 557 663 l 581 636 q 576 700 578 670 q 574 751 575 726 q 572 789 572 777 l 572 903 q 563 952 572 933 q 538 981 554 970 q 502 994 523 991 q 458 997 481 997 l 447 997 l 447 1055 l 703 1055 l 703 153 m 383 75 q 474 93 437 75 q 532 148 510 111 q 563 240 554 184 q 572 371 572 296 q 563 499 572 444 q 532 592 554 555 q 473 650 510 630 q 382 669 437 669 q 304 650 336 669 q 251 592 271 630 q 220 498 230 554 q 211 370 211 442 q 251 149 211 222 q 383 75 291 75 m 779 851 q 802 951 791 898 q 821 1055 812 1005 l 942 1055 l 942 1042 q 919 993 932 1020 q 889 938 905 966 q 857 882 873 909 q 827 833 841 855 l 779 833 l 779 851 z "},"":{"ha":1010,"x_min":53,"x_max":930,"o":"m 53 553 l 184 553 l 184 839 q 175 888 184 869 q 151 917 166 907 q 114 930 135 927 q 71 933 94 933 l 53 933 l 53 991 l 478 991 q 669 959 585 991 q 811 863 753 926 q 900 707 869 800 q 930 497 930 615 q 902 291 930 383 q 817 135 873 199 q 676 35 761 70 q 478 0 591 0 l 53 0 l 53 58 l 71 58 q 115 62 94 58 q 151 76 136 65 q 176 106 167 86 q 184 158 184 125 l 184 485 l 53 485 l 53 553 m 446 71 q 590 99 528 71 q 694 181 652 127 q 756 315 735 235 q 777 497 777 394 q 756 680 777 600 q 694 813 735 759 q 591 895 653 867 q 447 922 529 922 l 325 922 l 325 553 l 561 553 l 561 485 l 325 485 l 325 71 l 446 71 z "},"":{"ha":852,"x_min":77,"x_max":829,"o":"m 703 889 l 829 889 l 829 823 l 703 823 l 703 153 q 712 103 703 122 q 736 75 721 85 q 773 61 752 64 q 817 58 793 58 l 828 58 l 828 0 l 593 0 l 578 125 l 572 125 q 537 67 557 93 q 491 24 517 42 q 433 -4 465 6 q 359 -14 400 -14 q 238 8 291 -14 q 149 75 185 30 q 95 191 113 121 q 77 357 77 260 q 95 524 77 454 q 149 641 113 595 q 238 708 185 686 q 359 730 291 730 q 432 722 399 730 q 491 696 465 713 q 537 658 517 680 q 572 608 557 635 l 581 608 q 576 673 578 642 q 574 725 575 699 q 572 765 572 751 l 572 823 l 335 823 l 335 889 l 572 889 l 572 903 q 563 951 572 933 q 538 980 554 970 q 502 994 523 990 q 458 997 481 997 l 447 997 l 447 1055 l 703 1055 l 703 889 m 383 75 q 474 93 437 75 q 532 145 510 110 q 563 233 554 180 q 572 357 572 286 q 563 479 572 426 q 532 569 554 532 q 473 623 510 605 q 382 642 437 642 q 251 568 290 642 q 211 355 211 495 q 251 145 211 215 q 383 75 291 75 z "},"":{"ha":865,"x_min":53,"x_max":807,"o":"m 325 69 l 593 69 q 649 78 626 69 q 688 103 673 87 q 713 139 704 119 q 725 183 722 160 l 734 243 l 807 243 l 798 0 l 53 0 l 53 58 l 71 58 q 114 61 94 58 q 151 74 135 64 q 175 102 166 83 q 184 151 184 121 l 184 833 q 176 886 184 866 q 151 916 167 905 q 115 930 136 926 q 71 933 94 933 l 53 933 l 53 991 l 753 991 l 760 749 l 688 749 l 681 808 q 670 852 678 831 q 648 888 663 873 q 611 913 633 904 q 558 922 589 922 l 325 922 l 325 553 l 660 553 l 660 485 l 325 485 l 325 69 m 643 1085 l 240 1085 l 240 1167 l 643 1167 l 643 1085 z "},"":{"ha":743,"x_min":77,"x_max":673,"o":"m 382 684 q 263 621 304 684 q 214 437 221 558 l 533 437 q 525 538 533 492 q 499 616 517 583 q 453 666 481 648 q 382 684 424 684 m 399 -14 q 263 12 323 -14 q 162 86 203 37 q 99 206 121 135 q 77 367 77 277 q 157 660 77 562 q 385 758 237 758 q 505 737 452 758 q 596 674 559 716 q 653 571 633 633 q 673 427 673 509 l 673 363 l 211 363 q 226 232 212 287 q 266 142 240 178 q 330 91 292 107 q 418 74 368 74 q 485 82 454 74 q 541 104 515 90 q 585 135 566 117 q 616 171 604 152 q 634 154 626 167 q 643 123 643 141 q 628 78 643 102 q 583 34 613 54 q 506 0 552 14 q 399 -14 460 -14 m 581 856 l 178 856 l 178 938 l 581 938 l 581 856 z "},"":{"ha":865,"x_min":53,"x_max":807,"o":"m 325 69 l 593 69 q 649 78 626 69 q 688 103 673 87 q 713 139 704 119 q 725 183 722 160 l 734 243 l 807 243 l 798 0 l 53 0 l 53 58 l 71 58 q 114 61 94 58 q 151 74 135 64 q 175 102 166 83 q 184 151 184 121 l 184 833 q 176 886 184 866 q 151 916 167 905 q 115 930 136 926 q 71 933 94 933 l 53 933 l 53 991 l 753 991 l 760 749 l 688 749 l 681 808 q 670 852 678 831 q 648 888 663 873 q 611 913 633 904 q 558 922 589 922 l 325 922 l 325 553 l 660 553 l 660 485 l 325 485 l 325 69 m 433 1071 q 348 1086 384 1071 q 288 1127 311 1101 q 252 1187 264 1153 q 239 1261 240 1222 l 302 1261 q 348 1188 314 1211 q 433 1166 382 1166 q 518 1188 484 1166 q 564 1261 552 1211 l 628 1261 q 615 1187 627 1222 q 579 1127 603 1153 q 519 1086 555 1101 q 433 1071 483 1071 z "},"":{"ha":743,"x_min":77,"x_max":673,"o":"m 382 684 q 263 621 304 684 q 214 437 221 558 l 533 437 q 525 538 533 492 q 499 616 517 583 q 453 666 481 648 q 382 684 424 684 m 399 -14 q 263 12 323 -14 q 162 86 203 37 q 99 206 121 135 q 77 367 77 277 q 157 660 77 562 q 385 758 237 758 q 505 737 452 758 q 596 674 559 716 q 653 571 633 633 q 673 427 673 509 l 673 363 l 211 363 q 226 232 212 287 q 266 142 240 178 q 330 91 292 107 q 418 74 368 74 q 485 82 454 74 q 541 104 515 90 q 585 135 566 117 q 616 171 604 152 q 634 154 626 167 q 643 123 643 141 q 628 78 643 102 q 583 34 613 54 q 506 0 552 14 q 399 -14 460 -14 m 385 842 q 299 857 336 842 q 239 898 263 872 q 204 958 216 924 q 191 1032 192 993 l 254 1032 q 300 959 266 981 q 385 937 334 937 q 470 959 436 937 q 515 1032 504 981 l 580 1032 q 567 958 578 993 q 531 898 555 924 q 471 857 507 872 q 385 842 435 842 z "},"":{"ha":865,"x_min":53,"x_max":807,"o":"m 325 69 l 593 69 q 649 78 626 69 q 688 103 673 87 q 713 139 704 119 q 725 183 722 160 l 734 243 l 807 243 l 798 0 l 53 0 l 53 58 l 71 58 q 114 61 94 58 q 151 74 135 64 q 175 102 166 83 q 184 151 184 121 l 184 833 q 176 886 184 866 q 151 916 167 905 q 115 930 136 926 q 71 933 94 933 l 53 933 l 53 991 l 753 991 l 760 749 l 688 749 l 681 808 q 670 852 678 831 q 648 888 663 873 q 611 913 633 904 q 558 922 589 922 l 325 922 l 325 553 l 660 553 l 660 485 l 325 485 l 325 69 m 368 1158 q 374 1199 368 1183 q 391 1225 380 1215 q 416 1240 401 1236 q 447 1244 430 1244 q 477 1240 463 1244 q 503 1225 492 1236 q 520 1199 513 1215 q 526 1158 526 1183 q 520 1118 526 1134 q 503 1091 513 1101 q 477 1077 492 1081 q 447 1072 463 1072 q 416 1077 430 1072 q 391 1091 401 1081 q 374 1118 380 1101 q 368 1158 368 1134 z "},"":{"ha":743,"x_min":77,"x_max":673,"o":"m 382 684 q 263 621 304 684 q 214 437 221 558 l 533 437 q 525 538 533 492 q 499 616 517 583 q 453 666 481 648 q 382 684 424 684 m 399 -14 q 263 12 323 -14 q 162 86 203 37 q 99 206 121 135 q 77 367 77 277 q 157 660 77 562 q 385 758 237 758 q 505 737 452 758 q 596 674 559 716 q 653 571 633 633 q 673 427 673 509 l 673 363 l 211 363 q 226 232 212 287 q 266 142 240 178 q 330 91 292 107 q 418 74 368 74 q 485 82 454 74 q 541 104 515 90 q 585 135 566 117 q 616 171 604 152 q 634 154 626 167 q 643 123 643 141 q 628 78 643 102 q 583 34 613 54 q 506 0 552 14 q 399 -14 460 -14 m 302 949 q 309 989 302 973 q 326 1016 315 1006 q 351 1030 336 1026 q 382 1034 365 1034 q 412 1030 398 1034 q 437 1016 427 1026 q 455 989 448 1006 q 461 949 461 973 q 455 908 461 924 q 437 882 448 892 q 412 867 427 871 q 382 863 398 863 q 351 867 365 863 q 326 882 336 871 q 309 908 315 892 q 302 949 302 924 z "},"":{"ha":865,"x_min":53,"x_max":807,"o":"m 325 69 l 593 69 q 649 78 626 69 q 688 103 673 87 q 713 139 704 119 q 725 183 722 160 l 734 243 l 807 243 l 798 0 l 53 0 l 53 58 l 71 58 q 114 61 94 58 q 151 74 135 64 q 175 102 166 83 q 184 151 184 121 l 184 833 q 176 886 184 866 q 151 916 167 905 q 115 930 136 926 q 71 933 94 933 l 53 933 l 53 991 l 753 991 l 760 749 l 688 749 l 681 808 q 670 852 678 831 q 648 888 663 873 q 611 913 633 904 q 558 922 589 922 l 325 922 l 325 553 l 660 553 l 660 485 l 325 485 l 325 69 m 484 -180 q 498 -119 484 -148 q 534 -65 511 -90 q 587 -24 557 -41 q 648 0 616 -7 l 728 0 q 683 -20 706 -7 q 641 -54 660 -34 q 610 -100 623 -74 q 598 -160 598 -127 q 605 -200 598 -183 q 625 -227 612 -216 q 656 -242 638 -237 q 694 -248 673 -248 q 734 -244 713 -248 q 782 -236 756 -241 l 782 -311 q 757 -321 771 -317 q 728 -328 743 -325 q 700 -332 713 -330 q 675 -334 686 -334 q 595 -325 631 -334 q 535 -297 560 -315 q 497 -249 511 -278 q 484 -180 484 -220 z "},"":{"ha":743,"x_min":77,"x_max":673,"o":"m 382 684 q 263 621 304 684 q 214 437 221 558 l 533 437 q 525 538 533 492 q 499 616 517 583 q 453 666 481 648 q 382 684 424 684 m 399 -14 q 263 12 323 -14 q 162 86 203 37 q 99 206 121 135 q 77 367 77 277 q 157 660 77 562 q 385 758 237 758 q 505 737 452 758 q 596 674 559 716 q 653 571 633 633 q 673 427 673 509 l 673 363 l 211 363 q 226 232 212 287 q 266 142 240 178 q 330 91 292 107 q 418 74 368 74 q 485 82 454 74 q 541 104 515 90 q 585 135 566 117 q 616 171 604 152 q 634 154 626 167 q 643 123 643 141 q 628 78 643 102 q 583 34 613 54 q 506 0 552 14 q 399 -14 460 -14 m 319 -159 q 333 -98 319 -127 q 370 -44 347 -68 q 422 -3 393 -20 q 484 21 452 14 l 563 21 q 518 1 541 14 q 476 -33 495 -13 q 446 -79 458 -53 q 433 -139 433 -106 q 440 -179 433 -162 q 460 -206 448 -195 q 491 -221 473 -216 q 530 -227 509 -227 q 570 -223 548 -227 q 617 -215 591 -220 l 617 -290 q 592 -300 606 -296 q 564 -307 578 -304 q 535 -311 549 -309 q 510 -313 521 -313 q 431 -303 466 -313 q 371 -276 395 -294 q 333 -228 346 -257 q 319 -159 319 -199 z "},"":{"ha":865,"x_min":53,"x_max":807,"o":"m 325 69 l 593 69 q 649 78 626 69 q 688 103 673 87 q 713 139 704 119 q 725 183 722 160 l 734 243 l 807 243 l 798 0 l 53 0 l 53 58 l 71 58 q 114 61 94 58 q 151 74 135 64 q 175 102 166 83 q 184 151 184 121 l 184 833 q 176 886 184 866 q 151 916 167 905 q 115 930 136 926 q 71 933 94 933 l 53 933 l 53 991 l 753 991 l 760 749 l 688 749 l 681 808 q 670 852 678 831 q 648 888 663 873 q 611 913 633 904 q 558 922 589 922 l 325 922 l 325 553 l 660 553 l 660 485 l 325 485 l 325 69 m 225 1293 l 279 1293 q 319 1266 299 1281 q 358 1235 339 1251 q 396 1201 378 1218 q 429 1166 414 1183 q 463 1201 445 1183 q 500 1235 481 1218 q 541 1266 520 1251 q 581 1293 561 1281 l 635 1293 l 635 1275 q 599 1230 618 1255 q 560 1176 579 1204 q 524 1122 541 1149 q 496 1071 507 1095 l 364 1071 q 336 1122 353 1095 q 300 1176 319 1149 q 261 1230 281 1204 q 225 1275 241 1255 l 225 1293 z "},"":{"ha":743,"x_min":77,"x_max":673,"o":"m 382 684 q 263 621 304 684 q 214 437 221 558 l 533 437 q 525 538 533 492 q 499 616 517 583 q 453 666 481 648 q 382 684 424 684 m 399 -14 q 263 12 323 -14 q 162 86 203 37 q 99 206 121 135 q 77 367 77 277 q 157 660 77 562 q 385 758 237 758 q 505 737 452 758 q 596 674 559 716 q 653 571 633 633 q 673 427 673 509 l 673 363 l 211 363 q 226 232 212 287 q 266 142 240 178 q 330 91 292 107 q 418 74 368 74 q 485 82 454 74 q 541 104 515 90 q 585 135 566 117 q 616 171 604 152 q 634 154 626 167 q 643 123 643 141 q 628 78 643 102 q 583 34 613 54 q 506 0 552 14 q 399 -14 460 -14 m 177 1064 l 231 1064 q 271 1037 251 1052 q 310 1005 291 1022 q 348 971 330 989 q 381 937 366 954 q 415 971 397 954 q 452 1005 433 989 q 492 1037 472 1022 q 532 1064 513 1052 l 587 1064 l 587 1046 q 551 1000 570 1026 q 512 947 531 975 q 475 892 492 920 q 448 842 458 865 l 316 842 q 288 892 305 865 q 252 947 271 920 q 213 1000 233 975 q 177 1046 193 1026 l 177 1064 z "},"":{"ha":991,"x_min":79,"x_max":965,"o":"m 557 -14 q 346 23 436 -14 q 197 127 256 60 q 109 288 138 194 q 79 497 79 382 q 110 703 79 610 q 202 864 141 797 q 355 968 264 931 q 566 1006 446 1006 q 700 994 643 1006 q 796 961 758 982 q 853 911 834 940 q 872 850 872 883 q 862 809 872 827 q 834 779 852 791 q 794 760 817 766 q 743 753 770 753 q 734 817 743 785 q 703 874 724 849 q 646 916 681 900 q 559 932 610 932 q 409 903 471 932 q 308 819 347 874 q 251 683 269 764 q 233 497 233 602 q 252 313 233 393 q 311 177 270 232 q 418 94 353 122 q 579 65 484 65 q 657 69 619 65 q 724 82 694 73 l 724 306 q 714 355 724 336 q 690 384 705 374 q 653 397 674 393 q 610 400 633 400 l 604 400 l 604 458 l 965 458 l 965 400 l 960 400 q 922 397 940 400 q 892 383 905 393 q 871 352 879 372 q 864 300 864 332 l 864 50 q 720 2 794 18 q 557 -14 646 -14 m 342 1089 q 378 1135 358 1109 q 417 1188 397 1160 q 453 1243 436 1215 q 481 1293 470 1270 l 612 1293 q 640 1243 623 1270 q 676 1188 657 1215 q 715 1135 696 1160 q 751 1089 735 1109 l 751 1071 l 697 1071 q 617 1128 657 1094 q 546 1196 577 1162 q 475 1128 514 1162 q 396 1071 435 1094 l 342 1071 l 342 1089 z "},"":{"ha":747,"x_min":32,"x_max":730,"o":"m 730 715 q 726 687 730 701 q 713 664 722 674 q 690 649 704 654 q 657 643 676 643 q 655 659 657 651 q 648 674 653 667 q 634 686 643 682 q 611 690 625 690 q 579 686 593 690 q 551 673 565 682 q 590 605 575 644 q 606 505 606 565 q 590 410 606 454 q 544 334 574 366 q 466 284 513 302 q 355 267 418 267 q 337 267 347 267 q 317 268 327 267 q 298 269 307 268 q 283 271 289 270 q 258 256 270 264 q 236 237 245 248 q 222 214 227 227 q 216 186 216 201 q 223 159 216 169 q 241 143 229 149 q 268 135 252 137 q 302 134 284 134 l 460 134 q 566 118 522 134 q 636 75 609 102 q 676 9 664 47 q 689 -74 689 -29 q 667 -182 689 -134 q 600 -263 645 -230 q 485 -315 554 -297 q 321 -334 415 -334 q 104 -280 176 -334 q 32 -131 32 -227 q 46 -60 32 -90 q 84 -7 60 -29 q 140 28 109 14 q 205 47 171 41 q 178 64 191 54 q 153 88 164 74 q 136 121 142 102 q 129 161 129 139 q 151 233 129 203 q 220 292 172 263 q 166 325 190 304 q 127 374 143 347 q 103 434 111 401 q 94 501 94 467 q 111 609 94 562 q 159 690 127 656 q 241 741 192 723 q 355 758 290 758 q 405 754 380 758 q 450 744 429 751 q 487 730 471 738 q 514 713 504 722 q 538 737 524 724 q 568 761 551 750 q 605 780 585 772 q 648 787 625 787 q 685 782 669 787 q 710 766 700 776 q 725 743 720 756 q 730 715 730 730 m 144 -122 q 153 -179 144 -153 q 181 -224 161 -205 q 236 -254 201 -243 q 323 -265 271 -265 q 447 -253 398 -265 q 524 -218 495 -240 q 564 -164 552 -195 q 575 -97 575 -134 q 566 -44 575 -65 q 539 -12 557 -24 q 494 5 521 0 q 433 9 468 9 l 297 9 q 240 4 268 9 q 192 -15 213 -1 q 157 -55 170 -29 q 144 -122 144 -81 m 225 505 q 255 375 225 416 q 351 334 284 334 q 409 344 385 334 q 447 375 432 354 q 468 429 462 396 q 475 507 475 462 q 446 646 475 601 q 350 690 418 690 q 254 645 283 690 q 225 505 225 599 m 157 860 q 193 905 173 880 q 232 959 212 931 q 268 1014 251 986 q 296 1064 285 1041 l 427 1064 q 455 1014 438 1041 q 491 959 472 986 q 530 905 511 931 q 566 860 550 880 l 566 842 l 512 842 q 432 899 472 865 q 361 966 392 933 q 290 899 329 933 q 211 842 250 865 l 157 842 l 157 860 z "},"":{"ha":991,"x_min":79,"x_max":965,"o":"m 557 -14 q 346 23 436 -14 q 197 127 256 60 q 109 288 138 194 q 79 497 79 382 q 110 703 79 610 q 202 864 141 797 q 355 968 264 931 q 566 1006 446 1006 q 700 994 643 1006 q 796 961 758 982 q 853 911 834 940 q 872 850 872 883 q 862 809 872 827 q 834 779 852 791 q 794 760 817 766 q 743 753 770 753 q 734 817 743 785 q 703 874 724 849 q 646 916 681 900 q 559 932 610 932 q 409 903 471 932 q 308 819 347 874 q 251 683 269 764 q 233 497 233 602 q 252 313 233 393 q 311 177 270 232 q 418 94 353 122 q 579 65 484 65 q 657 69 619 65 q 724 82 694 73 l 724 306 q 714 355 724 336 q 690 384 705 374 q 653 397 674 393 q 610 400 633 400 l 604 400 l 604 458 l 965 458 l 965 400 l 960 400 q 922 397 940 400 q 892 383 905 393 q 871 352 879 372 q 864 300 864 332 l 864 50 q 720 2 794 18 q 557 -14 646 -14 m 547 1071 q 461 1086 498 1071 q 401 1127 425 1101 q 366 1187 378 1153 q 353 1261 354 1222 l 416 1261 q 462 1188 428 1211 q 547 1166 496 1166 q 632 1188 598 1166 q 677 1261 666 1211 l 742 1261 q 729 1187 741 1222 q 693 1127 717 1153 q 633 1086 669 1101 q 547 1071 597 1071 z "},"":{"ha":747,"x_min":32,"x_max":730,"o":"m 730 715 q 726 687 730 701 q 713 664 722 674 q 690 649 704 654 q 657 643 676 643 q 655 659 657 651 q 648 674 653 667 q 634 686 643 682 q 611 690 625 690 q 579 686 593 690 q 551 673 565 682 q 590 605 575 644 q 606 505 606 565 q 590 410 606 454 q 544 334 574 366 q 466 284 513 302 q 355 267 418 267 q 337 267 347 267 q 317 268 327 267 q 298 269 307 268 q 283 271 289 270 q 258 256 270 264 q 236 237 245 248 q 222 214 227 227 q 216 186 216 201 q 223 159 216 169 q 241 143 229 149 q 268 135 252 137 q 302 134 284 134 l 460 134 q 566 118 522 134 q 636 75 609 102 q 676 9 664 47 q 689 -74 689 -29 q 667 -182 689 -134 q 600 -263 645 -230 q 485 -315 554 -297 q 321 -334 415 -334 q 104 -280 176 -334 q 32 -131 32 -227 q 46 -60 32 -90 q 84 -7 60 -29 q 140 28 109 14 q 205 47 171 41 q 178 64 191 54 q 153 88 164 74 q 136 121 142 102 q 129 161 129 139 q 151 233 129 203 q 220 292 172 263 q 166 325 190 304 q 127 374 143 347 q 103 434 111 401 q 94 501 94 467 q 111 609 94 562 q 159 690 127 656 q 241 741 192 723 q 355 758 290 758 q 405 754 380 758 q 450 744 429 751 q 487 730 471 738 q 514 713 504 722 q 538 737 524 724 q 568 761 551 750 q 605 780 585 772 q 648 787 625 787 q 685 782 669 787 q 710 766 700 776 q 725 743 720 756 q 730 715 730 730 m 144 -122 q 153 -179 144 -153 q 181 -224 161 -205 q 236 -254 201 -243 q 323 -265 271 -265 q 447 -253 398 -265 q 524 -218 495 -240 q 564 -164 552 -195 q 575 -97 575 -134 q 566 -44 575 -65 q 539 -12 557 -24 q 494 5 521 0 q 433 9 468 9 l 297 9 q 240 4 268 9 q 192 -15 213 -1 q 157 -55 170 -29 q 144 -122 144 -81 m 225 505 q 255 375 225 416 q 351 334 284 334 q 409 344 385 334 q 447 375 432 354 q 468 429 462 396 q 475 507 475 462 q 446 646 475 601 q 350 690 418 690 q 254 645 283 690 q 225 505 225 599 m 356 842 q 270 857 307 842 q 210 898 234 872 q 175 958 186 924 q 161 1032 163 993 l 225 1032 q 271 959 237 981 q 356 937 304 937 q 441 959 407 937 q 486 1032 475 981 l 551 1032 q 537 958 549 993 q 502 898 526 924 q 441 857 477 872 q 356 842 406 842 z "},"":{"ha":991,"x_min":79,"x_max":965,"o":"m 557 -14 q 346 23 436 -14 q 197 127 256 60 q 109 288 138 194 q 79 497 79 382 q 110 703 79 610 q 202 864 141 797 q 355 968 264 931 q 566 1006 446 1006 q 700 994 643 1006 q 796 961 758 982 q 853 911 834 940 q 872 850 872 883 q 862 809 872 827 q 834 779 852 791 q 794 760 817 766 q 743 753 770 753 q 734 817 743 785 q 703 874 724 849 q 646 916 681 900 q 559 932 610 932 q 409 903 471 932 q 308 819 347 874 q 251 683 269 764 q 233 497 233 602 q 252 313 233 393 q 311 177 270 232 q 418 94 353 122 q 579 65 484 65 q 657 69 619 65 q 724 82 694 73 l 724 306 q 714 355 724 336 q 690 384 705 374 q 653 397 674 393 q 610 400 633 400 l 604 400 l 604 458 l 965 458 l 965 400 l 960 400 q 922 397 940 400 q 892 383 905 393 q 871 352 879 372 q 864 300 864 332 l 864 50 q 720 2 794 18 q 557 -14 646 -14 m 480 1178 q 486 1219 480 1202 q 503 1245 492 1235 q 528 1259 514 1255 q 559 1263 543 1263 q 590 1259 576 1263 q 615 1245 604 1255 q 632 1219 626 1235 q 639 1178 639 1202 q 632 1137 639 1154 q 615 1111 626 1121 q 590 1096 604 1101 q 559 1092 576 1092 q 528 1096 543 1092 q 503 1111 514 1101 q 486 1137 492 1121 q 480 1178 480 1154 z "},"":{"ha":747,"x_min":32,"x_max":730,"o":"m 730 715 q 726 687 730 701 q 713 664 722 674 q 690 649 704 654 q 657 643 676 643 q 655 659 657 651 q 648 674 653 667 q 634 686 643 682 q 611 690 625 690 q 579 686 593 690 q 551 673 565 682 q 590 605 575 644 q 606 505 606 565 q 590 410 606 454 q 544 334 574 366 q 466 284 513 302 q 355 267 418 267 q 337 267 347 267 q 317 268 327 267 q 298 269 307 268 q 283 271 289 270 q 258 256 270 264 q 236 237 245 248 q 222 214 227 227 q 216 186 216 201 q 223 159 216 169 q 241 143 229 149 q 268 135 252 137 q 302 134 284 134 l 460 134 q 566 118 522 134 q 636 75 609 102 q 676 9 664 47 q 689 -74 689 -29 q 667 -182 689 -134 q 600 -263 645 -230 q 485 -315 554 -297 q 321 -334 415 -334 q 104 -280 176 -334 q 32 -131 32 -227 q 46 -60 32 -90 q 84 -7 60 -29 q 140 28 109 14 q 205 47 171 41 q 178 64 191 54 q 153 88 164 74 q 136 121 142 102 q 129 161 129 139 q 151 233 129 203 q 220 292 172 263 q 166 325 190 304 q 127 374 143 347 q 103 434 111 401 q 94 501 94 467 q 111 609 94 562 q 159 690 127 656 q 241 741 192 723 q 355 758 290 758 q 405 754 380 758 q 450 744 429 751 q 487 730 471 738 q 514 713 504 722 q 538 737 524 724 q 568 761 551 750 q 605 780 585 772 q 648 787 625 787 q 685 782 669 787 q 710 766 700 776 q 725 743 720 756 q 730 715 730 730 m 144 -122 q 153 -179 144 -153 q 181 -224 161 -205 q 236 -254 201 -243 q 323 -265 271 -265 q 447 -253 398 -265 q 524 -218 495 -240 q 564 -164 552 -195 q 575 -97 575 -134 q 566 -44 575 -65 q 539 -12 557 -24 q 494 5 521 0 q 433 9 468 9 l 297 9 q 240 4 268 9 q 192 -15 213 -1 q 157 -55 170 -29 q 144 -122 144 -81 m 225 505 q 255 375 225 416 q 351 334 284 334 q 409 344 385 334 q 447 375 432 354 q 468 429 462 396 q 475 507 475 462 q 446 646 475 601 q 350 690 418 690 q 254 645 283 690 q 225 505 225 599 m 276 949 q 282 989 276 973 q 299 1016 288 1006 q 324 1030 310 1026 q 355 1034 338 1034 q 386 1030 372 1034 q 411 1016 400 1026 q 428 989 422 1006 q 435 949 435 973 q 428 908 435 924 q 411 882 422 892 q 386 867 400 871 q 355 863 372 863 q 324 867 338 863 q 299 882 310 871 q 282 908 288 892 q 276 949 276 924 z "},"":{"ha":991,"x_min":79,"x_max":965,"o":"m 557 -14 q 346 23 436 -14 q 197 127 256 60 q 109 288 138 194 q 79 497 79 382 q 110 703 79 610 q 202 864 141 797 q 355 968 264 931 q 566 1006 446 1006 q 700 994 643 1006 q 796 961 758 982 q 853 911 834 940 q 872 850 872 883 q 862 809 872 827 q 834 779 852 791 q 794 760 817 766 q 743 753 770 753 q 734 817 743 785 q 703 874 724 849 q 646 916 681 900 q 559 932 610 932 q 409 903 471 932 q 308 819 347 874 q 251 683 269 764 q 233 497 233 602 q 252 313 233 393 q 311 177 270 232 q 418 94 353 122 q 579 65 484 65 q 657 69 619 65 q 724 82 694 73 l 724 306 q 714 355 724 336 q 690 384 705 374 q 653 397 674 393 q 610 400 633 400 l 604 400 l 604 458 l 965 458 l 965 400 l 960 400 q 922 397 940 400 q 892 383 905 393 q 871 352 879 372 q 864 300 864 332 l 864 50 q 720 2 794 18 q 557 -14 646 -14 m 446 -289 q 469 -189 458 -243 q 488 -85 479 -135 l 623 -85 l 623 -98 q 600 -147 613 -120 q 570 -203 586 -174 q 538 -258 554 -231 q 507 -307 522 -286 l 446 -307 l 446 -289 z "},"":{"ha":747,"x_min":32,"x_max":730,"o":"m 730 715 q 726 687 730 701 q 713 664 722 674 q 690 649 704 654 q 657 643 676 643 q 655 659 657 651 q 648 674 653 667 q 634 686 643 682 q 611 690 625 690 q 579 686 593 690 q 551 673 565 682 q 590 605 575 644 q 606 505 606 565 q 590 410 606 454 q 544 334 574 366 q 466 284 513 302 q 355 267 418 267 q 337 267 347 267 q 317 268 327 267 q 298 269 307 268 q 283 271 289 270 q 258 256 270 264 q 236 237 245 248 q 222 214 227 227 q 216 186 216 201 q 223 159 216 169 q 241 143 229 149 q 268 135 252 137 q 302 134 284 134 l 460 134 q 566 118 522 134 q 636 75 609 102 q 676 9 664 47 q 689 -74 689 -29 q 667 -182 689 -134 q 600 -263 645 -230 q 485 -315 554 -297 q 321 -334 415 -334 q 104 -280 176 -334 q 32 -131 32 -227 q 46 -60 32 -90 q 84 -7 60 -29 q 140 28 109 14 q 205 47 171 41 q 178 64 191 54 q 153 88 164 74 q 136 121 142 102 q 129 161 129 139 q 151 233 129 203 q 220 292 172 263 q 166 325 190 304 q 127 374 143 347 q 103 434 111 401 q 94 501 94 467 q 111 609 94 562 q 159 690 127 656 q 241 741 192 723 q 355 758 290 758 q 405 754 380 758 q 450 744 429 751 q 487 730 471 738 q 514 713 504 722 q 538 737 524 724 q 568 761 551 750 q 605 780 585 772 q 648 787 625 787 q 685 782 669 787 q 710 766 700 776 q 725 743 720 756 q 730 715 730 730 m 144 -122 q 153 -179 144 -153 q 181 -224 161 -205 q 236 -254 201 -243 q 323 -265 271 -265 q 447 -253 398 -265 q 524 -218 495 -240 q 564 -164 552 -195 q 575 -97 575 -134 q 566 -44 575 -65 q 539 -12 557 -24 q 494 5 521 0 q 433 9 468 9 l 297 9 q 240 4 268 9 q 192 -15 213 -1 q 157 -55 170 -29 q 144 -122 144 -81 m 225 505 q 255 375 225 416 q 351 334 284 334 q 409 344 385 334 q 447 375 432 354 q 468 429 462 396 q 475 507 475 462 q 446 646 475 601 q 350 690 418 690 q 254 645 283 690 q 225 505 225 599 m 468 1046 q 446 946 456 1000 q 426 842 435 892 l 292 842 l 292 856 q 315 905 301 878 q 344 960 328 932 q 376 1015 359 988 q 407 1064 392 1042 l 468 1064 l 468 1046 z "},"":{"ha":1101,"x_min":53,"x_max":1048,"o":"m 644 0 l 644 58 l 663 58 q 707 62 686 58 q 743 76 728 65 q 767 106 758 86 q 777 158 777 125 l 777 484 l 325 484 l 325 158 q 334 106 325 125 q 358 76 343 86 q 395 62 374 65 q 439 58 416 58 l 457 58 l 457 0 l 53 0 l 53 58 l 71 58 q 115 62 94 58 q 151 76 136 65 q 176 106 167 86 q 184 158 184 125 l 184 839 q 175 888 184 869 q 151 917 166 907 q 114 930 135 927 q 71 933 94 933 l 53 933 l 53 991 l 457 991 l 457 933 l 439 933 q 395 930 416 933 q 358 916 374 926 q 334 886 343 905 q 325 833 325 866 l 325 553 l 777 553 l 777 833 q 767 886 777 866 q 743 916 758 905 q 707 930 728 926 q 663 933 686 933 l 644 933 l 644 991 l 1048 991 l 1048 933 l 1031 933 q 986 930 1007 933 q 950 916 966 926 q 926 886 935 905 q 917 833 917 866 l 917 151 q 926 102 917 121 q 951 74 935 83 q 987 61 966 64 q 1031 58 1008 58 l 1048 58 l 1048 0 l 644 0 m 346 1089 q 382 1135 362 1109 q 421 1188 401 1160 q 457 1243 440 1215 q 485 1293 474 1270 l 616 1293 q 644 1243 627 1270 q 681 1188 661 1215 q 720 1135 700 1160 q 755 1089 739 1109 l 755 1071 l 701 1071 q 621 1128 661 1094 q 550 1196 581 1162 q 479 1128 518 1162 q 400 1071 439 1094 l 346 1071 l 346 1089 z "},"":{"ha":882,"x_min":25,"x_max":843,"o":"m 399 58 l 399 0 l 25 0 l 25 58 l 36 58 q 80 62 60 58 q 116 76 101 65 q 141 106 132 86 q 150 158 150 125 l 150 903 q 141 952 150 933 q 116 981 132 970 q 80 994 100 991 q 36 997 59 997 l 25 997 l 25 1055 l 281 1055 l 281 750 q 280 710 281 731 q 278 672 279 690 q 275 632 277 652 l 282 632 q 486 758 345 758 q 591 742 545 758 q 668 693 637 726 q 715 609 699 661 q 732 486 732 557 l 732 158 q 740 106 732 125 q 762 76 748 86 q 796 62 777 65 q 839 58 816 58 l 843 58 l 843 0 l 602 0 l 602 479 q 593 560 602 525 q 567 620 585 595 q 520 657 549 644 q 449 669 491 669 q 374 653 406 669 q 322 608 342 637 q 291 537 301 578 q 281 444 281 495 l 281 151 q 290 102 281 121 q 315 74 299 83 q 351 61 330 64 q 395 58 372 58 l 399 58 m 225 1126 q 261 1172 241 1146 q 300 1225 281 1198 q 336 1280 319 1253 q 364 1331 353 1308 l 496 1331 q 524 1280 507 1308 q 560 1225 541 1253 q 599 1172 579 1198 q 635 1126 618 1146 l 635 1108 l 581 1108 q 500 1165 541 1131 q 429 1233 460 1200 q 358 1165 397 1200 q 279 1108 319 1131 l 225 1108 l 225 1126 z "},"":{"ha":1101,"x_min":53,"x_max":1048,"o":"m 917 693 l 917 151 q 926 102 917 121 q 951 74 935 83 q 987 61 966 64 q 1031 58 1008 58 l 1048 58 l 1048 0 l 644 0 l 644 58 l 663 58 q 707 62 686 58 q 743 76 728 65 q 767 106 758 86 q 777 158 777 125 l 777 484 l 325 484 l 325 158 q 334 106 325 125 q 358 76 343 86 q 395 62 374 65 q 439 58 416 58 l 457 58 l 457 0 l 53 0 l 53 58 l 71 58 q 115 62 94 58 q 151 76 136 65 q 176 106 167 86 q 184 158 184 125 l 184 693 l 53 693 l 53 761 l 184 761 l 184 839 q 175 888 184 869 q 151 917 166 907 q 114 930 135 927 q 71 933 94 933 l 53 933 l 53 991 l 457 991 l 457 933 l 439 933 q 395 930 416 933 q 358 916 374 926 q 334 886 343 905 q 325 833 325 866 l 325 761 l 777 761 l 777 833 q 767 886 777 866 q 743 916 758 905 q 707 930 728 926 q 663 933 686 933 l 644 933 l 644 991 l 1048 991 l 1048 933 l 1031 933 q 986 930 1007 933 q 950 916 966 926 q 926 886 935 905 q 917 833 917 866 l 917 761 l 1048 761 l 1048 693 l 917 693 m 777 553 l 777 693 l 325 693 l 325 553 l 777 553 z "},"":{"ha":882,"x_min":24,"x_max":843,"o":"m 399 58 l 399 0 l 25 0 l 25 58 l 36 58 q 80 62 60 58 q 116 76 101 65 q 141 106 132 86 q 150 158 150 125 l 150 823 l 24 823 l 24 889 l 150 889 l 150 903 q 141 952 150 933 q 116 981 132 970 q 80 994 100 991 q 36 997 59 997 l 25 997 l 25 1055 l 281 1055 l 281 889 l 518 889 l 518 823 l 281 823 l 281 722 q 280 683 281 703 q 278 644 279 662 q 275 604 277 624 l 282 604 q 486 730 345 730 q 591 714 545 730 q 668 666 637 699 q 715 581 699 633 q 732 458 732 530 l 732 158 q 740 106 732 125 q 762 76 748 86 q 796 62 777 65 q 839 58 816 58 l 843 58 l 843 0 l 602 0 l 602 452 q 593 532 602 497 q 567 592 585 568 q 520 629 549 616 q 449 642 491 642 q 374 626 406 642 q 322 580 342 610 q 291 509 301 551 q 281 416 281 467 l 281 151 q 290 102 281 121 q 315 74 299 83 q 351 61 330 64 q 395 58 372 58 l 399 58 z "},"":{"ha":510,"x_min":7,"x_max":502,"o":"m 53 0 l 53 58 l 71 58 q 115 62 94 58 q 151 76 136 65 q 176 106 167 86 q 184 158 184 125 l 184 833 q 176 886 184 866 q 151 916 167 905 q 115 930 136 926 q 71 933 94 933 l 53 933 l 53 991 l 457 991 l 457 933 l 439 933 q 395 930 416 933 q 358 916 374 926 q 334 886 343 905 q 325 833 325 866 l 325 158 q 334 106 325 125 q 358 76 343 86 q 395 62 374 65 q 439 58 416 58 l 457 58 l 457 0 l 53 0 m 372 1161 q 405 1167 392 1161 q 424 1184 417 1173 q 434 1207 431 1194 q 439 1235 437 1221 l 502 1235 q 491 1174 500 1203 q 464 1121 481 1144 q 420 1084 446 1098 q 356 1071 393 1071 q 289 1084 319 1071 q 232 1115 258 1098 q 183 1145 206 1131 q 138 1158 161 1158 q 105 1152 117 1158 q 86 1136 93 1146 q 75 1113 79 1126 q 70 1085 72 1099 l 7 1085 q 19 1146 9 1117 q 46 1198 28 1175 q 91 1235 64 1221 q 155 1249 117 1249 q 222 1235 192 1249 q 278 1205 252 1221 q 327 1175 304 1188 q 372 1161 350 1161 z "},"":{"ha":444,"x_min":-33,"x_max":462,"o":"m 50 58 q 94 61 73 58 q 130 74 115 64 q 155 102 146 83 q 164 151 164 121 l 164 591 q 155 641 164 622 q 130 669 146 659 q 94 683 115 680 q 50 686 73 686 l 46 686 l 46 745 l 294 745 l 294 158 q 303 106 294 125 q 328 76 313 86 q 364 62 343 65 q 408 58 385 58 l 427 58 l 427 0 l 32 0 l 32 58 l 50 58 m 332 932 q 365 938 352 932 q 384 955 377 944 q 394 978 391 965 q 399 1006 397 991 l 462 1006 q 451 944 460 974 q 424 892 441 915 q 380 855 406 869 q 316 842 353 842 q 249 855 279 842 q 192 885 218 869 q 143 916 166 902 q 98 929 121 929 q 65 923 77 929 q 46 907 53 917 q 35 883 39 897 q 30 856 32 870 l -33 856 q -21 917 -31 888 q 6 969 -12 946 q 51 1006 24 992 q 115 1019 77 1019 q 182 1006 152 1019 q 238 976 212 992 q 287 945 264 959 q 332 932 310 932 z "},"":{"ha":510,"x_min":53,"x_max":457,"o":"m 53 0 l 53 58 l 71 58 q 115 62 94 58 q 151 76 136 65 q 176 106 167 86 q 184 158 184 125 l 184 833 q 176 886 184 866 q 151 916 167 905 q 115 930 136 926 q 71 933 94 933 l 53 933 l 53 991 l 457 991 l 457 933 l 439 933 q 395 930 416 933 q 358 916 374 926 q 334 886 343 905 q 325 833 325 866 l 325 158 q 334 106 325 125 q 358 76 343 86 q 395 62 374 65 q 439 58 416 58 l 457 58 l 457 0 l 53 0 m 456 1085 l 54 1085 l 54 1167 l 456 1167 l 456 1085 z "},"":{"ha":444,"x_min":1,"x_max":427,"o":"m 50 58 q 94 61 73 58 q 130 74 115 64 q 155 102 146 83 q 164 151 164 121 l 164 591 q 155 641 164 622 q 130 669 146 659 q 94 683 115 680 q 50 686 73 686 l 46 686 l 46 745 l 294 745 l 294 158 q 303 106 294 125 q 328 76 313 86 q 364 62 343 65 q 408 58 385 58 l 427 58 l 427 0 l 32 0 l 32 58 l 50 58 m 404 856 l 1 856 l 1 938 l 404 938 l 404 856 z "},"":{"ha":510,"x_min":53,"x_max":457,"o":"m 53 0 l 53 58 l 71 58 q 115 62 94 58 q 151 76 136 65 q 176 106 167 86 q 184 158 184 125 l 184 833 q 176 886 184 866 q 151 916 167 905 q 115 930 136 926 q 71 933 94 933 l 53 933 l 53 991 l 457 991 l 457 933 l 439 933 q 395 930 416 933 q 358 916 374 926 q 334 886 343 905 q 325 833 325 866 l 325 158 q 334 106 325 125 q 358 76 343 86 q 395 62 374 65 q 439 58 416 58 l 457 58 l 457 0 l 53 0 m 255 1071 q 169 1086 205 1071 q 109 1127 133 1101 q 74 1187 85 1153 q 60 1261 62 1222 l 124 1261 q 170 1188 136 1211 q 255 1166 203 1166 q 340 1188 306 1166 q 385 1261 374 1211 l 450 1261 q 436 1187 448 1222 q 400 1127 425 1153 q 340 1086 376 1101 q 255 1071 304 1071 z "},"":{"ha":444,"x_min":17,"x_max":427,"o":"m 50 58 q 94 61 73 58 q 130 74 115 64 q 155 102 146 83 q 164 151 164 121 l 164 591 q 155 641 164 622 q 130 669 146 659 q 94 683 115 680 q 50 686 73 686 l 46 686 l 46 745 l 294 745 l 294 158 q 303 106 294 125 q 328 76 313 86 q 364 62 343 65 q 408 58 385 58 l 427 58 l 427 0 l 32 0 l 32 58 l 50 58 m 212 842 q 126 857 162 842 q 66 898 90 872 q 30 958 42 924 q 17 1032 18 993 l 81 1032 q 126 959 92 981 q 212 937 160 937 q 296 959 262 937 q 342 1032 330 981 l 406 1032 q 393 958 405 993 q 357 898 381 924 q 297 857 333 872 q 212 842 261 842 z "},"":{"ha":510,"x_min":53,"x_max":457,"o":"m 53 0 l 53 58 l 71 58 q 115 62 94 58 q 151 76 136 65 q 176 106 167 86 q 184 158 184 125 l 184 833 q 176 886 184 866 q 151 916 167 905 q 115 930 136 926 q 71 933 94 933 l 53 933 l 53 991 l 457 991 l 457 933 l 439 933 q 395 930 416 933 q 358 916 374 926 q 334 886 343 905 q 325 833 325 866 l 325 158 q 334 106 325 125 q 358 76 343 86 q 395 62 374 65 q 439 58 416 58 l 457 58 l 457 0 l 53 0 m 123 -180 q 136 -119 123 -148 q 173 -65 150 -90 q 225 -24 196 -41 q 287 0 255 -7 l 366 0 q 321 -20 345 -7 q 280 -54 298 -34 q 249 -100 261 -74 q 237 -160 237 -127 q 244 -200 237 -183 q 264 -227 251 -216 q 294 -242 277 -237 q 333 -248 312 -248 q 373 -244 351 -248 q 420 -236 395 -241 l 420 -311 q 396 -321 410 -317 q 367 -328 382 -325 q 338 -332 352 -330 q 313 -334 324 -334 q 234 -325 269 -334 q 174 -297 199 -315 q 136 -249 149 -278 q 123 -180 123 -220 z "},"":{"ha":444,"x_min":32,"x_max":427,"o":"m 50 58 q 94 61 73 58 q 130 74 115 64 q 155 102 146 83 q 164 151 164 121 l 164 591 q 155 641 164 622 q 130 669 146 659 q 94 683 115 680 q 50 686 73 686 l 46 686 l 46 745 l 294 745 l 294 158 q 303 106 294 125 q 328 76 313 86 q 364 62 343 65 q 408 58 385 58 l 427 58 l 427 0 l 32 0 l 32 58 l 50 58 m 144 970 q 151 1010 144 994 q 168 1037 157 1027 q 193 1051 178 1047 q 224 1055 207 1055 q 254 1051 240 1055 q 279 1037 269 1047 q 296 1010 290 1027 q 302 970 302 994 q 296 929 302 945 q 279 903 290 913 q 254 888 269 892 q 224 884 240 884 q 193 888 207 884 q 168 903 178 892 q 151 929 157 913 q 144 970 144 945 m 70 -180 q 83 -119 70 -148 q 120 -65 97 -90 q 173 -24 143 -41 q 234 0 202 -7 l 313 0 q 269 -20 292 -7 q 227 -54 245 -34 q 196 -100 208 -74 q 184 -160 184 -127 q 191 -200 184 -183 q 211 -227 198 -216 q 241 -242 224 -237 q 280 -248 259 -248 q 320 -244 298 -248 q 368 -236 342 -241 l 368 -311 q 343 -321 357 -317 q 314 -328 329 -325 q 285 -332 299 -330 q 260 -334 271 -334 q 181 -325 216 -334 q 121 -297 146 -315 q 83 -249 96 -278 q 70 -180 70 -220 z "},"":{"ha":510,"x_min":53,"x_max":457,"o":"m 53 0 l 53 58 l 71 58 q 115 62 94 58 q 151 76 136 65 q 176 106 167 86 q 184 158 184 125 l 184 833 q 176 886 184 866 q 151 916 167 905 q 115 930 136 926 q 71 933 94 933 l 53 933 l 53 991 l 457 991 l 457 933 l 439 933 q 395 930 416 933 q 358 916 374 926 q 334 886 343 905 q 325 833 325 866 l 325 158 q 334 106 325 125 q 358 76 343 86 q 395 62 374 65 q 439 58 416 58 l 457 58 l 457 0 l 53 0 m 175 1178 q 181 1219 175 1202 q 198 1245 187 1235 q 223 1259 209 1255 q 254 1263 237 1263 q 285 1259 271 1263 q 310 1245 299 1255 q 327 1219 321 1235 q 334 1178 334 1202 q 327 1137 334 1154 q 310 1111 321 1121 q 285 1096 299 1101 q 254 1092 271 1092 q 223 1096 237 1092 q 198 1111 209 1101 q 181 1137 187 1121 q 175 1178 175 1154 z "},"":{"ha":444,"x_min":32,"x_max":427,"o":"m 50 58 q 94 61 73 58 q 130 74 115 64 q 155 102 146 83 q 164 151 164 121 l 164 591 q 155 641 164 622 q 130 669 146 659 q 94 683 115 680 q 50 686 73 686 l 46 686 l 46 745 l 294 745 l 294 158 q 303 106 294 125 q 328 76 313 86 q 364 62 343 65 q 408 58 385 58 l 427 58 l 427 0 l 32 0 l 32 58 l 50 58 z "},"":{"ha":966,"x_min":53,"x_max":928,"o":"m 53 0 l 53 58 l 71 58 q 115 62 94 58 q 151 76 136 65 q 176 106 167 86 q 184 158 184 125 l 184 833 q 176 886 184 866 q 151 916 167 905 q 115 930 136 926 q 71 933 94 933 l 53 933 l 53 991 l 457 991 l 457 933 l 439 933 q 395 930 416 933 q 358 916 374 926 q 334 886 343 905 q 325 833 325 866 l 325 158 q 334 106 325 125 q 358 76 343 86 q 395 62 374 65 q 439 58 416 58 l 457 58 l 457 0 l 53 0 m 455 -268 l 468 -268 q 548 -255 513 -268 q 606 -213 583 -243 q 643 -135 630 -184 q 655 -12 655 -85 l 655 839 q 646 888 655 869 q 621 917 637 907 q 585 930 606 927 q 541 933 564 933 l 524 933 l 524 991 l 928 991 l 928 933 l 909 933 q 865 930 886 933 q 829 916 844 926 q 805 886 814 905 q 795 833 795 866 l 795 -11 q 771 -166 795 -104 q 704 -266 747 -229 q 603 -318 661 -302 q 479 -334 545 -334 l 455 -334 l 455 -268 z "},"":{"ha":861,"x_min":32,"x_max":733,"o":"m 50 58 q 94 61 73 58 q 130 74 115 64 q 155 102 146 83 q 164 151 164 121 l 164 591 q 155 641 164 622 q 130 669 146 659 q 94 683 115 680 q 50 686 73 686 l 46 686 l 46 745 l 294 745 l 294 158 q 303 106 294 125 q 328 76 313 86 q 364 62 343 65 q 408 58 385 58 l 427 58 l 427 0 l 32 0 l 32 58 l 50 58 m 144 970 q 151 1010 144 994 q 168 1037 157 1027 q 193 1051 178 1047 q 224 1055 207 1055 q 254 1051 240 1055 q 279 1037 269 1047 q 296 1010 290 1027 q 302 970 302 994 q 296 929 302 945 q 279 903 290 913 q 254 888 269 892 q 224 884 240 884 q 193 888 207 884 q 168 903 178 892 q 151 929 157 913 q 144 970 144 945 m 725 745 l 725 -11 q 705 -166 725 -104 q 648 -266 684 -229 q 561 -318 611 -302 q 450 -334 510 -334 l 427 -334 l 427 -268 l 437 -268 q 504 -255 475 -268 q 553 -213 533 -243 q 584 -135 573 -184 q 594 -12 594 -85 l 594 591 q 585 641 594 622 q 560 669 576 659 q 524 683 545 680 q 480 686 503 686 l 476 686 l 476 745 l 725 745 m 575 970 q 581 1010 575 994 q 598 1037 587 1027 q 623 1051 608 1047 q 654 1055 637 1055 q 685 1051 670 1055 q 710 1037 699 1047 q 727 1010 720 1027 q 733 970 733 994 q 727 929 733 945 q 710 903 720 913 q 685 888 699 892 q 654 884 670 884 q 623 888 637 884 q 598 903 608 892 q 581 929 587 913 q 575 970 575 945 z "},"":{"ha":496,"x_min":-16,"x_max":459,"o":"m -16 -268 l -3 -268 q 77 -255 42 -268 q 136 -213 112 -243 q 172 -135 159 -184 q 184 -12 184 -85 l 184 839 q 175 888 184 869 q 151 917 166 907 q 114 930 135 927 q 71 933 94 933 l 53 933 l 53 991 l 457 991 l 457 933 l 439 933 q 395 930 416 933 q 358 916 374 926 q 334 886 343 905 q 325 833 325 866 l 325 -11 q 300 -166 325 -104 q 233 -266 276 -229 q 133 -318 191 -302 q 8 -334 75 -334 l -16 -334 l -16 -268 m 50 1089 q 85 1135 66 1109 q 124 1188 105 1160 q 161 1243 144 1215 q 189 1293 178 1270 l 320 1293 q 348 1243 331 1270 q 384 1188 365 1215 q 423 1135 404 1160 q 459 1089 443 1109 l 459 1071 l 405 1071 q 325 1128 365 1094 q 254 1196 285 1162 q 182 1128 222 1162 q 104 1071 143 1094 l 50 1071 l 50 1089 z "},"":{"ha":416,"x_min":-17,"x_max":394,"o":"m 281 745 l 281 -11 q 260 -166 281 -104 q 203 -266 240 -229 q 116 -318 167 -302 q 5 -334 66 -334 l -17 -334 l -17 -268 l -7 -268 q 60 -255 31 -268 q 109 -213 89 -243 q 139 -135 129 -184 q 150 -12 150 -85 l 150 591 q 141 641 150 622 q 116 669 132 659 q 80 683 100 680 q 36 686 59 686 l 32 686 l 32 745 l 281 745 m -16 860 q 20 905 1 880 q 59 959 40 931 q 96 1014 79 986 q 123 1064 113 1041 l 255 1064 q 283 1014 266 1041 q 319 959 300 986 q 358 905 338 931 q 394 860 378 880 l 394 842 l 340 842 q 260 899 300 865 q 189 966 220 933 q 117 899 157 933 q 39 842 78 865 l -16 842 l -16 860 z "},"":{"ha":972,"x_min":53,"x_max":989,"o":"m 612 771 q 650 817 635 797 q 673 853 665 837 q 685 882 682 869 q 689 904 689 894 q 672 928 689 922 q 621 935 655 935 l 621 991 l 928 991 l 928 935 q 882 925 904 935 q 838 900 860 916 q 792 859 816 883 q 742 804 769 835 l 541 578 l 833 170 q 910 86 873 115 q 986 58 947 58 l 989 58 l 989 0 l 974 0 q 859 5 904 0 q 784 25 814 11 q 731 63 753 39 q 682 125 708 87 l 443 468 l 325 372 l 325 158 q 334 106 325 125 q 358 76 343 86 q 395 62 374 65 q 439 58 416 58 l 457 58 l 457 0 l 53 0 l 53 58 l 71 58 q 114 61 94 58 q 151 74 135 64 q 175 102 166 83 q 184 151 184 121 l 184 839 q 175 888 184 869 q 151 917 166 907 q 114 930 135 927 q 71 933 94 933 l 53 933 l 53 991 l 457 991 l 457 933 l 439 933 q 395 930 416 933 q 358 916 374 926 q 334 886 343 905 q 325 833 325 866 l 325 441 l 612 771 m 415 -289 q 437 -189 427 -243 q 456 -85 448 -135 l 591 -85 l 591 -98 q 568 -147 582 -120 q 539 -203 555 -174 q 507 -258 523 -231 q 476 -307 490 -286 l 415 -307 l 415 -289 z "},"":{"ha":812,"x_min":25,"x_max":814,"o":"m 471 447 l 656 172 q 727 87 692 117 q 810 58 763 58 l 814 58 l 814 0 l 794 0 q 695 4 734 0 q 627 21 656 7 q 575 62 599 35 q 522 135 551 89 l 383 353 l 281 277 l 281 151 q 290 102 281 121 q 315 74 299 83 q 351 61 330 64 q 395 58 372 58 l 399 58 l 399 0 l 25 0 l 25 58 l 36 58 q 80 62 60 58 q 116 76 101 65 q 141 106 132 86 q 150 158 150 125 l 150 903 q 141 952 150 933 q 116 981 132 970 q 80 994 100 991 q 36 997 59 997 l 25 997 l 25 1055 l 281 1055 l 281 519 q 280 471 281 500 q 278 413 279 441 q 275 345 277 380 l 449 534 q 486 578 471 559 q 509 612 500 597 q 522 637 518 626 q 525 659 525 648 q 508 681 525 676 q 457 686 492 686 l 457 745 l 764 745 l 764 686 q 669 652 715 686 q 568 557 623 618 l 471 447 m 335 -289 q 357 -189 347 -243 q 376 -85 368 -135 l 511 -85 l 511 -98 q 488 -147 502 -120 q 459 -203 475 -174 q 427 -258 443 -231 q 396 -307 410 -286 l 335 -307 l 335 -289 z "},"":{"ha":812,"x_min":25,"x_max":814,"o":"m 471 447 l 656 172 q 727 87 692 117 q 810 58 763 58 l 814 58 l 814 0 l 794 0 q 695 4 734 0 q 627 21 656 7 q 575 62 599 35 q 522 135 551 89 l 383 353 l 281 277 l 281 151 q 290 102 281 121 q 315 74 299 83 q 351 61 330 64 q 395 58 372 58 l 399 58 l 399 0 l 25 0 l 25 58 l 36 58 q 80 62 60 58 q 116 76 101 65 q 141 106 132 86 q 150 158 150 125 l 150 592 q 141 641 150 623 q 116 670 132 660 q 80 683 100 680 q 36 686 59 686 l 25 686 l 25 745 l 281 745 l 281 519 q 280 471 281 500 q 278 413 279 441 q 275 345 277 380 l 449 534 q 486 578 471 559 q 509 612 500 597 q 522 637 518 626 q 525 659 525 648 q 508 681 525 676 q 457 686 492 686 l 457 745 l 764 745 l 764 686 q 669 652 715 686 q 568 557 623 618 l 471 447 z "},"":{"ha":865,"x_min":53,"x_max":807,"o":"m 53 0 l 53 58 l 71 58 q 115 62 94 58 q 151 76 136 65 q 176 106 167 86 q 184 158 184 125 l 184 833 q 176 886 184 866 q 151 916 167 905 q 115 930 136 926 q 71 933 94 933 l 53 933 l 53 991 l 457 991 l 457 933 l 439 933 q 395 930 416 933 q 359 917 374 927 q 334 888 343 907 q 325 839 325 869 l 325 69 l 599 69 q 652 80 630 69 q 688 110 674 92 q 710 150 703 127 q 721 195 718 172 l 734 298 l 807 298 l 798 0 l 53 0 m 206 1089 q 238 1135 222 1109 q 271 1188 255 1160 q 301 1243 287 1215 q 327 1293 316 1270 l 475 1293 l 475 1279 q 437 1233 463 1261 q 382 1176 412 1206 q 319 1118 351 1146 q 259 1071 287 1090 l 206 1071 l 206 1089 z "},"":{"ha":431,"x_min":18,"x_max":416,"o":"m 36 58 q 80 62 60 58 q 116 76 101 65 q 141 106 132 86 q 150 158 150 125 l 150 903 q 141 952 150 933 q 116 981 132 970 q 80 994 100 991 q 36 997 59 997 l 18 997 l 18 1055 l 281 1055 l 281 158 q 290 106 281 125 q 314 76 298 86 q 350 62 330 65 q 395 58 371 58 l 412 58 l 412 0 l 18 0 l 18 58 l 36 58 m 146 1128 q 179 1173 162 1147 q 211 1226 195 1199 q 242 1281 227 1254 q 267 1332 256 1309 l 416 1332 l 416 1318 q 378 1272 403 1299 q 322 1215 353 1244 q 259 1157 292 1185 q 199 1109 227 1128 l 146 1109 l 146 1128 z "},"":{"ha":865,"x_min":53,"x_max":807,"o":"m 53 0 l 53 58 l 71 58 q 115 62 94 58 q 151 76 136 65 q 176 106 167 86 q 184 158 184 125 l 184 833 q 176 886 184 866 q 151 916 167 905 q 115 930 136 926 q 71 933 94 933 l 53 933 l 53 991 l 457 991 l 457 933 l 439 933 q 395 930 416 933 q 359 917 374 927 q 334 888 343 907 q 325 839 325 869 l 325 69 l 599 69 q 652 80 630 69 q 688 110 674 92 q 710 150 703 127 q 721 195 718 172 l 734 298 l 807 298 l 798 0 l 53 0 m 354 -289 q 376 -189 366 -243 q 395 -85 387 -135 l 530 -85 l 530 -98 q 507 -147 521 -120 q 478 -203 494 -174 q 446 -258 462 -231 q 415 -307 429 -286 l 354 -307 l 354 -289 z "},"":{"ha":431,"x_min":18,"x_max":412,"o":"m 36 58 q 80 62 60 58 q 116 76 101 65 q 141 106 132 86 q 150 158 150 125 l 150 903 q 141 952 150 933 q 116 981 132 970 q 80 994 100 991 q 36 997 59 997 l 18 997 l 18 1055 l 281 1055 l 281 158 q 290 106 281 125 q 314 76 298 86 q 350 62 330 65 q 395 58 371 58 l 412 58 l 412 0 l 18 0 l 18 58 l 36 58 m 111 -289 q 133 -189 122 -243 q 152 -85 144 -135 l 287 -85 l 287 -98 q 264 -147 277 -120 q 234 -203 250 -174 q 202 -258 218 -231 q 172 -307 186 -286 l 111 -307 l 111 -289 z "},"":{"ha":865,"x_min":53,"x_max":807,"o":"m 53 0 l 53 58 l 71 58 q 115 62 94 58 q 151 76 136 65 q 176 106 167 86 q 184 158 184 125 l 184 833 q 176 886 184 866 q 151 916 167 905 q 115 930 136 926 q 71 933 94 933 l 53 933 l 53 991 l 457 991 l 457 933 l 439 933 q 395 930 416 933 q 359 917 374 927 q 334 888 343 907 q 325 839 325 869 l 325 69 l 599 69 q 652 80 630 69 q 688 110 674 92 q 710 150 703 127 q 721 195 718 172 l 734 298 l 807 298 l 798 0 l 53 0 m 586 788 q 608 888 597 835 q 628 992 619 942 l 749 992 l 749 979 q 726 930 739 957 q 696 874 712 903 q 664 819 680 846 q 633 770 648 792 l 586 770 l 586 788 z "},"":{"ha":431,"x_min":18,"x_max":519,"o":"m 36 58 q 80 62 60 58 q 116 76 101 65 q 141 106 132 86 q 150 158 150 125 l 150 903 q 141 952 150 933 q 116 981 132 970 q 80 994 100 991 q 36 997 59 997 l 18 997 l 18 1055 l 281 1055 l 281 158 q 290 106 281 125 q 314 76 298 86 q 350 62 330 65 q 395 58 371 58 l 412 58 l 412 0 l 18 0 l 18 58 l 36 58 m 357 851 q 379 951 368 898 q 399 1055 390 1005 l 519 1055 l 519 1042 q 496 993 510 1020 q 467 938 483 966 q 435 882 451 909 q 404 833 418 855 l 357 833 l 357 851 z "}}}
